<svg xmlns="http://www.w3.org/2000/svg" width="200" height="200" viewBox="0 0 200 200" version="1.1">
	<path d="M 92.794 34.147 L 92.500 41.293 84 43.019 C 68.696 46.127, 56.539 52.503, 47.328 62.253 C 38.308 71.799, 34 82.130, 34 94.210 L 34 100 37.779 100 L 41.558 100 42.799 107.882 C 46.913 134.029, 63.601 159.004, 83.693 169.085 C 90.011 172.254, 91.183 172.500, 100 172.500 C 108.746 172.500, 110.044 172.234, 116.352 169.150 C 124.259 165.285, 136.262 154.448, 141.994 146 C 149.971 134.245, 156.436 117.689, 157.673 105.850 L 158.285 100 162.142 100 L 166 100 166 93.682 C 166 82, 162.078 72.438, 153.474 63.145 C 143.628 52.510, 132.040 46.288, 116 43.023 L 107.500 41.293 107.206 34.147 L 106.912 27 100 27 L 93.088 27 92.794 34.147 M 57 102.770 C 57 107.388, 60.903 119.969, 64.655 127.444 C 73.866 145.798, 87.972 158, 99.978 158 C 107.358 158, 113.354 154.761, 122.085 146.060 C 133.073 135.109, 140.995 119.399, 142.656 105.272 L 143.275 100 100.138 100 L 57 100 57 102.770" stroke="none" fill="black" fill-rule="evenodd"/>
</svg>