<svg xmlns="http://www.w3.org/2000/svg" width="200" height="200" viewBox="0 0 200 200" version="1.1">
	<path d="M 56.012 29.611 C 56.039 36.202, 59.797 46.241, 64.676 52.759 C 66.447 55.125, 66.757 56.132, 65.808 56.433 C 65.089 56.661, 62.925 57.343, 61 57.948 C 51.360 60.976, 42.016 72.184, 37.327 86.343 C 34.925 93.598, 34.621 96.048, 34.577 108.500 C 34.518 125.105, 35.991 131.937, 42.609 145.745 C 50.763 162.759, 62.503 171.908, 77.323 172.796 C 84.820 173.246, 85.456 173.108, 92.573 169.496 L 100 165.726 107.427 169.496 C 114.544 173.108, 115.180 173.246, 122.677 172.796 C 132.456 172.210, 139.235 168.985, 146.648 161.392 C 163.650 143.977, 170.506 111.534, 162.524 86.265 C 154.691 61.471, 133.960 49.836, 114.645 59.395 C 111.855 60.776, 109.412 61.746, 109.216 61.550 C 108.369 60.702, 113.153 53.194, 116.665 49.860 C 121.497 45.274, 126.042 42.970, 131.903 42.136 L 136.500 41.481 136.797 34.098 L 137.093 26.714 131.048 27.262 C 119.464 28.312, 106.920 36.275, 99.493 47.292 L 96.262 52.084 93.017 47.026 C 86.208 36.416, 73.479 28.307, 61.998 27.266 L 56 26.722 56.012 29.611" stroke="none" fill="black" fill-rule="evenodd"/>
</svg>