<svg xmlns="http://www.w3.org/2000/svg" width="200" height="200" viewBox="0 0 200 200" version="1.1">
	<path d="M 93 36.256 L 93 45.512 88.158 47.733 C 81.316 50.872, 74.616 58.371, 72.415 65.353 L 70.635 71 63.317 71 L 56 71 56 78 L 56 85 60 85 C 62.200 85, 64 85.250, 64 85.555 C 64 85.860, 62.200 88.760, 60 92 L 56 97.890 56 132.810 C 56 166.624, 56.066 167.814, 58.073 170.365 L 60.145 173 99.898 173 L 139.651 173 141.826 170.686 C 143.974 168.399, 144 167.944, 143.997 132.936 L 143.994 97.500 139.997 91.500 L 136 85.500 140 85.193 L 144 84.885 144 77.943 L 144 71 136.579 71 L 129.159 71 128.457 67.750 C 127.253 62.169, 124.288 57.444, 119.015 52.704 C 116.219 50.189, 112.371 47.618, 110.465 46.989 L 107 45.845 107 36.422 L 107 27 100 27 L 93 27 93 36.256 M 93.121 61.710 C 90.150 63.174, 86.014 68.136, 86.004 70.250 C 86.002 70.662, 92.300 71, 100 71 C 107.700 71, 113.998 70.662, 113.996 70.250 C 113.994 69.838, 113.147 68.114, 112.114 66.420 C 108.532 60.546, 99.853 58.394, 93.121 61.710" stroke="none" fill="black" fill-rule="evenodd"/>
</svg>