<svg xmlns="http://www.w3.org/2000/svg" width="200" height="200" viewBox="0 0 200 200" version="1.1">
	<path d="M 83.750 57.242 L 78 58.227 78 74.659 C 78 90.772, 77.952 91.139, 75.545 93.545 C 72.602 96.489, 69.072 96.688, 65.861 94.091 C 63.632 92.288, 63.472 91.392, 63 78.127 L 62.500 64.072 57.863 66.786 C 45.551 73.992, 35.796 83.740, 30.189 94.441 C 27.894 98.821, 27.536 100.718, 27.519 108.574 C 27.502 116.933, 27.738 118.037, 30.520 122.574 C 34.243 128.648, 42.909 134.704, 52.274 137.778 C 74.126 144.952, 115.496 145.936, 140 139.866 C 154.941 136.164, 163.821 130.759, 169.801 121.726 C 172.207 118.091, 172.500 116.717, 172.500 109.060 C 172.500 101.374, 172.155 99.768, 169.218 93.797 C 167.270 89.837, 163.407 84.506, 159.717 80.687 C 153.511 74.263, 138.389 63.641, 136.826 64.608 C 136.372 64.888, 136 71.166, 136 78.559 C 136 90.667, 135.802 92.198, 134 94 C 131.387 96.613, 126.822 96.565, 124.405 93.899 C 122.742 92.064, 122.436 89.691, 122 75.219 L 121.500 58.640 118.980 57.968 C 117.595 57.598, 114.332 56.977, 111.730 56.587 L 107 55.877 107 79.264 C 107 102.418, 106.977 102.673, 104.686 104.826 C 101.793 107.543, 97.618 107.618, 95 105 C 93.113 103.113, 93 101.667, 93 79.500 C 93 57.737, 92.871 56.009, 91.250 56.128 C 90.287 56.199, 86.912 56.700, 83.750 57.242" stroke="none" fill="black" fill-rule="evenodd"/>
</svg>