<svg xmlns="http://www.w3.org/2000/svg" width="200" height="200" viewBox="0 0 200 200" version="1.1">
	<path d="M 75 29.079 C 72.525 30.198, 69.145 32.422, 67.488 34.022 L 64.477 36.930 59.988 35.367 C 57.077 34.352, 53.679 33.985, 50.318 34.322 C 38.918 35.464, 31.099 42.137, 27.552 53.750 L 26.865 56 85.363 56 L 143.860 56 143.055 53.192 C 139.039 39.188, 124.419 31.016, 111.149 35.357 L 106.189 36.979 102.844 33.839 C 95.464 26.909, 84.096 24.966, 75 29.079 M 27.221 117.984 L 27.500 164.968 31.266 168.734 L 35.032 172.500 84.328 172.777 L 133.624 173.054 137.062 170.757 C 141.615 167.715, 143.997 162.735, 143.998 156.250 L 144 151 156.500 151 C 174.413 151, 173 153.820, 173 118.073 L 173 89.145 170.365 87.073 C 168.036 85.240, 166.355 85, 155.865 85 L 144 85 144 78 L 144 71 85.471 71 L 26.943 71 27.221 117.984 M 58.455 102.455 C 56.040 104.869, 56 105.187, 56 122 C 56 138.813, 56.040 139.131, 58.455 141.545 C 61.399 144.490, 64.929 144.688, 68.139 142.088 C 70.464 140.206, 70.500 139.896, 70.500 122 C 70.500 104.104, 70.464 103.794, 68.139 101.912 C 64.929 99.312, 61.399 99.510, 58.455 102.455 M 102.455 102.455 C 100.040 104.869, 100 105.187, 100 122 C 100 138.813, 100.040 139.131, 102.455 141.545 C 106.306 145.396, 111.069 144.701, 113.537 139.928 C 115.623 135.895, 115.623 108.105, 113.537 104.072 C 111.069 99.299, 106.306 98.604, 102.455 102.455 M 144 118.544 L 144 137.088 151.250 136.794 L 158.500 136.500 158.773 118.250 L 159.045 100 151.523 100 L 144 100 144 118.544" stroke="none" fill="black" fill-rule="evenodd"/>
</svg>