<svg xmlns="http://www.w3.org/2000/svg" width="200" height="200" viewBox="0 0 200 200" version="1.1">
	<path d="M 119 27.935 C 109.753 30.758, 100.842 38.381, 96.924 46.820 C 94.690 51.631, 94.276 52, 91.643 51.524 C 87.663 50.804, 82.898 53.333, 77.639 58.955 C 67.892 69.375, 63.742 82.616, 63.675 103.500 C 63.593 129.272, 70.458 150.979, 82.930 164.382 C 88.347 170.203, 93.828 172.956, 100 172.956 C 106.172 172.956, 111.653 170.203, 117.070 164.382 C 122.900 158.116, 126.319 152.248, 129.973 142.236 C 138.785 118.091, 138.648 87.054, 129.652 69.301 C 126.288 62.662, 118.639 54.361, 114.510 52.867 C 111.656 51.835, 111.276 51.353, 112.103 49.807 C 113.829 46.583, 120.471 42.993, 126.760 41.885 C 133.665 40.669, 136.333 38.471, 136.333 34 C 136.333 29.053, 133.572 26.986, 127.095 27.086 C 124.018 27.133, 120.375 27.515, 119 27.935 M 57.222 50.971 C 47.200 54.578, 38.909 62.188, 33.769 72.500 C 28.178 83.717, 27.494 87.307, 27.582 105 C 27.655 119.966, 27.916 122.332, 30.385 130.451 C 36.214 149.615, 46.855 164.643, 58.500 170.157 C 61.800 171.720, 66.003 172.999, 67.839 172.999 L 71.178 173 68.607 169.945 C 64.109 164.599, 59.219 154.826, 55.541 143.831 C 44.590 111.097, 47.804 73.987, 63.340 53.750 C 66.789 49.257, 66.865 49.002, 64.743 49.036 C 63.510 49.056, 60.125 49.927, 57.222 50.971 M 136.554 53.606 C 141.223 59.682, 145.520 68.978, 148.249 78.907 C 151.088 89.235, 151.367 116.480, 148.757 128.561 C 145.248 144.804, 139.146 159.725, 132.397 168.567 L 128.797 173.283 133.262 172.780 C 147.934 171.126, 162.501 154.139, 169.560 130.451 C 173.131 118.466, 174.063 98.877, 171.591 87.766 C 167.020 67.217, 153.307 51.992, 137.028 49.388 L 132.793 48.711 136.554 53.606" stroke="none" fill="black" fill-rule="evenodd"/>
</svg>