<svg xmlns="http://www.w3.org/2000/svg" width="200" height="200" viewBox="0 0 200 200" version="1.1">
	<path d="M 91.500 28.556 C 88.200 29.382, 81.263 32.115, 76.084 34.631 C 68.138 38.492, 65.232 40.634, 57.469 48.353 C 49.630 56.148, 47.585 58.904, 43.636 67 C 37.490 79.599, 35.697 87.048, 35.693 100 C 35.685 120.400, 42.538 136.624, 57.460 151.532 C 67.188 161.251, 74.638 165.872, 87.500 170.164 C 93.562 172.187, 96.444 172.498, 109 172.485 C 122.274 172.471, 124.176 172.234, 131.500 169.677 C 142.806 165.730, 152.337 159.770, 160.479 151.554 C 168.095 143.869, 175 133.107, 175 128.922 C 175 127.321, 173.050 123.723, 169.996 119.688 C 166.165 114.628, 164.100 112.811, 161.188 111.938 C 152.981 109.479, 152.599 108.730, 151.953 93.818 C 151.237 77.285, 149.736 73.474, 139.988 63.419 C 130.897 54.044, 130.358 52.549, 132.562 42.805 C 134.179 35.654, 134.186 34.933, 132.660 32.605 C 131.758 31.227, 129.327 29.576, 127.259 28.937 C 121.149 27.047, 98.497 26.806, 91.500 28.556 M 105.500 57.195 C 102.714 58.775, 102.033 60.026, 102.015 63.595 C 101.985 69.801, 110.276 72.847, 114.156 68.056 C 116.691 64.925, 116.465 61.375, 113.545 58.455 C 110.877 55.786, 108.610 55.431, 105.500 57.195 M 74.073 73.635 C 72.933 75.084, 72 77.048, 72 78 C 72 81.354, 75.906 85, 79.500 85 C 83.094 85, 87 81.354, 87 78 C 87 74.646, 83.094 71, 79.500 71 C 77.067 71, 75.576 71.724, 74.073 73.635 M 104 102 C 101.488 104.512, 101.352 110.110, 103.750 112.255 C 106.804 114.985, 111.122 114.878, 114 112 C 116.703 109.297, 116.518 105.428, 113.545 102.455 C 110.572 99.482, 106.703 99.297, 104 102 M 63 107.719 C 58.716 109.266, 56.439 115.116, 58.765 118.600 C 59.768 120.102, 63.516 122, 65.480 122 C 67.922 122, 72 117.407, 72 114.656 C 72 110.272, 66.874 106.321, 63 107.719 M 82.707 131.016 C 80.769 132.540, 80.004 134.048, 80.015 136.323 C 80.033 140.060, 80.727 141.294, 83.684 142.850 C 86.955 144.572, 88.830 144.261, 91.545 141.545 C 97.848 135.243, 89.689 125.524, 82.707 131.016 M 120.242 130.034 C 112.495 133.147, 116.769 145.308, 124.977 143.505 C 131.461 142.081, 132.430 132.884, 126.385 130.130 C 123.520 128.824, 123.263 128.820, 120.242 130.034" stroke="none" fill="black" fill-rule="evenodd"/>
</svg>