<svg xmlns="http://www.w3.org/2000/svg" width="200" height="200" viewBox="0 0 200 200" version="1.1">
	<path d="M 81.762 28.889 C 74.369 31.320, 67.330 35.870, 61.778 41.806 C 52.395 51.838, 48.672 61.878, 49.117 75.951 L 49.398 84.827 44.449 88.740 C 38.210 93.672, 34.738 98.221, 30.695 106.756 C 27.654 113.175, 27.500 114.078, 27.500 125.500 C 27.500 137.280, 27.568 137.643, 31.208 145.266 C 36.334 156, 43.181 163.002, 53.600 168.165 C 60.874 171.769, 62.865 172.300, 70.782 172.752 C 80.808 173.323, 87.846 172.056, 95.253 168.344 L 100.007 165.963 103.784 167.890 C 111.385 171.768, 118.778 173.248, 128.429 172.826 C 136.419 172.477, 138.538 171.966, 145.265 168.772 C 158.076 162.688, 166.603 153.166, 171.030 140 C 172.878 134.506, 173.148 131.918, 172.773 123.277 C 172.367 113.894, 172.016 112.414, 168.498 105.277 C 164.157 96.468, 156.289 88.003, 148.724 84.002 L 144 81.503 144 74.962 C 144 56.015, 133.486 39.415, 116.308 31.242 C 109.036 27.781, 107.779 27.508, 98 27.264 C 89.863 27.060, 86.209 27.426, 81.762 28.889 M 87 42.878 C 73.647 47.259, 65.106 58.029, 64.220 71.608 L 63.755 78.715 71.273 78.233 C 79.761 77.688, 86.919 79.052, 94.767 82.708 L 100.035 85.162 104.523 82.989 C 110.660 80.018, 118.555 78.026, 124.250 78.012 L 129 78 129 73.682 C 129 62.644, 122.163 51.329, 112.065 45.653 C 107.361 43.009, 105.480 42.562, 98.065 42.328 C 93.354 42.180, 88.375 42.427, 87 42.878 M 87.073 51.635 C 84.408 55.022, 84.454 57.281, 87.250 60.393 C 91.997 65.676, 100 62.919, 100 56 C 100 49.313, 91.229 46.351, 87.073 51.635 M 63.205 94.834 C 56.589 97.194, 51.441 101.257, 47.264 107.415 C 42.964 113.752, 41.691 118.950, 42.212 128.038 C 43.174 144.798, 55.219 156.777, 72.127 157.787 C 85.890 158.609, 96.372 152.895, 102.921 141 C 106.283 134.894, 106.499 133.954, 106.491 125.500 C 106.483 117.609, 106.140 115.849, 103.707 111.216 C 100.260 104.653, 94.435 98.904, 88.236 95.950 C 81.610 92.791, 70.341 92.289, 63.205 94.834 M 117.413 93.943 C 112.025 95.231, 111.848 95.721, 114.946 100.789 C 119.742 108.634, 121.501 115.413, 121.490 126 C 121.478 136.632, 119.846 142.698, 114.897 150.502 C 111.440 155.953, 111.759 156.527, 118.851 157.600 C 125.675 158.631, 135.115 157.492, 139.879 155.062 C 157.576 146.033, 163.615 124.399, 153.077 107.782 C 145.922 96.501, 130.975 90.700, 117.413 93.943 M 66.114 108.750 C 64.955 109.713, 63.729 111.933, 63.391 113.684 C 62.101 120.364, 71.105 124.710, 75.826 119.686 C 78.710 116.615, 78.597 112.507, 75.545 109.455 C 72.661 106.571, 69.063 106.302, 66.114 108.750 M 139.607 109.250 C 134.324 113.997, 137.081 122, 144 122 C 150.687 122, 153.649 113.229, 148.365 109.073 C 144.978 106.408, 142.719 106.454, 139.607 109.250" stroke="none" fill="black" fill-rule="evenodd"/>
</svg>