<svg xmlns="http://www.w3.org/2000/svg" width="200" height="200" viewBox="0 0 200 200" version="1.1">
	<path d="M 78 36.629 L 78 46.258 72.710 51.379 C 69.800 54.196, 66.554 58.300, 65.497 60.500 C 62.773 66.170, 62.892 75.183, 65.768 81.066 C 68.528 86.711, 68.527 87.209, 65.749 94 C 63.578 99.309, 63.500 100.614, 63.500 131.500 C 63.500 175.713, 61.114 173, 100 173 C 128.800 173, 129.862 172.806, 134.171 166.765 C 136.493 163.510, 136.500 163.405, 136.500 131.500 C 136.500 100.614, 136.422 99.309, 134.251 94 C 131.473 87.209, 131.472 86.711, 134.232 81.066 C 137.648 74.079, 137.343 66.017, 133.396 59 C 131.694 55.975, 128.462 52.150, 126.212 50.500 L 122.122 47.500 122.061 37.250 L 122 27 100 27 L 78 27 78 36.629 M 93 45.480 C 93 51.374, 90.178 56.782, 85.378 60.084 C 80.942 63.136, 77.974 67.425, 78.031 70.700 C 78.048 71.690, 79.169 74.750, 80.522 77.500 C 83.489 83.530, 83.676 89.201, 81.124 95.713 C 80.093 98.346, 78.932 101.963, 78.545 103.750 L 77.841 107 100 107 L 122.159 107 121.455 103.750 C 121.068 101.963, 119.907 98.346, 118.876 95.713 C 116.330 89.216, 116.523 83.567, 119.510 77.151 C 120.879 74.209, 121.998 71.059, 121.996 70.151 C 121.990 67.322, 118.367 62.390, 114.572 60.044 C 110.153 57.313, 107 51.482, 107 46.040 L 107 42 100 42 L 93 42 93 45.480" stroke="none" fill="black" fill-rule="evenodd"/>
</svg>