<svg xmlns="http://www.w3.org/2000/svg" width="200" height="200" viewBox="0 0 200 200" version="1.1">
	<path d="M 86.883 30.257 C 82.800 32.371, 79.380 35.092, 77.142 38.007 C 75.093 40.676, 73.045 42.367, 72.097 42.172 C 71.219 41.991, 67.334 41.779, 63.464 41.699 C 57.628 41.580, 55.466 42.026, 50.783 44.318 C 41.595 48.813, 35.299 57.626, 34.310 67.378 C 33.659 73.787, 36.360 78, 41.118 78 C 44.832 78, 49 74.041, 49 70.513 C 49 63.952, 54.278 57.694, 60.935 56.363 C 64.342 55.682, 72.044 58.143, 74.044 60.553 C 77.130 64.271, 84.334 60.963, 85.536 55.275 C 87.404 46.436, 92.232 42.007, 100 42.007 C 107.896 42.007, 112.834 46.537, 114.406 55.221 C 115.665 62.174, 121.294 63.818, 128.200 59.250 C 138.072 52.720, 151 59.004, 151 70.333 C 151 77.144, 159.321 80.481, 163.969 75.533 C 165.989 73.383, 166.215 72.371, 165.729 67.661 C 164.231 53.148, 152.015 41.801, 137.664 41.590 C 134.274 41.541, 130.319 41.832, 128.875 42.238 C 126.579 42.883, 125.924 42.483, 123.657 39.058 C 120.816 34.764, 114.411 29.968, 109.101 28.159 C 107.231 27.521, 102.883 27, 99.438 27 C 94.323 27, 92.021 27.597, 86.883 30.257 M 29.635 87.073 C 27.252 88.947, 27 89.793, 27 95.913 C 27 118.698, 41.219 142.643, 62.281 155.326 L 67.733 158.609 65.367 161.360 C 62.456 164.744, 62.384 166.948, 65.073 170.365 L 67.145 173 100 173 L 132.855 173 134.927 170.365 C 137.631 166.928, 137.543 164.798, 134.548 161.239 L 132.096 158.325 135.298 156.788 C 141.366 153.876, 151.143 145.717, 156.483 139.107 C 166.672 126.497, 173 109.947, 173 95.913 C 173 89.793, 172.748 88.947, 170.365 87.073 C 167.758 85.022, 167.007 85, 100 85 C 32.993 85, 32.242 85.022, 29.635 87.073" stroke="none" fill="black" fill-rule="evenodd"/>
</svg>