<svg xmlns="http://www.w3.org/2000/svg" width="200" height="200" viewBox="0 0 200 200" version="1.1">
	<path d="M 73.329 29.427 C 66.865 32.437, 60.640 38.756, 58.425 44.558 C 56.831 48.730, 56.499 49, 52.952 49 C 47.117 49, 37.284 54.574, 32.911 60.360 C 18.990 78.778, 30.410 105.152, 53.006 106.768 L 59.863 107.259 68.931 122.157 L 78 137.055 78 153.028 C 78 174.385, 76.487 173, 99.826 173 C 123.279 173, 122 174.159, 122 152.896 L 122 137.421 131.338 122.461 L 140.676 107.500 146.678 106.917 C 162.103 105.418, 172.967 93.411, 172.990 77.837 C 172.998 72.258, 172.469 70.150, 169.735 64.868 C 165.923 57.505, 159.063 51.713, 152.010 49.906 C 148.836 49.092, 146.708 47.747, 144.979 45.461 C 137.741 35.888, 124.076 31.711, 112.692 35.589 L 108.027 37.179 103.897 33.644 C 95.759 26.678, 83.011 24.919, 73.329 29.427 M 120.705 103.878 C 118.067 105.186, 113.905 106.482, 111.455 106.758 L 107 107.260 107 118.130 C 107 126.752, 107.288 129, 108.392 129 C 109.779 129, 126.378 103.408, 125.802 102.157 C 125.636 101.796, 123.342 102.570, 120.705 103.878 M 88 105.500 C 86.075 106.241, 83.037 106.882, 81.250 106.924 C 79.463 106.966, 78 107.266, 78 107.590 C 78 109.264, 90.668 129, 91.742 129 C 92.686 129, 93 125.875, 93 116.500 C 93 109.625, 92.662 104.034, 92.250 104.076 C 91.838 104.118, 89.925 104.759, 88 105.500" stroke="none" fill="black" fill-rule="evenodd"/>
</svg>