<svg xmlns="http://www.w3.org/2000/svg" width="200" height="200" viewBox="0 0 200 200" version="1.1">
	<path d="M 85.500 28.967 C 79.859 30.190, 72.955 32.671, 67 35.615 C 45.944 46.025, 34.079 64.420, 34.017 86.750 L 34 93 107.500 93 L 181 93 180.983 86.750 C 180.907 59.544, 163.475 38.514, 133.893 29.944 C 122.930 26.769, 97.964 26.264, 85.500 28.967 M 36.455 102.455 C 31.534 107.375, 33.301 111.087, 43.725 117.729 C 53.339 123.855, 56.618 125, 64.548 125 C 69.557 125, 71.928 124.405, 76.500 122 C 83.708 118.208, 87.329 118.226, 94.648 122.087 C 99.954 124.886, 101.200 125.143, 108 124.833 C 113.794 124.569, 116.690 123.867, 120.732 121.746 C 127.439 118.226, 131.433 118.283, 138.500 122 C 143.254 124.501, 145.309 124.987, 150.852 124.924 C 158.982 124.831, 161.600 123.880, 171.300 117.500 C 181.335 110.900, 183.173 107.082, 178.545 102.455 C 174.980 98.889, 171.995 99.391, 163.403 105 C 153.668 111.355, 150.834 111.669, 142.600 107.307 C 139.235 105.525, 135.576 104.560, 130.924 104.227 C 124.831 103.791, 123.461 104.066, 117.324 106.955 C 108.917 110.913, 105.825 110.983, 98.914 107.369 C 94.285 104.949, 92.341 104.539, 85.500 104.539 C 78.802 104.539, 76.684 104.966, 72.486 107.166 C 63.952 111.640, 61.356 111.370, 51.597 105 C 43.005 99.391, 40.020 98.889, 36.455 102.455 M 34.156 143.250 C 34.482 156.756, 34.647 157.749, 37.305 162.272 C 38.848 164.897, 41.965 168.272, 44.232 169.772 L 48.354 172.500 107.512 172.500 L 166.671 172.500 170.899 169.570 C 173.224 167.959, 176.335 164.584, 177.813 162.070 C 180.330 157.790, 180.522 156.596, 180.844 143.250 L 181.188 129 107.500 129 L 33.812 129 34.156 143.250" stroke="none" fill="black" fill-rule="evenodd"/>
</svg>