<svg xmlns="http://www.w3.org/2000/svg" width="200" height="200" viewBox="0 0 200 200" version="1.1">
	<path d="M 94 29.893 C 89.076 32.886, 84.998 38.101, 85.004 41.398 C 85.008 44.010, 88.496 49.869, 90.506 50.641 C 91.750 51.118, 92 54.042, 92 68.107 L 92 85 81.500 85 L 71 85 71 75.535 C 71 67.110, 71.219 65.953, 72.990 65.006 C 75.309 63.764, 78 58.979, 78 56.097 C 78 52.041, 75.369 48.550, 69.532 44.859 L 63.547 41.075 59.024 43.633 C 51.950 47.632, 49 51.305, 49 56.116 C 49 59.450, 49.643 60.843, 52.500 63.700 C 55.968 67.168, 56 67.280, 56 75.972 L 56 84.743 48.139 85.198 C 39.130 85.720, 35.351 87.474, 30.606 93.339 C 27.558 97.106, 27.494 97.411, 27.168 109.589 L 26.837 122 100 122 L 173.163 122 172.832 109.589 C 172.508 97.472, 172.428 97.088, 169.442 93.339 C 164.895 87.631, 159.010 85, 150.788 85 L 144 85 144 76.100 C 144 67.262, 144.024 67.176, 147.500 63.700 C 154.115 57.085, 151.720 49.431, 141.253 43.734 L 136.341 41.061 130.649 44.620 C 124.950 48.186, 122 52.066, 122 56 C 122 58.967, 124.659 63.747, 127.010 65.006 C 128.781 65.953, 129 67.110, 129 75.535 L 129 85 118.500 85 L 108 85 108 68.606 L 108 52.212 111.010 48.989 C 115.116 44.594, 115.750 41.436, 113.406 37.072 C 111.458 33.445, 102.735 26.937, 100.011 27.079 C 99.180 27.122, 96.475 28.388, 94 29.893 M 27 154.500 L 27 173 100 173 L 173 173 173 154.500 L 173 136 100 136 L 27 136 27 154.500" stroke="none" fill="black" fill-rule="evenodd"/>
</svg>