<svg xmlns="http://www.w3.org/2000/svg" width="200" height="200" viewBox="0 0 200 200" version="1.1">
	<path d="M 86.180 28.848 C 83.254 29.889, 80.449 31.151, 79.947 31.653 C 78.776 32.824, 101.327 55.417, 106.017 57.771 C 110.339 59.941, 113.527 64.640, 114.406 70.137 L 115.085 74.384 126.991 62.509 L 138.897 50.634 137.198 47.704 C 133.942 42.086, 124.880 34.046, 118.140 30.793 C 112.268 27.960, 110.344 27.553, 101.500 27.272 C 93.632 27.023, 90.366 27.359, 86.180 28.848 M 63.973 45.540 C 56.909 55.807, 54.065 70.248, 57.778 77 C 63.350 87.131, 76.841 87.855, 83.102 78.359 C 84.139 76.786, 85.010 74.150, 85.037 72.500 C 85.065 70.850, 85.733 67.700, 86.521 65.500 L 87.955 61.500 77.605 51.134 L 67.256 40.768 63.973 45.540 M 128.750 81.747 L 114 96.524 114 111.262 C 114 119.368, 114.343 126, 114.763 126 C 115.183 126, 121.945 119.570, 129.790 111.710 L 144.054 97.421 143.777 82.196 L 143.500 66.971 128.750 81.747 M 129.250 132.248 L 115 146.525 115.007 155.013 C 115.012 161.641, 115.426 164.126, 116.898 166.359 C 123.037 175.670, 136.508 175.144, 142.215 165.371 C 143.856 162.562, 144.012 160.025, 143.769 140.110 L 143.500 117.972 129.250 132.248" stroke="none" fill="black" fill-rule="evenodd"/>
</svg>