<svg xmlns="http://www.w3.org/2000/svg" width="200" height="200" viewBox="0 0 200 200" version="1.1">
	<path d="M 81.624 57.111 C 71.978 59.376, 61.765 66.752, 57.896 74.247 L 55.962 77.994 41.994 70.997 C 34.312 67.149, 27.796 64, 27.513 64 C 27.231 64, 27 80.200, 27 100 C 27 119.800, 27.231 136, 27.513 136 C 27.796 136, 34.312 132.851, 41.994 129.003 L 55.962 122.006 57.896 125.753 C 61.864 133.440, 71.920 140.591, 82.042 142.924 C 84.494 143.489, 92.575 143.951, 100 143.951 C 107.425 143.951, 115.506 143.489, 117.958 142.924 C 128.080 140.591, 138.136 133.440, 142.104 125.753 L 144.038 122.006 158.006 129.003 C 165.688 132.851, 172.204 136, 172.487 136 C 172.769 136, 173 119.800, 173 100 C 173 80.200, 172.769 64, 172.487 64 C 172.204 64, 165.688 67.149, 158.006 70.997 L 144.038 77.994 142.104 74.247 C 138.136 66.560, 128.080 59.409, 117.958 57.076 C 112.533 55.826, 86.993 55.850, 81.624 57.111" stroke="none" fill="black" fill-rule="evenodd"/>
</svg>