<svg xmlns="http://www.w3.org/2000/svg" width="200" height="200" viewBox="0 0 200 200" version="1.1">
	<path d="M 91.030 28.113 C 89.671 28.655, 87.031 30.264, 85.163 31.689 C 82.286 33.883, 80.672 34.296, 74.605 34.390 C 65.603 34.528, 59.017 37.638, 54.138 44.055 C 51.770 47.168, 49.741 48.721, 47.363 49.238 C 22.136 54.720, 19.687 90.425, 43.985 98.495 C 48.061 99.849, 48.708 100.498, 50.221 104.759 C 51.150 107.374, 53.842 111.790, 56.205 114.573 C 58.567 117.357, 68.339 131.427, 77.919 145.840 C 96.173 173.302, 97.189 174.387, 102.794 172.394 C 104.634 171.740, 109.622 164.631, 121.404 145.871 C 132.206 128.673, 139.195 118.611, 142.652 115.282 C 146.173 111.891, 148.387 108.679, 149.646 105.133 C 151.275 100.547, 151.920 99.829, 155.202 98.946 C 160.866 97.421, 167.076 92.111, 170.207 86.118 C 177.342 72.459, 170.704 55.529, 156.193 50.375 C 151.798 48.814, 151.186 48.202, 149.625 43.807 C 146.007 33.621, 136.624 27.028, 125.718 27.010 C 122.538 27.004, 118.375 27.652, 116.468 28.449 C 113.440 29.714, 112.560 29.714, 109.532 28.449 C 105.623 26.816, 94.774 26.618, 91.030 28.113 M 83.500 120.216 C 81.850 120.798, 80.322 121.428, 80.104 121.616 C 79.691 121.973, 91.988 141, 92.632 141 C 92.834 141, 93 136.572, 93 131.161 C 93 121.587, 92.931 121.290, 90.453 120.161 C 87.506 118.818, 87.464 118.818, 83.500 120.216 M 109.250 120.220 C 107.162 121.227, 107 121.958, 107 130.367 C 107 140.903, 107.085 140.887, 114.421 129 L 119.050 121.500 116.275 120.295 C 112.913 118.835, 112.139 118.827, 109.250 120.220" stroke="none" fill="black" fill-rule="evenodd"/>
</svg>