<svg xmlns="http://www.w3.org/2000/svg" width="200" height="200" viewBox="0 0 200 200" version="1.1">
	<path d="M 87.500 28.348 C 77.724 31.580, 68.365 38.438, 63.925 45.621 C 62.067 48.628, 61.354 49, 57.456 49 C 46.108 49, 33.326 58.167, 29.164 69.291 C 25.914 77.977, 26.170 87.748, 29.850 95.500 C 34.184 104.630, 42.975 111.988, 51.718 113.803 L 55.500 114.589 55.765 143.794 L 56.030 173 100.015 173 L 144 173 144 143.500 L 144 114 146.340 114 C 150.444 114, 160.753 108.087, 164.938 103.334 C 176.259 90.472, 175.633 70.580, 163.526 58.474 C 158.268 53.216, 151.165 49.816, 143.905 49.083 C 138.560 48.543, 137.910 48.195, 135.169 44.402 C 131.152 38.843, 124.563 33.610, 117.430 30.314 C 112.429 28.003, 109.934 27.531, 101.500 27.300 C 95.171 27.126, 90.031 27.511, 87.500 28.348 M 89.885 43.380 C 82.366 46.067, 77.481 50.804, 73.260 59.500 C 71.361 63.413, 69.853 65.359, 68.924 65.096 C 63.950 63.683, 54.995 63.909, 51.573 65.532 C 43.800 69.221, 39.975 79.333, 42.947 88.338 C 45.561 96.259, 54.720 100.936, 64.363 99.275 C 67.449 98.743, 70.205 98.539, 70.487 98.821 C 70.769 99.103, 71 112.533, 71 128.667 L 71 158 100 158 L 129 158 129 127.893 C 129 103.104, 129.237 97.877, 130.343 98.301 C 131.082 98.585, 134.148 99.124, 137.156 99.500 C 148.821 100.958, 158.066 93.270, 158.153 82.040 C 158.245 70.091, 147.678 61.428, 136.248 64.082 C 129.943 65.546, 129.523 65.325, 126.458 58.912 C 123.227 52.153, 117.903 46.768, 111.637 43.922 C 106.728 41.693, 95.395 41.411, 89.885 43.380" stroke="none" fill="black" fill-rule="evenodd"/>
</svg>