<svg xmlns="http://www.w3.org/2000/svg" width="200" height="200" viewBox="0 0 200 200" version="1.1">
	<path d="M 86.153 41.514 C 56.812 49.404, 32.635 56.032, 32.424 56.242 C 31.921 56.746, 35.099 68.260, 36.037 69.333 C 36.618 69.997, 48.938 67.271, 58.103 64.452 C 59.534 64.011, 59.511 64.525, 57.886 69.229 C 56.885 72.128, 56.051 76.158, 56.033 78.185 C 55.981 84.030, 54.510 86.676, 50.597 87.968 C 46.002 89.484, 38.053 96.684, 34 102.999 C 24.122 118.393, 24.551 141.115, 35.016 156.787 C 41.735 166.847, 50.373 172.056, 61.500 172.757 C 90.957 174.611, 109.822 136.236, 94.407 105.817 C 90.712 98.526, 82.706 90.887, 75.740 88.006 L 69.981 85.624 70.607 80.562 C 71.849 70.524, 77.359 61.911, 85 58.061 C 86.925 57.092, 91.517 55.556, 95.203 54.650 C 100.702 53.297, 102.859 53.203, 107.203 54.126 C 114.208 55.613, 120.085 58.435, 123.414 61.910 L 126.124 64.739 120.699 67.801 C 101.790 78.472, 94.370 106.714, 104.686 128.748 C 107.937 135.692, 115.552 143.882, 122.161 147.542 C 126.972 150.208, 128.390 150.499, 136.500 150.491 C 144.284 150.483, 146.176 150.125, 150.500 147.844 C 160.291 142.680, 167.576 133.448, 171.168 121.653 C 173.909 112.654, 173.387 97.404, 170.048 88.919 C 165.759 78.021, 155.409 67.522, 146.301 64.833 C 143.936 64.135, 142 63.066, 142 62.458 C 142 60.466, 135.084 51.560, 131.401 48.807 L 127.798 46.115 133.649 44.482 C 141.231 42.367, 146.009 40.889, 145.965 40.672 C 144.793 34.921, 141.959 27.460, 140.899 27.334 C 140.130 27.243, 115.494 33.624, 86.153 41.514 M 131.944 123.844 C 129.133 126.120, 128.908 131.136, 131.488 133.987 C 134.187 136.969, 139.334 136.662, 141.927 133.365 C 144.649 129.905, 144.544 127.453, 141.545 124.455 C 138.625 121.535, 135.075 121.309, 131.944 123.844 M 58.073 146.635 C 56.933 148.084, 56 150.048, 56 151 C 56 151.952, 56.933 153.916, 58.073 155.365 C 62.266 160.696, 70.333 157.713, 70.333 150.831 C 70.333 144.428, 62.041 141.590, 58.073 146.635" stroke="none" fill="black" fill-rule="evenodd"/>
</svg>