<svg xmlns="http://www.w3.org/2000/svg" width="200" height="200" viewBox="0 0 200 200" version="1.1">
	<path d="M 144 28.527 C 117.230 32.725, 92.715 46.427, 78.114 65.353 L 73.958 70.740 66.474 71.220 C 51.625 72.173, 37.528 82.236, 30.748 96.724 C 24.297 110.510, 26.155 128.198, 35.368 140.714 C 40.523 147.716, 49.735 154.261, 57.878 156.707 C 63.424 158.374, 76.209 159.117, 77.484 157.847 C 77.844 157.488, 77.204 155.360, 76.060 153.118 C 68.816 138.918, 69.744 115.341, 78.109 101.067 C 81.948 94.516, 87.104 88.378, 92.075 84.440 C 94.784 82.295, 97 80.264, 97 79.927 C 97 79.590, 95.425 78.467, 93.500 77.430 C 91.575 76.393, 90 75.044, 90 74.431 C 90 72.932, 101.395 62.137, 107 58.326 C 113.880 53.648, 122.668 49.494, 131.500 46.745 C 145.690 42.329, 149.692 42.254, 145.008 46.493 C 139.396 51.572, 126.563 73.037, 123.981 81.664 C 122.887 85.320, 122.295 85.910, 119.118 86.505 C 112.617 87.725, 104.615 92.358, 98.428 98.486 C 84.654 112.129, 81.455 131.293, 90.040 148.733 C 97.941 164.783, 113.502 173.699, 132.062 172.811 C 139.661 172.448, 141.803 171.907, 148.235 168.728 C 167.961 158.979, 177.484 137.123, 171.127 116.192 C 167.198 103.255, 155.990 91.815, 143.030 87.510 L 138.035 85.851 139.560 82.176 C 143.272 73.228, 153.916 58.182, 165.804 45.080 C 173.686 36.393, 174.836 32.836, 171 29 C 169.304 27.304, 167.746 27.015, 160.750 27.097 C 156.213 27.150, 148.675 27.794, 144 28.527" stroke="none" fill="black" fill-rule="evenodd"/>
</svg>