<svg xmlns="http://www.w3.org/2000/svg" width="200" height="200" viewBox="0 0 200 200" version="1.1">
	<path d="M 47.250 30.545 C 44.362 32.435, 42 34.395, 42 34.900 C 42 35.404, 45.375 41.691, 49.500 48.870 C 53.625 56.048, 57 62.191, 57 62.519 C 57 62.848, 55.625 64.829, 53.944 66.920 C 43.221 80.263, 47.325 100.996, 65.467 125.130 C 79.043 143.192, 103.021 162.390, 120.356 169.079 C 130.963 173.171, 141.348 174.015, 150.528 171.530 C 154.100 170.563, 157.299 169.326, 157.635 168.781 C 157.972 168.237, 152.619 159.401, 145.739 149.146 C 128.211 123.016, 126.274 118.779, 120.977 95 C 119.071 86.446, 116.537 78.091, 114.796 74.625 C 110.979 67.025, 103.989 60.100, 96.478 56.477 C 91.268 53.964, 89.408 53.603, 82 53.668 C 77.325 53.708, 72.677 53.912, 71.671 54.121 C 70.239 54.418, 68.134 51.576, 61.961 41.013 C 57.626 33.595, 53.724 27.432, 53.290 27.317 C 52.855 27.202, 50.138 28.654, 47.250 30.545" stroke="none" fill="black" fill-rule="evenodd"/>
</svg>