<svg xmlns="http://www.w3.org/2000/svg" width="200" height="200" viewBox="0 0 200 200" version="1.1">
	<path d="M 93 45 L 93 63 74.500 63 L 56 63 56 83.955 L 56 104.909 49 116.500 C 45.150 122.875, 42 128.295, 42 128.545 C 42 128.795, 45.150 129, 49 129 L 56 129 56 151 L 56 173 100 173 L 144 173 144 151 L 144 129 151 129 C 154.850 129, 158 128.795, 158 128.545 C 158 128.295, 154.850 122.875, 151 116.500 L 144 104.909 144 65.955 L 144 27 118.500 27 L 93 27 93 45 M 107.667 41.667 C 107.300 42.033, 107 46.983, 107 52.667 L 107 63 118 63 L 129 63 129 52 L 129 41 118.667 41 C 112.983 41, 108.033 41.300, 107.667 41.667 M 71 89 L 71 100 82 100 L 93 100 93 89 L 93 78 82 78 L 71 78 71 89 M 107 89 L 107 100 118 100 L 129 100 129 89 L 129 78 118 78 L 107 78 107 89" stroke="none" fill="black" fill-rule="evenodd"/>
</svg>