<svg xmlns="http://www.w3.org/2000/svg" width="200" height="200" viewBox="0 0 200 200" version="1.1">
	<path d="M 95.402 43.331 C 93.205 45.220, 92.604 46.733, 92.222 51.331 C 91.789 56.552, 91.559 57, 89.302 57 C 87.955 57, 83.403 58.158, 79.186 59.574 C 53.081 68.337, 35.640 91.487, 34.228 119.250 L 33.733 129 100.012 129 L 166.291 129 165.753 119.248 C 164.060 88.511, 142.982 63.630, 113.500 57.567 L 107.500 56.333 107.201 50.700 C 106.953 46.029, 106.461 44.721, 104.316 43.034 C 100.957 40.392, 98.732 40.466, 95.402 43.331 M 27 151.500 L 27 159 100 159 L 173 159 173 151.500 L 173 144 100 144 L 27 144 27 151.500" stroke="none" fill="black" fill-rule="evenodd"/>
</svg>