<svg xmlns="http://www.w3.org/2000/svg" width="200" height="200" viewBox="0 0 200 200" version="1.1">
	<path d="M 36 27.543 C 36 27.841, 48.600 48.032, 64 72.412 L 92 116.738 92 137.335 L 92 157.932 81.250 158.216 L 70.500 158.500 70.206 165.750 L 69.912 173 99.456 173 L 129 173 129 165.500 L 129 158 118 158 L 107 158 107 137.426 L 107 116.853 135.500 72.404 C 151.175 47.958, 164 27.741, 164 27.478 C 164 27.215, 135.200 27, 100 27 C 64.800 27, 36 27.244, 36 27.543 M 63.167 42.776 C 63.350 43.202, 65.251 46.352, 67.392 49.776 L 71.284 56 99.892 55.992 L 128.500 55.985 130.711 52.242 C 131.927 50.184, 133.884 47.038, 135.059 45.250 L 137.196 42 100.015 42 C 79.565 42, 62.983 42.349, 63.167 42.776" stroke="none" fill="black" fill-rule="evenodd"/>
</svg>