<svg xmlns="http://www.w3.org/2000/svg" width="200" height="200" viewBox="0 0 200 200" version="1.1">
	<path d="M 108.085 29.250 C 107.283 31.332, 102.268 43.435, 98.553 52.250 L 96.973 56 104.974 56 L 112.975 56 116.500 49 L 120.025 42 132.013 42 L 144 42 144 34.500 L 144 27 126.475 27 C 109.225 27, 108.937 27.035, 108.085 29.250 M 53.611 76.265 C 42.223 91.594, 38.386 112.334, 43.633 130.191 C 49.427 149.911, 66.204 166.432, 85.552 171.472 C 93.074 173.431, 106.926 173.431, 114.448 171.472 C 145.569 163.365, 164.583 130.480, 156.860 98.115 C 155.237 91.314, 149.665 80.104, 145.495 75.250 L 141.844 71 99.672 71.015 L 57.500 71.030 53.611 76.265" stroke="none" fill="black" fill-rule="evenodd"/>
</svg>