<svg xmlns="http://www.w3.org/2000/svg" width="200" height="200" viewBox="0 0 200 200" version="1.1">
	<path d="M 101.846 48.750 L 94.500 70.500 76.334 70.772 L 58.168 71.044 55.150 74.482 C 48.278 82.309, 43.748 92.889, 41.874 105.487 C 37.583 134.339, 57.352 164.116, 85.644 171.415 C 93.509 173.444, 106.491 173.444, 114.356 171.415 C 142.648 164.116, 162.417 134.339, 158.126 105.487 C 156.250 92.875, 151.722 82.309, 144.831 74.460 L 141.793 71 126.396 71 C 114.558 71, 111 70.704, 111 69.721 C 111 69.017, 112.951 62.605, 115.337 55.471 L 119.673 42.500 131.837 42.219 L 144 41.938 144 34.469 L 144 27 126.596 27 L 109.193 27 101.846 48.750 M 64.645 86.498 C 61.840 89.303, 58.063 98.731, 56.884 105.874 C 53.662 125.383, 64.009 145.525, 81.695 154.173 C 88.204 157.355, 89.001 157.500, 100 157.500 C 110.895 157.500, 111.842 157.333, 118 154.318 C 128.903 148.981, 136.958 139.898, 141.245 128.106 C 144.249 119.842, 144.137 105.585, 141.004 97.500 C 139.725 94.200, 137.739 90.043, 136.589 88.262 L 134.500 85.025 100.321 85.012 C 71.285 85.002, 65.918 85.225, 64.645 86.498" stroke="none" fill="black" fill-rule="evenodd"/>
</svg>