<svg xmlns="http://www.w3.org/2000/svg" width="200" height="200" viewBox="0 0 200 200" version="1.1">
	<path d="M 56 38 L 56 49 63.500 49 L 71 49 71 38 L 71 27 63.500 27 L 56 27 56 38 M 93 38.044 L 93 49.088 100.250 48.794 L 107.500 48.500 107.784 37.750 L 108.068 27 100.534 27 L 93 27 93 38.044 M 27.223 113.984 L 27.500 164.968 31.266 168.734 L 35.032 172.500 80.825 172.779 L 126.619 173.057 130.060 170.759 C 134.712 167.650, 136.997 162.755, 136.998 155.889 L 137 150.279 142.077 149.677 C 153.558 148.318, 164.733 140.071, 169.830 129.196 C 172.136 124.276, 172.500 122.206, 172.500 114 C 172.500 105.688, 172.160 103.808, 169.782 98.967 C 164.462 88.133, 153.427 79.922, 142.187 78.430 L 137 77.742 137 70.371 L 137 63 81.973 63 L 26.947 63 27.223 113.984 M 137 114.132 L 137 135.263 141.166 134.705 C 146.742 133.957, 152.811 129.502, 155.750 124 C 159.172 117.594, 158.673 108.022, 154.611 102.161 C 151.632 97.861, 143.508 93, 139.304 93 L 137 93 137 114.132" stroke="none" fill="black" fill-rule="evenodd"/>
</svg>