<svg xmlns="http://www.w3.org/2000/svg" width="200" height="200" viewBox="0 0 200 200" version="1.1">
	<path d="M 79.914 29.727 C 77.178 36.921, 75.722 47.216, 75.703 59.500 C 75.679 74.688, 76.952 80.916, 83.505 97.674 C 90.267 114.968, 92.307 126.343, 91.726 143.500 C 91.329 155.211, 90.829 158.693, 88.670 164.798 C 86.470 171.016, 86.310 172.182, 87.585 172.671 C 88.408 172.987, 95.701 173.018, 103.791 172.739 C 121.311 172.137, 130.119 170.085, 143.834 163.414 C 158.566 156.248, 170.878 142.690, 172.667 131.664 L 173.216 128.284 162.358 126.536 C 156.386 125.574, 144.838 124.548, 136.696 124.256 C 124.697 123.825, 121.992 123.464, 122.419 122.350 C 122.709 121.594, 123.253 117.991, 123.626 114.343 L 124.306 107.712 139.903 108.357 C 148.481 108.712, 158.988 109.597, 163.250 110.324 C 167.512 111.051, 171 111.327, 171 110.937 C 171 108.745, 161.985 97.280, 157.149 93.322 C 150.626 87.985, 138.301 81.774, 129.059 79.168 L 122.653 77.361 120.001 68.931 C 113.882 49.473, 103.444 35.839, 89.809 29.491 C 82.980 26.312, 81.196 26.355, 79.914 29.727 M 56.434 32.393 C 44.741 40.268, 34.573 55.963, 29.805 73.500 C 27.962 80.277, 27.621 84.252, 27.574 99.500 C 27.525 115.273, 27.803 118.552, 29.821 126 C 34.516 143.326, 44.099 158.653, 55 166.269 C 60.665 170.226, 68.908 173.324, 70.315 172.023 C 72.304 170.185, 75.126 155.664, 75.664 144.500 C 76.396 129.316, 74.540 118.765, 68.402 103.217 C 61.241 85.081, 59.629 77.017, 59.663 59.500 C 59.682 49.255, 60.216 42.181, 61.346 37.185 C 62.256 33.161, 63 29.674, 63 29.435 C 63 28.387, 61.136 29.227, 56.434 32.393" stroke="none" fill="black" fill-rule="evenodd"/>
</svg>