<svg xmlns="http://www.w3.org/2000/svg" width="200" height="200" viewBox="0 0 200 200" version="1.1">
	<path d="M 82.112 28.988 C 57.249 35.691, 38.372 53.352, 30.262 77.500 C 27.838 84.719, 27.575 86.916, 27.575 100 C 27.575 113.084, 27.838 115.281, 30.262 122.500 C 34.136 134.035, 39.391 142.391, 48.500 151.500 C 57.609 160.609, 65.965 165.864, 77.500 169.738 C 84.719 172.162, 86.916 172.425, 100 172.425 C 113.084 172.425, 115.281 172.162, 122.500 169.738 C 134.035 165.864, 142.391 160.609, 151.500 151.500 C 160.609 142.391, 165.864 134.035, 169.738 122.500 C 172.162 115.281, 172.425 113.084, 172.425 100 C 172.425 86.916, 172.162 84.719, 169.738 77.500 C 165.864 65.965, 160.609 57.609, 151.500 48.500 C 136.909 33.909, 122.961 27.950, 102 27.353 C 91.849 27.063, 88.112 27.371, 82.112 28.988 M 95 51 C 90.672 55.328, 93.868 63, 100 63 C 103.849 63, 107 59.849, 107 56 C 107 52.151, 103.849 49, 100 49 C 98.333 49, 96.111 49.889, 95 51 M 58.174 73.314 C 52.132 79.746, 60.483 88.553, 67.777 83.443 C 69.342 82.347, 70 80.868, 70 78.443 C 70 71.688, 62.683 68.515, 58.174 73.314 M 131.944 72.844 C 127.071 76.790, 130.204 85, 136.582 85 C 140.093 85, 144 81.312, 144 78 C 144 77.048, 143.067 75.084, 141.927 73.635 C 139.445 70.480, 135.272 70.149, 131.944 72.844 M 58 117 C 55.429 119.571, 55.456 123.039, 58.073 126.365 C 62.201 131.613, 70 128.534, 70 121.655 C 70 119.684, 69.249 117.630, 68.171 116.655 C 65.655 114.378, 60.445 114.555, 58 117 M 131.488 117.013 C 128.908 119.864, 129.133 124.880, 131.944 127.156 C 135.075 129.691, 138.625 129.465, 141.545 126.545 C 144.544 123.547, 144.649 121.095, 141.927 117.635 C 139.334 114.338, 134.187 114.031, 131.488 117.013 M 95 139 C 93.889 140.111, 93 142.333, 93 144 C 93 145.667, 93.889 147.889, 95 149 C 99.328 153.328, 107 150.132, 107 144 C 107 140.151, 103.849 137, 100 137 C 98.333 137, 96.111 137.889, 95 139" stroke="none" fill="black" fill-rule="evenodd"/>
</svg>