<svg xmlns="http://www.w3.org/2000/svg" width="200" height="200" viewBox="0 0 200 200" version="1.1">
	<path d="M 92 30.500 L 92 34 71.614 34 C 51.240 34, 51.225 34.002, 45.880 36.794 C 38.379 40.713, 34.690 46.801, 34.162 56.131 L 33.774 63 30.387 63 L 27 63 27 70.500 L 27 78 100 78 L 173 78 173 70.500 L 173 63 169.500 63 L 166 63 165.994 58.250 C 165.991 55.638, 165.491 51.700, 164.882 49.500 C 163.412 44.193, 155.807 36.588, 150.500 35.118 C 148.201 34.482, 138.100 34.009, 126.750 34.006 L 107 34 107 30.500 L 107 27 99.500 27 L 92 27 92 30.500 M 51 51 C 49.533 52.467, 49 54.333, 49 58 L 49 63 100 63 L 151 63 151 58.174 C 151 54.423, 150.485 52.865, 148.686 51.174 C 146.377 49.006, 146.242 49, 99.686 49 C 54.333 49, 52.943 49.057, 51 51 M 34 100 L 34 107 30.500 107 L 27 107 27 114.500 L 27 122 30.500 122 L 34 122 34 138.134 C 34 148.002, 34.478 155.866, 35.230 158.384 C 36.792 163.614, 43.598 170.509, 48.655 171.986 C 51.336 172.769, 67.517 173.016, 102.087 172.804 L 151.673 172.500 155.900 169.570 C 158.224 167.959, 161.335 164.584, 162.813 162.070 C 165.413 157.648, 165.511 156.924, 165.831 139.750 L 166.162 122 169.581 122 L 173 122 173 114.500 L 173 107 169.500 107 L 166 107 166 100 L 166 93 100 93 L 34 93 34 100 M 49 130.500 C 49 152.667, 49.113 154.113, 51 156 C 52.943 157.943, 54.333 158, 100 158 C 145.667 158, 147.057 157.943, 149 156 C 150.887 154.113, 151 152.667, 151 130.500 L 151 107 100 107 L 49 107 49 130.500" stroke="none" fill="black" fill-rule="evenodd"/>
</svg>