<svg xmlns="http://www.w3.org/2000/svg" width="200" height="200" viewBox="0 0 200 200" version="1.1">
	<path d="M 87.945 28.405 C 73.014 34.096, 62.185 46.588, 60.379 60.204 C 59.789 64.647, 59.503 65.097, 57.611 64.552 C 56.450 64.217, 51.563 63.665, 46.750 63.324 L 38 62.704 38 96.747 C 38 127.880, 38.170 131.339, 39.985 137.217 C 45.038 153.576, 59.189 167.209, 75.535 171.467 C 83.782 173.615, 109.074 173.566, 117.936 171.384 C 132.156 167.884, 146.991 157.747, 154.542 146.371 C 161.142 136.428, 162 131.869, 162 106.758 L 162 84.694 151.072 85.320 L 140.143 85.945 139.822 71.222 C 139.513 57.114, 139.370 56.229, 136.380 50 C 132.407 41.722, 125.278 34.593, 117 30.620 C 111.308 27.888, 109.318 27.472, 101 27.275 C 94.905 27.131, 90.226 27.536, 87.945 28.405 M 89.500 43.903 C 84.523 46.216, 78.592 52.313, 76.549 57.218 C 75.697 59.263, 75 63.491, 75 66.615 C 75 72.229, 75.069 72.363, 80.994 78.233 C 85.128 82.329, 88.239 86.705, 91.020 92.336 C 95.913 102.243, 96.981 109.740, 96.992 134.250 L 97 151 100.322 151 C 109.242 151, 118.772 144.833, 122.619 136.571 C 124.962 131.539, 124.980 131.224, 124.968 96 C 124.957 63.515, 124.798 60.160, 123.097 56.500 C 120.784 51.523, 114.687 45.592, 109.782 43.549 C 104.643 41.408, 94.487 41.585, 89.500 43.903 M 105.488 51.013 C 103.027 53.732, 103.166 58.610, 105.778 61.222 C 108.390 63.834, 113.268 63.973, 115.987 61.512 C 118.608 59.140, 118.713 52.955, 116.171 50.655 C 113.596 48.325, 107.744 48.521, 105.488 51.013 M 84 58 C 81.022 60.978, 81.333 66.330, 84.635 68.927 C 88.022 71.592, 90.281 71.546, 93.393 68.750 C 98.676 64.003, 95.919 56, 89 56 C 87.333 56, 85.111 56.889, 84 58 M 108.428 71.037 C 103.637 72.810, 102.064 79.203, 105.488 82.987 C 107.860 85.608, 114.045 85.713, 116.345 83.171 C 118.545 80.741, 118.490 74.734, 116.250 72.796 C 113.951 70.807, 110.903 70.122, 108.428 71.037 M 108.465 92.961 C 103.613 94.905, 102.056 101.195, 105.488 104.987 C 107.860 107.608, 114.045 107.713, 116.345 105.171 C 118.543 102.743, 118.488 96.739, 116.250 94.773 C 113.859 92.674, 110.901 91.985, 108.465 92.961 M 108.465 114.961 C 103.613 116.905, 102.056 123.195, 105.488 126.987 C 107.860 129.608, 114.045 129.713, 116.345 127.171 C 118.543 124.743, 118.488 118.739, 116.250 116.773 C 113.859 114.674, 110.901 113.985, 108.465 114.961" stroke="none" fill="black" fill-rule="evenodd"/>
</svg>