<svg xmlns="http://www.w3.org/2000/svg" width="200" height="200" viewBox="0 0 200 200" version="1.1">
	<path d="M 114.500 28.466 C 105.335 30.563, 91.910 35.736, 89.318 38.171 C 86.709 40.622, 86.315 44.580, 88.387 47.527 C 89.149 48.612, 92.324 51.300, 95.441 53.500 L 101.109 57.500 100.475 67.501 C 99.868 77.086, 99.938 77.593, 102.171 79.687 C 103.452 80.888, 109.225 83.889, 115 86.355 L 125.500 90.839 126 100.504 C 126.547 111.073, 127.633 113, 133.041 113 C 138.648 113, 154.440 98.516, 162.808 85.697 C 169.324 75.716, 172.126 68.287, 172.751 59.343 C 173.693 45.859, 168.755 37.459, 156.253 31.281 L 148.640 27.518 134.570 27.306 C 125.486 27.169, 118.374 27.580, 114.500 28.466 M 61.500 50.039 C 46.793 53.054, 36.813 60.765, 30.694 73.841 C 26.728 82.316, 25.767 96.541, 28.483 106.575 C 31.879 119.120, 40.768 129.179, 52.570 133.831 C 62.562 137.769, 79.581 138.900, 85.023 135.988 C 87.736 134.536, 98.305 116.017, 98.215 112.872 C 98.163 111.026, 95.602 106.737, 90.643 100.189 L 83.149 90.294 88.072 82.897 C 90.780 78.829, 92.996 74.722, 92.997 73.770 C 93.002 70.730, 83.830 50.979, 81.946 49.971 C 79.806 48.826, 67.214 48.868, 61.500 50.039 M 88.695 152.111 C 87.702 152.689, 86.475 154.250, 85.969 155.581 L 85.050 158 63.590 158 C 51.162 158, 40.980 158.437, 39.397 159.039 C 33.905 161.127, 32.519 165.848, 36.073 170.365 L 38.145 173 100 173 L 161.855 173 163.927 170.365 C 167.481 165.848, 166.095 161.127, 160.603 159.039 C 159.100 158.468, 151.374 158, 143.435 158 C 131.597 158, 129 157.743, 129 156.573 C 129 155.787, 127.814 154.212, 126.365 153.073 C 123.936 151.161, 122.436 151.002, 107.115 151.030 C 97.379 151.048, 89.753 151.496, 88.695 152.111" stroke="none" fill="black" fill-rule="evenodd"/>
</svg>