<svg xmlns="http://www.w3.org/2000/svg" width="200" height="200" viewBox="0 0 200 200" version="1.1">
	<path d="M 86.164 57.053 C 74.167 59.201, 55.172 67.473, 51.175 72.289 C 50.245 73.410, 53.348 78.488, 66.757 97.785 C 75.966 111.038, 84.085 122.127, 84.801 122.429 C 85.516 122.730, 89.229 122.440, 93.051 121.785 C 98.483 120.853, 101.570 120.862, 107.192 121.826 C 113.740 122.949, 114.542 122.900, 116.142 121.280 C 117.108 120.301, 125.114 109.177, 133.932 96.559 C 148.883 75.166, 149.857 73.499, 148.363 71.849 C 145.740 68.951, 129.976 61.281, 121.961 59.005 C 113.363 56.562, 94.613 55.540, 86.164 57.053 M 37.142 91.080 C 30.207 101.673, 26.989 112.289, 27.022 124.460 C 27.066 140.413, 34.184 147.246, 45.782 142.469 C 52.068 139.879, 70.048 128.566, 69.625 127.466 C 69.202 126.364, 41.019 86, 40.672 86 C 40.560 86, 38.971 88.286, 37.142 91.080 M 152.093 95.932 C 148.192 101.469, 141.843 110.481, 137.985 115.958 C 134.126 121.435, 130.746 126.498, 130.473 127.210 C 129.964 128.535, 148.271 140.377, 154.378 142.674 C 165.970 147.033, 172.935 140.212, 172.978 124.460 C 173.012 112.085, 168.723 98.734, 161.645 89.182 L 159.186 85.864 152.093 95.932" stroke="none" fill="black" fill-rule="evenodd"/>
</svg>