<svg xmlns="http://www.w3.org/2000/svg" width="200" height="200" viewBox="0 0 200 200" version="1.1">
	<path d="M 45.462 29.366 C 39.117 32.320, 32.727 39.495, 29.888 46.853 C 26.871 54.671, 26.217 67.759, 28.453 75.598 C 31.369 85.824, 39.305 95.408, 47.250 98.300 C 48.872 98.891, 49 101.531, 49 134.314 C 49 167.316, 49.123 169.801, 50.829 171.345 C 53.452 173.719, 59.258 173.477, 61.595 170.896 C 63.380 168.924, 63.518 166.577, 63.786 133.496 L 64.072 98.199 66.473 97.596 C 70.295 96.637, 78.374 88.018, 81.351 81.723 C 86.286 71.290, 86.422 55.970, 81.671 45.594 C 74.476 29.876, 59.133 22.999, 45.462 29.366 M 102 29 C 100.082 30.918, 100 32.333, 100 63.326 L 100 95.651 102.314 97.826 C 104.429 99.813, 105.680 100, 116.814 100 L 129 100 129 133.865 C 129 166.611, 129.068 167.817, 131.073 170.365 C 133.670 173.667, 139.022 173.978, 142 171 C 143.923 169.077, 144 167.667, 144 134.500 L 144 100 156.500 100 C 174.528 100, 173 103.379, 173 63.500 C 173 32.333, 172.918 30.918, 171 29 C 168.306 26.306, 162.891 26.358, 160.405 29.103 C 158.648 31.043, 158.477 33.294, 158.204 58.103 L 157.908 85 150.954 85 L 144 85 144 58.189 C 144 32.589, 143.908 31.278, 141.961 29.189 C 139.005 26.016, 133.750 26.231, 131.073 29.635 C 129.095 32.149, 129 33.476, 129 58.635 L 129 85 122 85 L 115 85 115 58.635 C 115 33.476, 114.905 32.149, 112.927 29.635 C 110.330 26.333, 104.978 26.022, 102 29" stroke="none" fill="black" fill-rule="evenodd"/>
</svg>