<svg xmlns="http://www.w3.org/2000/svg" width="200" height="200" viewBox="0 0 200 200" version="1.1">
	<path d="M 73 29.079 C 60.213 34.860, 53.410 50.036, 56.964 64.851 C 58.499 71.249, 63.108 78.285, 67.568 81.042 L 71 83.163 71 99.889 L 71 116.615 66.628 119.697 C 63.615 121.821, 61.361 124.601, 59.378 128.639 C 56.851 133.785, 56.501 135.599, 56.509 143.500 C 56.517 151.303, 56.871 153.165, 59.170 157.500 C 66.540 171.398, 81.758 176.911, 94.804 170.411 L 100 167.821 105.196 170.411 C 118.242 176.911, 133.460 171.398, 140.830 157.500 C 143.129 153.165, 143.483 151.303, 143.491 143.500 C 143.499 135.599, 143.149 133.785, 140.622 128.639 C 138.639 124.601, 136.385 121.821, 133.372 119.697 L 129 116.615 129 99.889 L 129 83.163 132.432 81.042 C 139.950 76.396, 144.672 64.963, 143.761 53.614 C 142.155 33.609, 122.637 21.369, 105.250 29.464 L 100 31.908 94.750 29.464 C 88.015 26.328, 79.420 26.176, 73 29.079 M 76.615 44.088 C 71.012 48.495, 69.278 57.570, 72.672 64.722 C 74.357 68.273, 78.829 71, 82.968 71 C 84.964 71, 85 71.514, 85 100 C 85 128.486, 84.964 129, 82.968 129 C 75.870 129, 71 134.880, 71 143.451 C 71 152.019, 76.103 158, 83.412 158 C 88.883 158, 91.141 156.249, 95.882 148.333 L 99.838 141.727 104.375 148.805 C 109.464 156.744, 111.161 158, 116.799 158 C 123.887 158, 129 151.903, 129 143.451 C 129 134.880, 124.130 129, 117.032 129 C 115.036 129, 115 128.486, 115 100 C 115 71.514, 115.036 71, 117.032 71 C 124.130 71, 129 65.120, 129 56.549 C 129 47.981, 123.897 42, 116.588 42 C 111.233 42, 108.914 43.718, 104.404 51.024 C 102.376 54.311, 100.362 57, 99.930 57 C 99.498 57, 97.507 54.305, 95.506 51.010 C 93.505 47.716, 90.897 44.341, 89.711 43.510 C 86.538 41.288, 79.797 41.585, 76.615 44.088" stroke="none" fill="black" fill-rule="evenodd"/>
</svg>