<svg xmlns="http://www.w3.org/2000/svg" width="200" height="200" viewBox="0 0 200 200" version="1.1">
	<path d="M 76.411 28.423 C 68.362 31.928, 62.039 43.350, 63.467 51.806 C 64.467 57.721, 68.125 63.237, 73.213 66.500 L 77.891 69.500 77.946 100.183 C 77.999 130.039, 77.946 130.882, 75.995 131.502 C 72.748 132.532, 68.054 136.975, 66.040 140.922 C 63.094 146.696, 62.629 151.213, 64.366 157.186 C 68.219 170.440, 83.019 176.869, 95.331 170.636 L 100 168.272 104.669 170.636 C 123.703 180.272, 143.552 160.069, 133.909 140.876 C 131.951 136.979, 127.254 132.533, 124.005 131.502 C 122.055 130.883, 122 130.018, 122.008 100.183 L 122.015 69.500 126.072 67.183 C 133.792 62.774, 138.200 52.283, 135.945 43.688 C 132.304 29.813, 117.330 22.955, 104.669 29.364 L 100 31.728 95.331 29.364 C 89.975 26.653, 81.451 26.229, 76.411 28.423" stroke="none" fill="black" fill-rule="evenodd"/>
</svg>