<svg xmlns="http://www.w3.org/2000/svg" width="200" height="200" viewBox="0 0 200 200" version="1.1">
	<path d="M 87.500 27.587 C 78.865 29.652, 75.730 30.651, 70.313 33.063 C 47.791 43.090, 31.169 64.698, 27.477 88.750 L 26.824 93 52.831 93 L 78.837 93 80.848 89.750 C 85.183 82.746, 92.898 78, 99.948 78 C 105.508 78, 111.901 81.080, 115.997 85.734 C 118.199 88.235, 120 90.893, 120 91.641 C 120 92.752, 124.845 93, 146.588 93 L 173.176 93 172.475 88.750 C 167.967 61.430, 148.808 39.131, 121.993 29.995 C 116.928 28.270, 112.642 27.709, 102.500 27.446 C 95.350 27.260, 88.600 27.323, 87.500 27.587 M 94.557 44.223 C 92.327 47.405, 92.635 51.309, 95.314 53.826 C 98.218 56.553, 100.987 56.585, 104.365 53.927 C 107.397 51.542, 107.832 47.632, 105.443 44.223 C 104.289 42.574, 102.883 42, 100 42 C 97.117 42, 95.711 42.574, 94.557 44.223 M 58.455 58.455 C 57.105 59.805, 56 61.575, 56 62.389 C 56 70.734, 66.208 73.221, 69.791 65.750 C 70.870 63.498, 70.836 62.583, 69.578 60.150 C 67.069 55.299, 62.332 54.577, 58.455 58.455 M 133.736 56.692 C 132.766 56.945, 131.286 58.481, 130.446 60.105 C 129.161 62.589, 129.125 63.489, 130.218 65.770 C 130.933 67.261, 132.739 69.067, 134.230 69.782 C 136.506 70.872, 137.410 70.840, 139.850 69.578 C 144.701 67.069, 145.423 62.332, 141.545 58.455 C 139.180 56.089, 137.501 55.710, 133.736 56.692 M 27.477 111.250 C 31.656 138.476, 51.192 161.008, 78.571 170.179 C 84.550 172.182, 87.488 172.500, 100 172.500 C 112.512 172.500, 115.450 172.182, 121.429 170.179 C 139.430 164.149, 153.938 152.595, 163.286 136.845 C 167.099 130.419, 171.194 119.014, 172.475 111.250 L 173.176 107 147.336 107 L 121.496 107 117.998 111.672 C 113.591 117.558, 110.727 119.612, 104.750 121.174 C 100.968 122.162, 99.032 122.162, 95.250 121.174 C 89.273 119.612, 86.409 117.558, 82.002 111.672 L 78.504 107 52.664 107 L 26.824 107 27.477 111.250" stroke="none" fill="black" fill-rule="evenodd"/>
</svg>