<svg xmlns="http://www.w3.org/2000/svg" width="200" height="200" viewBox="0 0 200 200" version="1.1">
	<path d="M 86.220 29.912 C 75.503 35.085, 65.504 46.031, 58.277 60.500 C 54.874 67.312, 51.223 78.042, 50.791 82.500 L 50.500 85.500 99.440 85.760 C 126.358 85.902, 148.742 85.658, 149.184 85.216 C 150.318 84.082, 146.511 70.976, 142.570 62.445 C 135.792 47.774, 125.493 35.849, 114.917 30.424 C 110.557 28.188, 107.842 27.571, 101 27.263 C 93.172 26.911, 92.003 27.120, 86.220 29.912 M 41.473 106.593 C 43.517 125.684, 52.576 143.277, 65.500 153.258 L 70.992 157.500 70.996 163.595 C 71.002 173.281, 70.129 173, 100.174 173 C 130.093 173, 129.355 173.248, 129.136 163.276 L 129.009 157.500 134.500 153.258 C 147.434 143.268, 156.389 125.739, 158.515 106.250 L 159.196 100 99.982 100 L 40.767 100 41.473 106.593" stroke="none" fill="black" fill-rule="evenodd"/>
</svg>