<svg xmlns="http://www.w3.org/2000/svg" width="200" height="200" viewBox="0 0 200 200" version="1.1">
	<path d="M 90.346 29.054 C 86.550 31.486, 84.246 36.036, 82.878 43.800 C 81.872 49.515, 81.808 49.599, 77.156 51.251 C 74.568 52.170, 70.543 54.555, 68.212 56.551 C 63.911 60.232, 58 67.977, 58 69.930 C 58 70.620, 61.629 71, 68.221 71 L 78.442 71 84.221 76.719 L 90 82.437 95.779 76.719 L 101.558 71 111.779 71 C 117.401 71, 122 70.638, 122 70.196 C 122 68.257, 115.942 60.106, 111.982 56.717 C 109.600 54.678, 105.367 52.146, 102.576 51.091 C 97.827 49.297, 97.517 48.969, 97.765 46.005 C 97.941 43.901, 99.199 41.735, 101.515 39.551 C 105.515 35.778, 105.859 33.362, 102.927 29.635 C 100.342 26.348, 94.958 26.100, 90.346 29.054 M 51.649 85.758 C 50.608 87.443, 48.032 102.166, 46.938 112.682 C 46.298 118.832, 45.961 128.732, 46.188 134.682 C 46.687 147.715, 48.796 152.680, 57.215 160.642 C 66.479 169.404, 76.046 173, 90.092 173 C 104.608 173, 115.429 168.595, 124.355 159.051 C 131.184 151.751, 133.287 146.445, 133.810 135.196 C 134.316 124.330, 132.636 104.900, 130.204 93.500 L 128.498 85.500 118.056 85.213 L 107.614 84.926 98.807 93.692 L 90 102.458 81.230 93.729 L 72.460 85 62.289 85 C 56.695 85, 51.907 85.341, 51.649 85.758" stroke="none" fill="black" fill-rule="evenodd"/>
</svg>