<svg xmlns="http://www.w3.org/2000/svg" width="200" height="200" viewBox="0 0 200 200" version="1.1">
	<path d="M 65 31.250 C 58.514 34.715, 54.733 40.540, 54.202 47.889 C 53.479 57.886, 57.184 64.965, 65.376 69.239 C 73.315 73.382, 84.673 71.407, 90.633 64.847 C 97.043 57.794, 98.254 47.523, 93.611 39.600 C 89.636 32.817, 84.278 29.632, 76.111 29.198 C 70.616 28.906, 68.740 29.252, 65 31.250 M 117.145 30.070 C 103.159 35.672, 99.149 53.602, 109.367 64.847 C 115.327 71.407, 126.685 73.382, 134.624 69.239 C 142.816 64.965, 146.521 57.886, 145.798 47.889 C 144.992 36.742, 136.406 28.935, 125.093 29.063 C 122.017 29.098, 118.440 29.551, 117.145 30.070 M 44.821 79.449 C 34.310 82.158, 28.474 90.399, 29.183 101.529 C 29.694 109.552, 33.320 115.259, 40.135 118.767 C 54.683 126.253, 71.317 116.242, 71.317 100 C 71.317 85.711, 58.647 75.884, 44.821 79.449 M 95.799 79.003 C 81.939 81.498, 74.294 98.294, 81.455 110.514 C 85.365 117.186, 90.760 120.370, 98.889 120.802 C 107.094 121.239, 113.003 118.472, 117.500 112.087 C 120.208 108.243, 120.500 107.074, 120.500 100.091 C 120.500 93.340, 120.152 91.829, 117.772 88.232 C 113.103 81.176, 104.289 77.474, 95.799 79.003 M 146 78.976 C 135.590 80.959, 128.599 89.408, 128.606 100 C 128.618 120.842, 155.475 129.206, 167.491 112.109 C 170.215 108.233, 170.500 107.088, 170.500 100 C 170.500 92.912, 170.215 91.767, 167.491 87.891 C 162.817 81.241, 153.782 77.493, 146 78.976 M 27 129.017 C 27 129.576, 29.306 139.251, 32.124 150.517 L 37.249 171 100 171 L 162.751 171 167.876 150.517 C 170.694 139.251, 173 129.576, 173 129.017 C 173 128.337, 148.808 128, 100 128 C 51.192 128, 27 128.337, 27 129.017" stroke="none" fill="black" fill-rule="evenodd"/>
</svg>