<svg xmlns="http://www.w3.org/2000/svg" width="200" height="200" viewBox="0 0 200 200" version="1.1">
	<path d="M 95 29 C 93.311 30.689, 93 32.333, 93 39.581 C 93 48.064, 92.925 48.322, 86.380 62.331 C 74.224 88.346, 66.045 110.697, 64.003 123.482 C 60.034 148.325, 77.866 173.016, 99.761 172.994 C 107.283 172.987, 111.803 171.654, 117.638 167.723 C 131.180 158.600, 138.888 139.938, 136.064 123.114 C 133.893 110.186, 126.628 90.461, 113.604 62.140 C 107.048 47.883, 107 47.716, 107 38.947 C 107 30.952, 106.789 29.966, 104.777 28.557 C 101.715 26.412, 97.393 26.607, 95 29 M 64.381 62.435 C 49.855 74.057, 38.892 87.346, 32.867 100.633 C 28.365 110.561, 26.762 119.004, 27.177 130.591 C 27.509 139.841, 27.847 141.306, 31.237 148.166 C 37.305 160.442, 49.965 170.347, 62.456 172.590 L 66.413 173.300 62.641 168.900 C 57.423 162.812, 52.272 151.923, 50.391 143 C 46.708 125.540, 51.599 104.399, 67.605 68.586 C 70.546 62.004, 72.822 56.489, 72.663 56.330 C 72.504 56.171, 68.777 58.918, 64.381 62.435 M 127.268 57.058 C 145.359 98.500, 149.741 111.595, 150.675 127 C 151.577 141.855, 146.283 158.520, 137.367 168.900 L 133.587 173.300 137.544 172.613 C 150.069 170.436, 163.412 159.703, 169.382 147 C 171.985 141.462, 172.496 139.048, 172.838 130.683 C 173.316 118.960, 171.471 109.979, 166.386 99.282 C 161.852 89.742, 152.675 77.710, 143.446 69.207 C 134.959 61.386, 126.328 54.905, 127.268 57.058" stroke="none" fill="black" fill-rule="evenodd"/>
</svg>