<svg xmlns="http://www.w3.org/2000/svg" width="200" height="200" viewBox="0 0 200 200" version="1.1">
	<path d="M 87.830 46.856 C 77.999 58.138, 77.244 58.771, 72.200 59.938 C 62.363 62.216, 51.507 68.532, 43.118 76.857 C 36.438 83.486, 27 97.068, 27 100.052 C 27 100.535, 29.104 104.433, 31.675 108.715 C 40.868 124.025, 57.132 136.599, 72.200 140.047 C 77.282 141.210, 77.911 141.745, 87.500 153.058 C 93 159.548, 97.935 164.889, 98.466 164.929 C 98.997 164.968, 101.556 162.907, 104.153 160.349 L 108.875 155.698 102.325 148.188 L 95.775 140.678 101.872 138.471 C 115.566 133.512, 126.492 124.481, 137.830 108.750 L 144.136 100 137.830 91.250 C 126.520 75.557, 115.562 66.486, 101.967 61.564 L 95.965 59.390 102.424 51.850 L 108.883 44.310 104.157 39.655 C 101.558 37.095, 99.145 35, 98.796 35 C 98.447 35, 93.512 40.335, 87.830 46.856 M 154.779 60.161 L 137.057 71.270 141.279 75.973 C 143.600 78.560, 148.813 85.011, 152.862 90.311 L 160.225 99.945 152.862 109.629 C 148.813 114.955, 143.607 121.424, 141.294 124.005 L 137.088 128.696 154.794 139.820 L 172.500 150.944 172.767 125.472 C 172.914 111.462, 172.914 88.537, 172.767 74.526 L 172.500 49.053 154.779 60.161 M 49.655 94.829 C 47.418 97.300, 47.517 103.253, 49.829 105.345 C 54.051 109.166, 61 105.841, 61 100 C 61 94.077, 53.450 90.636, 49.655 94.829" stroke="none" fill="black" fill-rule="evenodd"/>
</svg>