<svg xmlns="http://www.w3.org/2000/svg" width="200" height="200" viewBox="0 0 200 200" version="1.1">
	<path d="M 54.500 35.490 C 49.517 37.237, 42.758 44.468, 41.280 49.633 C 40.671 51.760, 38.925 68.912, 37.400 87.750 L 34.626 122 30.813 122 L 27 122 27 135.684 C 27 147.521, 27.282 149.951, 29.090 153.685 C 31.588 158.845, 36.696 163.293, 41.922 164.859 C 47.267 166.460, 152.733 166.460, 158.078 164.859 C 163.304 163.293, 168.412 158.845, 170.910 153.685 C 172.718 149.951, 173 147.521, 173 135.684 L 173 122 169.190 122 L 165.380 122 162.615 88.250 C 161.095 69.688, 159.361 52.510, 158.763 50.079 C 157.334 44.265, 150.057 36.626, 144.500 35.105 C 138.112 33.358, 59.626 33.693, 54.500 35.490 M 57.472 51.031 C 56.461 52.148, 55.347 55.298, 54.996 58.031 L 54.359 63 66.736 63 C 82.885 63, 87.083 64.102, 93.071 69.912 C 98.467 75.147, 99.986 79.291, 99.994 88.795 C 99.999 94.142, 100.370 95.461, 102.455 97.545 C 105.366 100.457, 109.286 100.714, 111.839 98.161 C 113.194 96.806, 113.848 94.132, 114.319 88.018 C 115.072 78.253, 117.650 72.131, 122.600 68.356 C 127.325 64.752, 132.517 63.095, 139.250 63.044 L 145 63 145 58.635 C 145 55.733, 144.305 53.386, 142.927 51.635 L 140.855 49 100.082 49 C 60.371 49, 59.262 49.053, 57.472 51.031 M 52.988 79.750 C 52.981 80.713, 52.311 88.925, 51.500 98 C 50.689 107.075, 50.019 116.188, 50.012 118.250 L 50 122 100 122 L 150 122 149.988 118.250 C 149.981 116.188, 149.311 107.075, 148.500 98 C 147.689 88.925, 147.019 80.713, 147.012 79.750 C 147.002 78.300, 146.070 78, 141.565 78 C 131.278 78, 129 80.627, 129 92.492 C 129 100.600, 126.049 106.375, 119.718 110.658 C 114.028 114.507, 108.516 115.563, 102.122 114.029 C 91.650 111.517, 85.927 103.466, 85.201 90.223 C 84.553 78.425, 83.898 78, 66.365 78 C 54.308 78, 52.999 78.171, 52.988 79.750 M 42 142.443 C 42 151.540, 38.337 151, 100 151 C 161.663 151, 158 151.540, 158 142.443 L 158 137 100 137 L 42 137 42 142.443" stroke="none" fill="black" fill-rule="evenodd"/>
</svg>