<svg xmlns="http://www.w3.org/2000/svg" width="200" height="200" viewBox="0 0 200 200" version="1.1">
	<path d="M 54.354 26.673 C 53.174 26.914, 51.374 28.034, 50.354 29.161 C 48.586 31.115, 48.500 34.415, 48.500 100.077 L 48.500 168.944 50.778 171.222 L 53.056 173.500 100 173.500 L 146.944 173.500 149.222 171.222 L 151.500 168.944 151.500 100 L 151.500 31.056 149.223 28.778 L 146.946 26.500 101.723 26.367 C 76.850 26.294, 55.534 26.432, 54.354 26.673 M 64 60 L 64 78 100 78 L 136 78 136 60 L 136 42 100 42 L 64 42 64 60 M 78 59.456 L 78 71 85.533 71 L 93.066 71 92.783 59.750 L 92.500 48.500 85.250 48.206 L 78 47.912 78 59.456 M 64 125.500 L 64 158 100 158 L 136 158 136 125.500 L 136 93 100 93 L 64 93 64 125.500 M 78 122 L 78 137 85.500 137 L 93 137 93 122 L 93 107 85.500 107 L 78 107 78 122" stroke="none" fill="black" fill-rule="evenodd"/>
</svg>