<svg xmlns="http://www.w3.org/2000/svg" width="200" height="200" viewBox="0 0 200 200" version="1.1">
	<path d="M 73 27.878 C 64.326 30.724, 56.035 37.862, 51.951 46 C 50.294 49.301, 49.504 53.164, 48.987 60.500 C 48.599 66, 47.808 71.625, 47.228 73 C 46.648 74.375, 43.240 78.382, 39.654 81.904 C 35.335 86.147, 32.183 90.367, 30.317 94.404 C 27.792 99.867, 27.500 101.592, 27.500 111.021 C 27.500 120.901, 27.701 121.950, 30.797 128.239 C 34.965 136.705, 41.248 143.012, 49.620 147.133 C 55.489 150.023, 57.395 150.425, 67.837 150.978 C 74.559 151.335, 80.559 152.168, 82 152.947 C 83.375 153.690, 87.396 156.993, 90.936 160.288 C 94.605 163.704, 100.193 167.616, 103.936 169.389 C 110.098 172.309, 111.205 172.500, 122 172.500 C 132.792 172.500, 133.900 172.309, 140 169.403 C 161.058 159.368, 170.748 136.923, 163.410 115.176 C 159.732 104.277, 160.286 98.584, 165.854 90.047 C 171.543 81.322, 173.342 74.737, 172.807 64.591 C 172.036 49.973, 163.586 37.368, 150.110 30.734 C 143.961 27.706, 142.871 27.501, 133.021 27.512 C 123.658 27.523, 121.788 27.837, 116.029 30.368 C 108.580 33.641, 103.841 33.511, 96.747 29.840 C 93.558 28.189, 90.383 27.569, 84 27.350 C 79.325 27.189, 74.375 27.427, 73 27.878 M 128.500 42.087 C 126.300 42.505, 122.250 43.888, 119.500 45.159 C 112.154 48.555, 101.569 48.371, 93.629 44.708 C 86.971 41.637, 78.659 41.082, 74.200 43.411 C 71.163 44.998, 66.784 49.448, 65.178 52.580 C 64.591 53.724, 63.900 58.674, 63.642 63.580 C 62.964 76.460, 61.012 81.078, 52.698 89.470 C 44.141 98.107, 42.044 102.346, 42.044 111 C 42.044 118.581, 44.144 123.990, 48.955 128.801 C 54.472 134.318, 57.436 135.320, 70.500 136.080 C 85.472 136.952, 89.357 138.531, 99.381 147.825 C 107.808 155.639, 113.056 158, 122 158 C 130.530 158, 136.662 155.469, 142.659 149.472 C 151.194 140.937, 153.105 130.374, 148.500 117.193 C 144.166 104.787, 145.622 92.428, 152.478 83.441 C 153.921 81.548, 155.754 78.439, 156.551 76.532 C 158.585 71.663, 158.369 61.410, 156.129 56.478 C 151.422 46.117, 139.622 39.970, 128.500 42.087 M 94.500 64.339 C 87.785 66.563, 84.407 68.731, 80.190 73.522 C 69.660 85.484, 70.683 103.026, 82.541 113.863 C 89.383 120.117, 95.840 122.447, 104.417 121.759 C 115.089 120.902, 123.971 114.846, 128.685 105.211 C 135.675 90.925, 128.947 72.287, 114.492 65.894 C 108.797 63.374, 99.577 62.657, 94.500 64.339" stroke="none" fill="black" fill-rule="evenodd"/>
</svg>