<svg xmlns="http://www.w3.org/2000/svg" width="200" height="200" viewBox="0 0 200 200" version="1.1">
	<path d="M 105.977 29.276 C 88.882 35.105, 75.444 49.912, 71.942 66.781 C 70.128 75.514, 71.203 89.204, 74.295 96.744 C 75.703 100.178, 77.760 104.258, 78.866 105.812 L 80.877 108.636 53.939 135.561 C 29.712 159.775, 27 162.814, 27 165.743 C 27 169.979, 30.021 173, 34.257 173 C 37.186 173, 40.225 170.288, 64.439 146.061 L 91.364 119.123 94.188 121.134 C 104.490 128.469, 123.510 131.166, 136.695 127.161 C 158.550 120.523, 173 100.956, 173 78 C 173 59.988, 164.622 44.541, 149.572 34.805 C 137.224 26.817, 119.704 24.595, 105.977 29.276 M 115.543 57.465 C 111.933 58.434, 109.444 60.005, 106.382 63.245 C 97.715 72.419, 97.904 84.178, 106.863 93.137 C 115.722 101.996, 127.398 102.283, 136.531 93.865 C 140.918 89.820, 144 83.275, 144 78 C 144 68.704, 136.105 59.046, 126.889 57.070 C 121.030 55.813, 121.799 55.786, 115.543 57.465 M 116.655 72.829 C 114.418 75.300, 114.517 81.253, 116.829 83.345 C 119.300 85.582, 125.253 85.483, 127.345 83.171 C 129.582 80.700, 129.483 74.747, 127.171 72.655 C 124.700 70.418, 118.747 70.517, 116.655 72.829" stroke="none" fill="black" fill-rule="evenodd"/>
</svg>