<svg xmlns="http://www.w3.org/2000/svg" width="200" height="200" viewBox="0 0 200 200" version="1.1">
	<path d="M 95 29 C 93.416 30.584, 93 32.333, 93 37.405 L 93 43.809 87.250 47.038 C 67.491 58.136, 47.373 76.025, 38.490 90.398 C 24.944 112.315, 23.211 136.185, 33.957 152.813 C 38.686 160.128, 44.762 165.413, 53 169.374 C 59.035 172.276, 60.215 172.491, 69.500 172.370 C 87.835 172.132, 109.820 172.136, 130.555 172.381 C 140.274 172.496, 140.866 172.374, 148.213 168.741 C 157.436 164.180, 164.913 156.503, 169.387 147 C 172.026 141.395, 172.498 139.123, 172.816 130.500 C 173.070 123.610, 172.678 118.331, 171.555 113.528 C 165.945 89.524, 143.786 64.469, 112.750 47.038 L 107 43.809 107 37.405 C 107 29.982, 104.994 27, 100 27 C 98.333 27, 96.111 27.889, 95 29 M 91.450 78.750 C 82.859 94.726, 73.770 115.056, 71.902 122.476 C 68.418 136.313, 76.666 151.972, 89.795 156.446 C 95.158 158.273, 103.725 158.462, 109.038 156.870 C 114.755 155.158, 121.954 149.121, 125.218 143.303 C 131.002 132.991, 129.925 124.019, 120.327 102.572 C 115.392 91.545, 100.835 64.003, 99.941 64.001 C 99.633 64.001, 95.812 70.638, 91.450 78.750 M 70.838 76.502 C 52.289 92.109, 42 110.306, 42 127.503 C 42 136.546, 44.090 142.685, 49.111 148.388 C 52.903 152.697, 62.766 158.578, 64.969 157.844 C 65.561 157.646, 64.931 155.891, 63.525 153.822 C 58.538 146.482, 56.650 140.149, 56.572 130.500 C 56.510 122.699, 56.960 120.186, 59.953 111.633 C 61.853 106.206, 66.877 94.731, 71.119 86.133 C 75.361 77.535, 78.743 70.411, 78.635 70.303 C 78.527 70.194, 75.018 72.984, 70.838 76.502 M 129.016 86.288 C 140.449 109.935, 143.474 119.230, 143.408 130.500 C 143.352 140.135, 141.476 146.462, 136.511 153.768 C 135.159 155.758, 134.179 157.512, 134.333 157.666 C 134.487 157.820, 136.213 157.504, 138.169 156.964 C 146.048 154.788, 154.920 145.718, 157.111 137.596 C 158.902 130.959, 157.755 117.490, 154.779 110.221 C 149.388 97.050, 139.606 84.461, 127.203 74.733 L 121.125 69.965 129.016 86.288" stroke="none" fill="black" fill-rule="evenodd"/>
</svg>