<svg xmlns="http://www.w3.org/2000/svg" width="200" height="200" viewBox="0 0 200 200" version="1.1">
	<path d="M 93 41.500 L 93 56 100 56 L 107 56 107 41.500 L 107 27 100 27 L 93 27 93 41.500 M 48.457 72.863 C 41.655 77.011, 39.496 84.831, 43.193 91.926 C 46.180 97.657, 50.845 100.267, 57.122 99.721 C 63.197 99.192, 67.430 96.059, 69.542 90.530 C 72.346 83.187, 69.717 75.973, 62.961 72.480 C 59.017 70.441, 52.132 70.622, 48.457 72.863 M 92.304 72.956 C 79.894 80.523, 85.437 100, 100 100 C 111.637 100, 118.649 86.337, 111.886 76.840 C 107.698 70.958, 98.555 69.144, 92.304 72.956 M 135.898 73.270 C 123.107 81.815, 130.272 101.469, 145.550 99.747 C 156.784 98.481, 162.385 85.967, 155.835 76.769 C 151.534 70.728, 142.165 69.084, 135.898 73.270 M 72.450 108.407 C 62.309 112.824, 60.264 125.634, 68.540 132.901 C 74.910 138.494, 83.243 137.904, 88.901 131.460 C 94.228 125.393, 93.947 117.186, 88.227 111.729 C 83.364 107.090, 78.045 105.970, 72.450 108.407 M 116.450 108.407 C 106.309 112.824, 104.264 125.634, 112.540 132.901 C 118.910 138.494, 127.243 137.904, 132.901 131.460 C 138.228 125.393, 137.947 117.186, 132.227 111.729 C 127.364 107.090, 122.045 105.970, 116.450 108.407 M 91.825 146.473 C 87.477 149.428, 84.417 156.336, 85.363 161.065 C 86.778 168.138, 92.740 173, 100 173 C 110.901 173, 117.621 162.713, 113.219 152.762 C 109.466 144.279, 99.406 141.321, 91.825 146.473" stroke="none" fill="black" fill-rule="evenodd"/>
</svg>