<svg xmlns="http://www.w3.org/2000/svg" width="200" height="200" viewBox="0 0 200 200" version="1.1">
	<path d="M 75.204 29.128 C 72.841 30.298, 69.751 32.772, 68.337 34.625 C 63.499 40.968, 63.091 43.713, 63.044 70.263 L 63 95.025 56 91.500 L 49 87.975 49 130.487 L 49 173 100 173 L 151 173 151 130.487 L 151 87.975 144.078 91.461 L 137.155 94.947 136.827 76.224 C 136.532 59.328, 136.289 57.110, 134.347 53.500 C 129.818 45.083, 123.470 41.505, 113.270 41.622 C 106.982 41.694, 105.962 41.455, 105.432 39.786 C 104.437 36.650, 98.962 31.021, 94.885 28.941 C 89.630 26.260, 80.828 26.344, 75.204 29.128 M 81.400 42.765 C 78.424 44.752, 78 48.330, 78 71.434 C 78 84.395, 78.210 95, 78.466 95 C 78.722 95, 80.450 94.276, 82.306 93.391 C 85.405 91.913, 85.931 91.913, 88.790 93.391 C 90.501 94.276, 92.170 95, 92.500 95 C 92.830 95, 92.965 84.021, 92.800 70.603 C 92.525 48.257, 92.340 46.029, 90.595 44.103 C 88.693 42.003, 83.642 41.268, 81.400 42.765 M 110.736 57.250 C 109.831 57.938, 108.620 59.767, 108.045 61.315 C 107.041 64.019, 106.509 95, 107.466 95 C 107.722 95, 109.450 94.276, 111.306 93.391 C 114.405 91.913, 114.931 91.913, 117.790 93.391 C 119.501 94.276, 121.148 95, 121.450 95 C 121.753 95, 122 87.330, 122 77.955 C 122 61.190, 121.960 60.869, 119.545 58.455 C 116.867 55.776, 113.316 55.291, 110.736 57.250" stroke="none" fill="black" fill-rule="evenodd"/>
</svg>