<svg xmlns="http://www.w3.org/2000/svg" width="200" height="200" viewBox="0 0 200 200" version="1.1">
	<path d="M 106.500 28.417 C 99.838 31.391, 94.303 40.661, 93.282 50.556 C 92.734 55.862, 92.658 55.971, 89.112 56.520 C 69.343 59.580, 54.868 66.347, 43.087 78.037 C 32.082 88.958, 27.016 100.779, 27.033 115.500 C 27.061 139.779, 46.854 161.588, 76.715 170.243 C 87.037 173.235, 111.760 173.444, 122 170.626 C 162.922 159.363, 183.722 123.846, 167.754 92.500 C 158.110 73.570, 139.652 61.906, 110.750 56.478 C 108.424 56.041, 108 55.464, 108.002 52.731 C 108.004 47.339, 110.965 42.827, 115.500 41.304 C 117.700 40.565, 120.063 39.209, 120.750 38.289 C 122.619 35.790, 122.261 31.657, 119.961 29.189 C 117.575 26.628, 111.313 26.269, 106.500 28.417 M 75.315 86.016 C 72.699 87.059, 71 89.951, 71 93.362 C 71 96.087, 75.126 100, 78 100 C 78.952 100, 80.916 99.067, 82.365 97.927 C 88.511 93.093, 82.603 83.111, 75.315 86.016 M 120 85.719 C 114.456 87.721, 113.161 94.408, 117.635 97.927 C 119.084 99.067, 121.048 100, 122 100 C 125.067 100, 129 96.088, 129 93.038 C 129 88.304, 124.032 84.264, 120 85.719 M 66.223 116.557 C 64.604 117.690, 64 119.123, 64 121.828 C 64 125.173, 64.869 126.399, 72.750 134.169 C 77.563 138.915, 82.496 143.093, 83.712 143.454 C 86.619 144.317, 89.473 142.763, 95.252 137.170 L 100.003 132.572 105.259 137.762 C 108.529 140.992, 111.743 143.199, 113.764 143.603 C 116.822 144.214, 117.568 143.707, 126.506 134.942 C 135.163 126.452, 136 125.300, 136 121.872 C 136 119.122, 135.404 117.696, 133.777 116.557 C 129.735 113.725, 126.950 114.612, 120.813 120.685 L 115.068 126.370 109.108 120.685 C 101.073 113.020, 98.927 113.020, 90.892 120.685 L 84.932 126.370 79.187 120.685 C 73.050 114.612, 70.265 113.725, 66.223 116.557" stroke="none" fill="black" fill-rule="evenodd"/>
</svg>