<svg xmlns="http://www.w3.org/2000/svg" width="200" height="200" viewBox="0 0 200 200" version="1.1">
	<path d="M 80.920 29.010 C 65.828 32.723, 54.732 39.241, 43.835 50.793 C 32.774 62.517, 27.034 76.493, 27.012 91.750 L 27 100 100 100 L 173 100 173 92.549 C 173 82.343, 171.510 75.946, 166.870 66.226 C 160.441 52.759, 146.770 39.769, 132.289 33.364 C 117.831 26.970, 96.543 25.166, 80.920 29.010 M 94.557 44.223 C 92.168 47.632, 92.603 51.542, 95.635 53.927 C 97.084 55.067, 99.048 56, 100 56 C 103.002 56, 107 52.088, 107 49.150 C 107 44.621, 104.434 42, 100 42 C 97.117 42, 95.711 42.574, 94.557 44.223 M 60.232 64.544 C 52.354 67.857, 57.049 79.710, 65.408 77.612 C 68.745 76.775, 71.309 71.942, 70.101 68.765 C 68.380 64.238, 64.702 62.665, 60.232 64.544 M 133.905 64.360 C 132.616 65.003, 130.918 66.673, 130.133 68.072 C 128.907 70.257, 128.903 71.025, 130.105 73.534 C 134.124 81.918, 146.599 76.689, 143.046 68.110 C 141.518 64.423, 137.273 62.681, 133.905 64.360 M 29.635 109.073 C 26.333 111.670, 26.022 117.022, 29 120 C 30.961 121.961, 32.333 122, 100 122 C 167.667 122, 169.039 121.961, 171 120 C 173.978 117.022, 173.667 111.670, 170.365 109.073 C 167.758 107.022, 167.007 107, 100 107 C 32.993 107, 32.242 107.022, 29.635 109.073 M 27.022 142.750 C 27.046 157.964, 28.155 162.068, 33.624 167.197 C 39.919 173.100, 38.795 173.002, 100.218 172.978 C 152.867 172.957, 156.758 172.837, 160.500 171.104 C 162.700 170.086, 165.714 167.958, 167.197 166.376 C 172.056 161.194, 173 157.316, 173 142.532 L 173 129 100 129 L 27 129 27.022 142.750" stroke="none" fill="black" fill-rule="evenodd"/>
</svg>