<svg xmlns="http://www.w3.org/2000/svg" width="200" height="200" viewBox="0 0 200 200" version="1.1">
	<path d="M 71 27.887 C 57.638 32.222, 49.067 43.073, 49.022 55.712 C 48.974 69.141, 58.144 84.209, 79.210 105.320 L 93 119.140 93 146.070 L 93 173 100 173 L 107 173 107 146.032 L 107 119.065 119.288 106.782 C 132.987 93.090, 142.202 81.399, 147.040 71.571 C 151.204 63.112, 152.151 53.302, 149.479 46.305 C 147.174 40.271, 140.931 33.530, 134.540 30.175 C 130.122 27.856, 128.323 27.528, 119.964 27.515 C 111.538 27.502, 109.820 27.815, 105.214 30.202 L 100 32.904 94.794 30.202 C 90.572 28.010, 88.069 27.460, 81.544 27.288 C 77.120 27.172, 72.375 27.441, 71 27.887" stroke="none" fill="black" fill-rule="evenodd"/>
</svg>