<svg xmlns="http://www.w3.org/2000/svg" width="200" height="200" viewBox="0 0 200 200" version="1.1">
	<path d="M 57.061 28.973 C 35.273 37.029, 23.748 59.035, 29.532 81.540 C 34.751 101.849, 55.520 130.859, 85.886 160.250 C 93.130 167.263, 99.466 173, 99.964 173 C 100.462 173, 107.199 166.874, 114.935 159.387 L 129 145.775 129 152.815 C 129 159.229, 129.234 160.039, 131.635 161.927 C 134.959 164.542, 137.041 164.542, 140.365 161.927 L 143 159.855 143 144.518 L 143 129.180 149.889 120.006 C 157.924 109.306, 165.907 95.221, 169.162 86 C 170.959 80.907, 171.460 77.336, 171.475 69.500 C 171.493 60.270, 171.244 58.970, 168.242 52.625 C 162.657 40.824, 153.882 32.788, 142.414 28.971 C 136.963 27.157, 134.190 26.845, 126.650 27.197 C 116.976 27.647, 111.208 29.533, 103.750 34.683 L 100 37.272 96.250 34.683 C 88.404 29.265, 83.131 27.622, 72.500 27.282 C 64.393 27.023, 61.470 27.343, 57.061 28.973 M 63.803 42.351 C 54.312 45.004, 46.231 52.734, 43.886 61.404 C 42.163 67.777, 43.257 78.698, 46.282 85.305 L 48.889 91 100 91 L 151.111 91 153.718 85.305 C 157.132 77.847, 157.921 67.290, 155.590 60.270 C 151.900 49.161, 141.092 41.561, 129.069 41.621 C 118.091 41.674, 111.025 45.852, 102.210 57.500 L 99.940 60.500 97.720 57.553 C 92.377 50.460, 87.623 46.084, 83.186 44.175 C 76.795 41.426, 69.552 40.744, 63.803 42.351" stroke="none" fill="black" fill-rule="evenodd"/>
</svg>