<svg xmlns="http://www.w3.org/2000/svg" width="200" height="200" viewBox="0 0 200 200" version="1.1">
	<path d="M 36.125 42.996 C 31.106 51.794, 27 59.267, 27 59.604 C 27 59.940, 31.162 67.586, 36.250 76.596 L 45.500 92.976 64.455 92.738 L 83.410 92.500 92.770 76.163 L 102.131 59.827 92.815 43.419 L 83.500 27.011 64.375 27.005 L 45.251 27 36.125 42.996 M 107.189 83.529 L 97.878 100 107.189 116.471 L 116.500 132.943 135.500 132.966 L 154.500 132.989 163.865 116.495 L 173.229 100 163.865 83.505 L 154.500 67.011 135.500 67.034 L 116.500 67.057 107.189 83.529 M 36.250 123.404 C 31.163 132.414, 27 140.060, 27 140.396 C 27 140.733, 31.106 148.206, 36.125 157.004 L 45.251 173 64.375 172.995 L 83.500 172.989 92.815 156.581 L 102.131 140.173 92.770 123.837 L 83.410 107.500 64.455 107.262 L 45.500 107.024 36.250 123.404" stroke="none" fill="black" fill-rule="evenodd"/>
</svg>