<svg xmlns="http://www.w3.org/2000/svg" width="200" height="200" viewBox="0 0 200 200" version="1.1">
	<path d="M 29.174 36.314 C 27.061 38.564, 27 39.334, 27 63.742 L 27 88.855 29.635 90.927 C 33.214 93.743, 35.620 93.533, 39.044 90.110 C 41.561 87.593, 42.006 87.444, 42.487 88.958 C 43.060 90.764, 46.990 93, 49.593 93 C 50.417 93, 52.195 91.895, 53.545 90.545 L 56 88.091 58.455 90.545 C 59.805 91.895, 61.634 93, 62.520 93 C 64.677 93, 68.306 91.036, 69.318 89.322 C 69.973 88.210, 70.731 88.437, 73.144 90.468 C 76.798 93.542, 78.908 93.647, 82.365 90.927 C 84.860 88.965, 85 88.381, 85 79.927 L 85 71 126.365 71 C 166.699 71, 167.796 70.948, 170.365 68.927 C 173.769 66.250, 173.984 60.995, 170.811 58.039 C 168.681 56.054, 167.507 56, 126.811 56 L 85 56 85 47.039 C 85 39.108, 84.748 37.843, 82.811 36.039 C 79.901 33.327, 75.742 33.448, 72.974 36.323 L 70.738 38.647 68.414 36.323 C 65.430 33.339, 61.545 33.364, 58.522 36.387 L 56.136 38.773 53.894 36.387 C 50.998 33.304, 46.635 33.274, 43.593 36.316 L 41.277 38.632 39.214 36.316 C 36.509 33.278, 32.027 33.278, 29.174 36.314 M 47.222 108.750 C 33.212 137.572, 31.521 145.839, 37.618 155.700 C 41.336 161.713, 48.986 166, 56 166 C 62.988 166, 70.666 161.711, 74.353 155.747 C 78.306 149.353, 78.752 143.859, 76.050 134.828 C 73.864 127.524, 57.243 92, 56.011 92 C 55.655 92, 51.699 99.537, 47.222 108.750 M 53.544 130.344 C 49.511 139.403, 48.407 144.403, 49.776 147.408 C 51.063 150.233, 54.688 151.546, 58.534 150.581 C 64.084 149.188, 64.091 143.212, 58.558 130.183 L 56.145 124.500 53.544 130.344" stroke="none" fill="black" fill-rule="evenodd"/>
</svg>