<svg xmlns="http://www.w3.org/2000/svg" width="200" height="200" viewBox="0 0 200 200" version="1.1">
	<path d="M 41.423 40.750 C 37.180 48.313, 32.199 57.112, 30.354 60.304 C 28.509 63.496, 27 66.484, 27 66.944 C 27 67.404, 31.077 75.030, 36.061 83.891 L 45.122 100 36.061 116.109 C 31.077 124.970, 27 132.553, 27 132.961 C 27 133.368, 31.918 142.432, 37.928 153.101 L 48.856 172.500 72.178 172.742 L 95.500 172.985 104.528 156.742 L 113.557 140.500 132.351 140 L 151.146 139.500 162.073 120.101 C 168.083 109.432, 173 100.386, 173 100 C 173 99.614, 168.083 90.568, 162.073 79.899 L 151.146 60.500 132.351 60 L 113.557 59.500 104.528 43.272 L 95.500 27.043 72.319 27.022 L 49.138 27 41.423 40.750 M 57.262 43.250 C 56.722 43.938, 53.474 49.568, 50.046 55.762 L 43.812 67.024 51.022 80.039 L 58.231 93.054 72.260 92.777 L 86.288 92.500 93.118 80.500 C 96.875 73.900, 99.960 67.891, 99.974 67.146 C 99.988 66.402, 96.993 60.439, 93.319 53.896 L 86.637 42 72.441 42 C 62.275 42, 57.966 42.355, 57.262 43.250 M 106.696 86.871 C 103.013 93.428, 100 99.336, 100 100 C 100 100.664, 103.013 106.572, 106.696 113.129 L 113.392 125.051 127.940 124.776 L 142.489 124.500 149.341 112.250 L 156.194 100 149.341 87.750 L 142.489 75.500 127.940 75.224 L 113.392 74.949 106.696 86.871 M 51.017 119.970 L 43.802 132.993 50.657 145.246 L 57.511 157.500 72.060 157.776 L 86.608 158.051 93.304 146.129 C 96.987 139.572, 99.988 133.598, 99.974 132.854 C 99.960 132.109, 96.875 126.100, 93.118 119.500 L 86.288 107.500 72.260 107.223 L 58.231 106.946 51.017 119.970" stroke="none" fill="black" fill-rule="evenodd"/>
</svg>