<svg xmlns="http://www.w3.org/2000/svg" width="200" height="200" viewBox="0 0 200 200" version="1.1">
	<path d="M 88.669 38.046 L 85.869 40.248 86.578 49.308 L 87.287 58.369 82.893 54.798 C 73.072 46.815, 67.802 45.198, 64 49 C 62.271 50.729, 62 52.333, 62 60.843 C 62 68.279, 61.489 72.132, 59.909 76.593 C 57.395 83.696, 57.171 91.156, 59.318 96.250 L 60.898 100 43.949 100 C 34.627 100, 27 100.338, 27.001 100.750 C 27.001 101.162, 30.985 115.450, 35.854 132.500 L 44.707 163.500 99.809 163.758 L 154.910 164.017 156.897 157.258 C 161.214 142.566, 173 101.061, 173 100.546 C 173 100.246, 164.402 100, 153.893 100 C 136.073 100, 134.837 99.882, 135.546 98.250 C 140.484 86.874, 141.125 79.277, 137.945 69.836 C 136.363 65.142, 136.045 62.487, 136.565 58.329 C 137.392 51.709, 135.576 49, 130.313 49 C 126.498 49, 120.470 51.264, 117.763 53.715 C 116.700 54.676, 115.633 54.970, 115.179 54.426 C 114.754 53.917, 112.332 51.003, 109.798 47.952 C 101.210 37.611, 93.698 34.090, 88.669 38.046 M 101.033 62.554 C 100.973 66.264, 95.925 74.988, 92.946 76.528 C 87.995 79.088, 85.052 78.412, 80.512 73.674 L 76.366 69.347 75.277 74.424 C 74.677 77.216, 73.625 81.327, 72.937 83.560 C 71.289 88.917, 72.338 92.640, 76.640 96.696 L 80.142 100 98.860 100 L 117.577 100 120.732 94.750 C 125.601 86.649, 126.593 81.294, 124.427 74.816 L 122.650 69.500 121.808 72.705 C 120.310 78.410, 114.266 80.778, 110.209 77.250 C 109.102 76.287, 107.444 73.146, 106.524 70.270 C 105.605 67.393, 104 64.018, 102.959 62.770 C 101.118 60.561, 101.066 60.555, 101.033 62.554" stroke="none" fill="black" fill-rule="evenodd"/>
</svg>