<svg xmlns="http://www.w3.org/2000/svg" width="200" height="200" viewBox="0 0 200 200" version="1.1">
	<path d="M 93 59.500 L 93 78 100 78 L 107 78 107 59.500 L 107 41 100 41 L 93 41 93 59.500 M 56 74.500 L 56 93 63.500 93 L 71 93 71 74.500 L 71 56 63.500 56 L 56 56 56 74.500 M 129 74.500 L 129 93 136.500 93 L 144 93 144 74.500 L 144 56 136.500 56 L 129 56 129 74.500 M 27 114.443 L 27 121.885 31.216 122.193 L 35.432 122.500 39.005 140.500 L 42.578 158.500 100 158.500 L 157.422 158.500 160.995 140.500 L 164.568 122.500 168.784 122.193 L 173 121.885 173 114.443 L 173 107 100 107 L 27 107 27 114.443" stroke="none" fill="black" fill-rule="evenodd"/>
</svg>