<svg xmlns="http://www.w3.org/2000/svg" width="200" height="200" viewBox="0 0 200 200" version="1.1">
	<path d="M 86.413 28.769 C 72.202 33.835, 59.951 46.994, 57.353 59.984 C 57.021 61.643, 56.192 63, 55.510 63 C 52.762 63, 49 67.136, 49 70.158 C 49 73.555, 92.363 168.363, 95.227 171.227 C 96.202 172.202, 98.350 173, 100 173 C 101.650 173, 103.798 172.202, 104.773 171.227 C 107.637 168.363, 151 73.555, 151 70.158 C 151 67.136, 147.238 63, 144.490 63 C 143.808 63, 142.979 61.643, 142.647 59.984 C 140.449 48.994, 130.240 36.689, 118.558 30.948 C 112.268 27.857, 110.671 27.509, 101.558 27.246 C 93.816 27.022, 90.329 27.373, 86.413 28.769 M 89.463 43.591 C 83.794 45.604, 78.422 50.335, 74.969 56.356 C 73.346 59.185, 72.015 61.837, 72.009 62.250 C 72.004 62.663, 84.600 63, 100 63 C 115.400 63, 127.996 62.663, 127.991 62.250 C 127.985 61.837, 126.654 59.185, 125.031 56.356 C 119.507 46.725, 110.959 41.931, 99.572 42.079 C 96.232 42.122, 91.683 42.803, 89.463 43.591 M 68.278 79.250 C 70.621 85.198, 99.558 147, 100 147 C 100.442 147, 129.379 85.198, 131.722 79.250 C 132.103 78.281, 128.589 78, 116.107 78 L 100 78 100 86.826 C 100 94.758, 99.766 95.871, 97.686 97.826 C 94.615 100.710, 90.507 100.597, 87.455 97.545 C 85.231 95.322, 85 94.285, 85 86.545 L 85 78 76.393 78 C 69.911 78, 67.908 78.309, 68.278 79.250" stroke="none" fill="black" fill-rule="evenodd"/>
</svg>