<svg xmlns="http://www.w3.org/2000/svg" width="200" height="200" viewBox="0 0 200 200" version="1.1">
	<path d="M 64.730 29.372 C 54.269 33.762, 46.739 41.501, 43.444 51.250 C 41.895 55.836, 41.704 56, 37.920 56 L 34 56 34 69.386 C 34 82.097, 34.141 83.041, 36.794 88.120 C 40.802 95.792, 46.816 99.351, 56.608 99.845 L 63.910 100.214 65.480 104.857 C 68.756 114.548, 76.406 122.357, 86.730 126.551 L 92.500 128.895 92.777 143.447 L 93.053 158 85.527 158 L 78 158 78 165.500 L 78 173 100 173 L 122 173 122 165.500 L 122 158 114.473 158 L 106.947 158 107.223 143.447 L 107.500 128.895 113.270 126.551 C 123.594 122.357, 131.244 114.548, 134.520 104.857 L 136.090 100.214 143.392 99.845 C 153.184 99.351, 159.198 95.792, 163.206 88.120 C 165.859 83.041, 166 82.097, 166 69.386 L 166 56 162.080 56 C 158.296 56, 158.105 55.836, 156.556 51.250 C 154.492 45.145, 149.088 37.800, 143.884 34.031 C 132.897 26.072, 118.045 24.711, 106.211 30.580 L 100 33.659 93.791 30.580 C 88.559 27.985, 86.238 27.457, 79.041 27.225 C 71.862 26.994, 69.580 27.337, 64.730 29.372 M 69.007 43.593 C 67.086 44.426, 64.456 46.096, 63.162 47.304 C 61.031 49.294, 58 54.077, 58 55.450 C 58 55.753, 67 56, 78 56 C 89 56, 98 55.753, 98 55.450 C 98 54.075, 94.968 49.293, 92.831 47.298 C 87.338 42.169, 76.263 40.447, 69.007 43.593 M 113.163 43.474 C 111.327 44.301, 109.977 45.322, 110.163 45.743 C 110.348 46.165, 111.349 48.645, 112.386 51.255 L 114.272 56 128.136 56 C 135.761 56, 141.998 55.663, 141.996 55.250 C 141.986 53.150, 137.592 47.759, 133.900 45.315 C 128.788 41.932, 118.597 41.028, 113.163 43.474 M 49 76 C 49 84.211, 50.446 85, 65.500 85 L 78 85 78 90.134 C 78 104.628, 86.643 114, 100.010 114 C 112.869 114, 120.766 105.930, 121.784 91.750 L 122.269 85 134.634 85 C 149.539 85, 151 84.196, 151 76 L 151 71 100 71 L 49 71 49 76" stroke="none" fill="black" fill-rule="evenodd"/>
</svg>