<svg xmlns="http://www.w3.org/2000/svg" width="200" height="200" viewBox="0 0 200 200" version="1.1">
	<path d="M 52.096 28.450 C 41.102 32.020, 30.597 43.176, 27.988 54.049 C 26.102 61.912, 27.142 72.727, 30.433 79.452 C 32.795 84.279, 33.024 85.491, 32.088 88.178 C 27.524 101.270, 38.918 117.025, 52.928 116.994 C 60.948 116.977, 62.580 115.733, 88.788 89.659 C 112.550 66.019, 114.172 64.173, 115.659 59.079 C 118.050 50.889, 116.291 44.189, 110.144 38.069 C 103.700 31.653, 95.686 29.471, 88.178 32.088 C 85.487 33.026, 84.275 32.792, 79.360 30.388 C 74.723 28.119, 72.063 27.546, 65.081 27.309 C 59.602 27.124, 54.908 27.536, 52.096 28.450 M 99.303 100.191 L 76.112 123.383 119.716 148.191 C 148.454 164.541, 164.289 173, 166.160 173 C 169.718 173, 173 169.821, 173 166.376 C 173 163.882, 124.506 77, 123.114 77 C 122.773 77, 112.059 87.436, 99.303 100.191" stroke="none" fill="black" fill-rule="evenodd"/>
</svg>