<svg xmlns="http://www.w3.org/2000/svg" width="200" height="200" viewBox="0 0 200 200" version="1.1">
	<path d="M 93 41.500 L 93 56 67.075 56 L 41.150 56 45.911 70.250 L 50.673 84.500 71.586 85 L 92.500 85.500 92.794 92.750 L 93.088 100 74.544 100 C 64.345 100, 56.033 100.338, 56.074 100.750 C 56.115 101.162, 60.502 114.325, 65.824 130 L 75.500 158.500 84.250 158.789 L 93 159.078 93 166.039 L 93 173 100 173 L 107 173 107 166.035 L 107 159.070 117.164 158.785 L 127.328 158.500 131.675 145.500 C 134.066 138.350, 136.272 131.713, 136.578 130.750 C 137.091 129.136, 135.963 129, 122.067 129 L 107 129 107 122 L 107 115 124.461 115 L 141.923 115 142.945 111.250 C 143.507 109.188, 147.289 95.912, 151.349 81.750 L 158.732 56 132.866 56 L 107 56 107 41.500 L 107 27 100 27 L 93 27 93 41.500" stroke="none" fill="black" fill-rule="evenodd"/>
</svg>