<svg xmlns="http://www.w3.org/2000/svg" width="200" height="200" viewBox="0 0 200 200" version="1.1">
	<path d="M 61.500 28.659 C 57.117 30.966, 53.081 34.986, 50.908 39.210 C 48.801 43.306, 48.342 52.140, 50.008 56.522 C 50.900 58.866, 50.567 59.685, 47.141 63.577 C 45.010 65.999, 42.733 69.897, 42.081 72.240 C 41.234 75.288, 40.983 88.026, 41.199 117 L 41.500 157.500 44.187 162.070 C 45.665 164.584, 48.775 167.959, 51.100 169.570 L 55.327 172.500 98.643 172.781 C 141.102 173.055, 142.043 173.019, 146.120 170.939 C 151.861 168.010, 155.795 163.401, 157.532 157.568 C 159.396 151.309, 159.692 79.633, 157.883 72.451 C 157.222 69.823, 155.130 66.157, 152.749 63.452 C 149.144 59.357, 148.847 58.631, 149.865 56.396 C 151.482 52.848, 151.268 44.577, 149.447 40.218 C 147.489 35.530, 143.563 31.363, 138.790 28.908 C 135.341 27.134, 132.598 27.003, 99.790 27.040 C 69.625 27.074, 64.064 27.309, 61.500 28.659 M 87.261 88.511 C 70.148 97.190, 65.697 119.286, 78.202 133.492 C 84.330 140.454, 90.797 143.391, 100 143.391 C 109.212 143.391, 115.670 140.454, 121.819 133.468 C 134.214 119.387, 129.766 97.287, 112.737 88.336 C 110.683 87.257, 106.394 86.493, 101 86.245 C 93.349 85.893, 91.977 86.119, 87.261 88.511" stroke="none" fill="black" fill-rule="evenodd"/>
</svg>