<svg xmlns="http://www.w3.org/2000/svg" width="200" height="200" viewBox="0 0 200 200" version="1.1">
	<path d="M 60.491 37.865 C 55.428 40.165, 50.381 45.860, 49.083 50.737 C 48.532 52.807, 45.807 68.225, 43.027 85 C 40.247 101.775, 37.718 116.737, 37.407 118.250 C 36.882 120.801, 36.485 121, 31.921 121 C 29.214 121, 27 121.458, 27 122.017 C 27 122.576, 29.306 132.251, 32.124 143.517 L 37.249 164 100 164 L 162.751 164 167.876 143.517 C 170.694 132.251, 173 122.576, 173 122.017 C 173 121.458, 170.786 121, 168.079 121 C 163.515 121, 163.118 120.801, 162.593 118.250 C 162.282 116.737, 159.753 101.775, 156.973 85 C 150.955 48.686, 150.924 48.559, 146.845 43.621 C 140.670 36.144, 140.049 36.044, 100 36.044 C 67.797 36.044, 64.128 36.213, 60.491 37.865 M 66.350 50.994 C 65.168 51.471, 63.719 53.355, 63.130 55.181 C 62.172 58.149, 52 117.335, 52 119.940 C 52 120.582, 54.670 121, 58.773 121 L 65.547 121 70.940 88.250 C 73.907 70.238, 76.677 54.263, 77.097 52.750 C 77.853 50.028, 77.814 50.001, 73.180 50.063 C 70.606 50.098, 67.533 50.517, 66.350 50.994 M 93.626 52.250 C 91.341 54.320, 90.729 57.026, 85.999 86 C 83.170 103.325, 80.633 118.287, 80.361 119.250 C 79.901 120.875, 81.300 121, 99.952 121 L 120.038 121 119.535 118.750 C 118.795 115.439, 109 56.963, 109 55.855 C 109 55.335, 107.895 53.805, 106.545 52.455 C 103.263 49.172, 97.133 49.075, 93.626 52.250 M 122.903 52.750 C 123.323 54.263, 126.093 70.237, 129.060 88.250 L 134.453 121 141.227 121 C 145.269 121, 148 120.579, 148 119.955 C 148 116.943, 137.714 57.077, 136.783 54.666 C 135.498 51.342, 132.542 50, 126.505 50 C 122.224 50, 122.154 50.053, 122.903 52.750 M 46.924 142.750 L 48.627 149.500 100 149.500 L 151.373 149.500 153.076 142.750 L 154.780 136 100 136 L 45.220 136 46.924 142.750" stroke="none" fill="black" fill-rule="evenodd"/>
</svg>