<svg xmlns="http://www.w3.org/2000/svg" width="200" height="200" viewBox="0 0 200 200" version="1.1">
	<path d="M 28.095 29.250 C 28.736 30.488, 33.477 38.974, 38.630 48.109 L 48 64.718 48 118.859 L 48 173 96 173 L 144 173 144 118.500 L 144 64 150.988 64 L 157.975 64 158.238 100.250 L 158.500 136.500 165.750 136.794 L 173 137.088 173 93.044 L 173 49 158.500 49 L 144 49 144 38 L 144 27 85.465 27 L 26.930 27 28.095 29.250 M 53 42.489 C 53 42.759, 55.475 47.410, 58.500 52.826 L 64 62.672 64 77.336 L 64 92 96.500 92 L 129 92 129 67 L 129 42 91 42 C 70.100 42, 53 42.220, 53 42.489" stroke="none" fill="black" fill-rule="evenodd"/>
</svg>