<svg xmlns="http://www.w3.org/2000/svg" width="200" height="200" viewBox="0 0 200 200" version="1.1">
	<path d="M 106.004 35.066 C 100.231 39.417, 94.719 43.653, 93.754 44.479 C 92.337 45.692, 92 47.616, 92 54.490 L 92 63 77.500 63 L 63 63 63 70.500 L 63 78 100 78 L 137 78 137 70.500 L 137 63 122 63 L 107 63 107 58.008 L 107 53.016 116.500 46 C 121.725 42.141, 126 38.691, 126 38.333 C 126 37.257, 117.992 26.994, 117.218 27.077 C 116.823 27.120, 111.777 30.714, 106.004 35.066 M 56 92.836 C 56 93.296, 59.150 111.177, 63 132.571 C 66.850 153.965, 70 171.814, 70 172.235 C 70 172.656, 83.500 173, 100 173 C 116.500 173, 130 172.624, 130 172.164 C 130 171.704, 133.150 153.823, 137 132.429 C 140.850 111.035, 144 93.186, 144 92.765 C 144 92.344, 124.200 92, 100 92 C 75.800 92, 56 92.376, 56 92.836 M 74 108.013 C 74 109.141, 81.676 152.204, 82.509 155.750 C 83.032 157.974, 83.233 158, 100 158 C 116.767 158, 116.968 157.974, 117.491 155.750 C 118.324 152.204, 126 109.141, 126 108.013 C 126 107.355, 116.890 107, 100 107 C 83.110 107, 74 107.355, 74 108.013" stroke="none" fill="black" fill-rule="evenodd"/>
</svg>