<svg xmlns="http://www.w3.org/2000/svg" width="200" height="200" viewBox="0 0 200 200" version="1.1">
	<path d="M 104.750 36.093 L 93 45.065 93 54.032 L 93 63 78 63 L 63 63 63 70.500 L 63 78 100 78 L 137 78 137 70.500 L 137 63 122 63 L 107 63 107 58.122 L 107 53.244 116.500 46.103 C 121.725 42.176, 126 38.727, 126 38.438 C 126 37.448, 117.936 27, 117.218 27.060 C 116.823 27.093, 111.213 31.158, 104.750 36.093 M 56.308 95.250 C 56.597 96.487, 59.875 114.487, 63.593 135.250 L 70.354 173 99.985 173 L 129.616 173 136.393 135.250 C 140.120 114.487, 143.405 96.487, 143.693 95.250 L 144.217 93 100 93 L 55.783 93 56.308 95.250" stroke="none" fill="black" fill-rule="evenodd"/>
</svg>