<svg xmlns="http://www.w3.org/2000/svg" width="200" height="200" viewBox="0 0 200 200" version="1.1">
	<path d="M 85 28.570 C 55.671 36.238, 34 66.591, 34 100 C 34 131.364, 53.252 160.520, 80.224 170.006 C 88.938 173.071, 105.149 173.836, 114.012 171.602 C 137.351 165.718, 156.661 145.639, 163.637 120 C 166.106 110.925, 166.100 89.013, 163.626 80.058 C 156.489 54.227, 137.544 34.331, 114.540 28.509 C 107.122 26.631, 92.297 26.662, 85 28.570 M 85.609 44.093 C 54.232 54.885, 39.610 95.643, 55.394 128.315 C 71.529 161.711, 111.833 168.325, 135.742 141.500 C 163.392 110.477, 151.469 56.622, 114.168 44.057 C 105.969 41.294, 93.701 41.310, 85.609 44.093 M 93 59.965 C 93 62.996, 92.495 64.200, 90.853 65.078 C 89.168 65.980, 88.529 65.934, 87.882 64.864 C 85.294 60.585, 85.440 60.602, 79.629 63.926 C 76.556 65.684, 73.776 67.553, 73.451 68.080 C 73.126 68.606, 73.791 70.544, 74.930 72.386 C 77.913 77.214, 77.615 78.370, 73.885 76.441 C 70.307 74.590, 70.269 74.619, 66.088 82.120 L 62.956 87.739 65.945 88.977 C 67.589 89.658, 69.454 90.842, 70.089 91.608 C 71.045 92.760, 70.526 93, 67.079 93 L 62.912 93 63.206 100.250 L 63.500 107.500 66.936 108 L 70.372 108.500 66.711 110.464 L 63.050 112.428 66.135 117.964 C 70.263 125.371, 70.312 125.407, 73.885 123.559 C 77.635 121.620, 78.012 122.952, 75 127.500 C 73.907 129.150, 73.019 130.950, 73.026 131.500 C 73.040 132.530, 83.438 139, 85.080 139 C 85.586 139, 86 138.636, 86 138.191 C 86 137.746, 86.598 136.564, 87.329 135.565 C 88.431 134.058, 89.030 133.946, 90.829 134.909 C 92.497 135.801, 93 136.990, 93 140.035 L 93 144 100 144 L 107 144 107 140.035 C 107 136.990, 107.503 135.801, 109.171 134.909 C 110.970 133.946, 111.569 134.058, 112.671 135.565 C 113.402 136.564, 114 137.746, 114 138.191 C 114 139.748, 116.285 138.972, 122.095 135.442 L 127.952 131.884 125.476 127.962 C 122.186 122.750, 122.335 121.494, 125.988 123.652 C 129.442 125.692, 129.619 125.552, 134.015 117.266 C 136.341 112.881, 136.366 112.637, 134.604 111.592 C 133.592 110.991, 131.804 109.727, 130.631 108.783 C 128.536 107.095, 128.571 107.066, 132.750 107.033 L 137 107 137 100 L 137 93 133 93 C 128.077 93, 127.935 92.028, 132.500 89.570 C 134.425 88.533, 136 87.346, 136 86.933 C 136 85.553, 129.592 75, 128.754 75 C 128.301 75, 126.820 75.727, 125.465 76.615 C 122.354 78.653, 122.362 77.765, 125.500 72.410 L 128 68.145 121.841 64.403 L 115.681 60.662 113.470 63.435 C 111.567 65.822, 110.962 66.050, 109.129 65.069 C 107.507 64.201, 107 62.986, 107 59.965 L 107 56 100 56 L 93 56 93 59.965 M 94.287 80.092 C 86.095 85.339, 83.147 101.649, 88.437 112.461 C 94.348 124.541, 105.077 124.805, 111.250 113.021 C 116.882 102.270, 113.941 85.217, 105.561 80.038 C 101.402 77.468, 98.361 77.482, 94.287 80.092" stroke="none" fill="black" fill-rule="evenodd"/>
</svg>