<svg xmlns="http://www.w3.org/2000/svg" width="200" height="200" viewBox="0 0 200 200" version="1.1">
	<path d="M 85 28.570 C 65.688 33.619, 47.780 50.094, 39.721 70.223 C 22.860 112.343, 45.258 161.429, 85.988 171.615 C 94.863 173.835, 111.086 173.062, 119.776 170.006 C 140.289 162.792, 157.085 143.616, 163.626 119.942 C 166.108 110.957, 166.108 89.043, 163.626 80.058 C 156.489 54.227, 137.544 34.331, 114.540 28.509 C 107.122 26.631, 92.297 26.662, 85 28.570 M 93 60.383 C 93 64.084, 92.650 64.860, 90.750 65.368 C 88.629 65.934, 86.668 64.505, 85.738 61.715 C 85.382 60.647, 83.249 61.589, 76.686 65.711 L 72.872 68.106 75.401 72.421 C 78.319 77.401, 77.909 78.522, 73.923 76.460 C 72.370 75.657, 70.895 75, 70.645 75 C 70.059 75, 64 85.720, 64 86.757 C 64 87.191, 65.575 88.393, 67.500 89.430 C 72.080 91.897, 71.925 93, 67 93 L 63 93 63 99.943 L 63 106.885 67.250 107.193 L 71.500 107.502 67.750 109.850 C 65.688 111.141, 64 112.581, 64 113.049 C 64 113.517, 65.476 116.350, 67.279 119.344 C 70.558 124.787, 70.559 124.787, 73.368 123.315 C 77.299 121.256, 77.854 122.463, 75.142 127.175 C 72.559 131.662, 72.501 131.546, 79.499 135.841 L 84.498 138.908 86.557 136.326 C 88.115 134.372, 89.150 133.913, 90.808 134.439 C 92.630 135.017, 93 135.884, 93 139.567 L 93 144 100 144 L 107 144 107 139.567 C 107 135.884, 107.370 135.017, 109.192 134.439 C 110.855 133.911, 111.889 134.377, 113.477 136.369 L 115.571 138.995 121.285 135.420 C 124.428 133.454, 127 131.632, 127 131.371 C 127 131.110, 125.995 129.150, 124.766 127.015 C 122.186 122.531, 122.769 121.147, 126.272 123.443 C 129.068 125.274, 129.071 125.272, 133.415 117.674 C 136.060 113.046, 136.098 112.790, 134.337 111.450 C 133.327 110.682, 131.713 109.786, 130.750 109.459 C 127.781 108.452, 128.814 107, 132.500 107 L 136 107 136 100 L 136 93 132.500 93 C 130.575 93, 129 92.621, 129 92.157 C 129 91.694, 130.575 90.467, 132.500 89.430 C 134.425 88.393, 136 87.365, 136 87.144 C 136 86.741, 129.991 75.887, 129.306 75.053 C 129.104 74.806, 127.602 75.394, 125.969 76.359 C 122.375 78.482, 122.007 77.019, 125 72.500 C 126.093 70.850, 126.981 69.050, 126.974 68.500 C 126.966 67.950, 124.418 66.013, 121.310 64.197 L 115.660 60.893 113.580 63.443 C 112.046 65.323, 110.909 65.832, 109.250 65.380 C 107.352 64.863, 107 64.081, 107 60.383 L 107 56 100 56 L 93 56 93 60.383 M 93.957 80.250 C 85.629 85.863, 82.677 102.067, 88.072 112.552 C 90.904 118.054, 95.885 122, 100 122 C 104.115 122, 109.096 118.054, 111.928 112.552 C 115.527 105.557, 115.511 94.668, 111.890 87.500 C 109.090 81.958, 104.136 78, 100 78 C 98.513 78, 95.793 79.013, 93.957 80.250" stroke="none" fill="black" fill-rule="evenodd"/>
</svg>