<svg xmlns="http://www.w3.org/2000/svg" width="200" height="200" viewBox="0 0 200 200" version="1.1">
	<path d="M 81.500 28.164 C 78.314 29.922, 73.943 34.268, 72.411 37.200 C 70.722 40.433, 70.553 49.262, 72.122 52.316 C 73.781 55.545, 78.126 59.983, 81.200 61.589 C 82.686 62.365, 85.948 63, 88.450 63 L 93 63 93 70.911 L 93 78.822 88.519 80.991 C 68.026 90.911, 49 129.734, 49 161.631 C 49 173.946, 44.757 173, 100 173 C 155.514 173, 151 174.070, 151 160.907 C 151 129.533, 131.626 90.565, 111.269 80.996 L 107 78.990 107 70.995 L 107 63 111.662 63 C 117.742 63, 123.805 59.471, 126.761 54.212 C 129.378 49.555, 129.776 41.386, 127.589 37.200 C 125.983 34.126, 121.545 29.781, 118.316 28.122 C 115.177 26.510, 106.403 26.740, 102.950 28.526 C 100.306 29.893, 99.694 29.893, 97.050 28.526 C 93.640 26.763, 84.429 26.549, 81.500 28.164 M 86.667 42.667 C 85.394 43.940, 86.009 47.789, 87.582 48.393 C 89.699 49.205, 89.636 49.221, 91.427 47.431 C 92.611 46.246, 92.743 45.388, 91.963 43.931 C 90.953 42.044, 87.995 41.338, 86.667 42.667 M 108.145 43.325 C 105.899 46.032, 109.095 49.668, 112.554 48.341 C 114.920 47.433, 114.016 42.574, 111.412 42.202 C 110.264 42.038, 108.794 42.543, 108.145 43.325" stroke="none" fill="black" fill-rule="evenodd"/>
</svg>