<svg xmlns="http://www.w3.org/2000/svg" width="200" height="200" viewBox="0 0 200 200" version="1.1">
	<path d="M 83 29 C 81.823 30.177, 80.998 32.337, 80.996 34.250 C 80.993 37.242, 80.469 37.771, 74.404 40.907 C 62.046 47.297, 49.937 62.030, 45.150 76.500 C 36.472 102.735, 43.251 131.932, 62.278 150.266 C 72.092 159.723, 87.005 166, 99.661 166 C 103.393 166, 104.188 166.365, 104.977 168.439 C 107.802 175.869, 118.995 173.723, 119.004 165.750 C 119.007 162.763, 119.533 162.228, 125.502 159.142 C 147.533 147.750, 161.548 118.829, 158.093 91.888 C 153.953 59.606, 131.778 36.298, 103.293 34.288 C 96.200 33.788, 95 33.443, 95 31.908 C 95 27.476, 86.568 25.432, 83 29 M 104.347 64.496 C 99.356 66.595, 98.500 71.591, 102.455 75.545 C 107.179 80.270, 114 77.380, 114 70.655 C 114 65.262, 109.442 62.354, 104.347 64.496 M 87.488 95.013 C 83.282 99.660, 86.681 107, 93.038 107 C 96.088 107, 100 103.067, 100 100 C 100 99.048, 99.067 97.084, 97.927 95.635 C 95.334 92.338, 90.187 92.031, 87.488 95.013 M 117 95 C 115.889 96.111, 115 98.333, 115 100 C 115 101.667, 115.889 103.889, 117 105 C 118.111 106.111, 120.333 107, 122 107 C 123.667 107, 125.889 106.111, 127 105 C 128.111 103.889, 129 101.667, 129 100 C 129 98.333, 128.111 96.111, 127 95 C 125.889 93.889, 123.667 93, 122 93 C 120.333 93, 118.111 93.889, 117 95" stroke="none" fill="black" fill-rule="evenodd"/>
</svg>