<svg xmlns="http://www.w3.org/2000/svg" width="200" height="200" viewBox="0 0 200 200" version="1.1">
	<path d="M 71.217 28.449 C 55.166 32.336, 40.564 44.130, 33.258 59.110 C 28.468 68.930, 27 75.200, 27 85.839 C 27 100.645, 32.207 113.677, 42.581 124.838 C 49.467 132.246, 56.657 136.990, 66.758 140.791 C 72.397 142.912, 75.300 143.341, 84.500 143.414 C 97.323 143.514, 105.714 141.368, 115.446 135.497 L 121.392 131.910 141.955 152.455 C 160.242 170.727, 162.876 173, 165.759 173 C 169.950 173, 173 169.969, 173 165.804 C 173 162.983, 170.592 160.191, 152.463 141.987 L 131.926 121.365 135.499 115.432 C 140.001 107.959, 142.983 98.516, 143.699 89.471 C 145.882 61.877, 126.748 35.468, 99.540 28.522 C 92.429 26.706, 78.562 26.671, 71.217 28.449 M 75.772 51.673 C 71.904 59.939, 70.857 71.199, 73.292 78.345 L 74.832 82.863 71.767 83.931 C 66.721 85.690, 60.581 85.245, 57.604 82.903 L 54.938 80.806 49.469 84.936 C 46.461 87.207, 44 89.477, 44 89.982 C 44 91.340, 50.040 95.700, 54.554 97.598 C 59.896 99.844, 70.041 99.644, 77.163 97.150 L 82.827 95.167 84.093 98.225 C 86.142 103.172, 85.820 110.420, 83.408 113.654 L 81.316 116.458 85.267 121.479 C 87.440 124.241, 89.567 126.633, 89.993 126.795 C 91.538 127.382, 97.794 118.807, 99.023 114.419 C 100.618 108.721, 99.772 99.033, 97.084 92.212 L 95.060 87.078 98.699 86.073 C 102.697 84.969, 109.173 86.004, 114.052 88.527 C 115.619 89.337, 117.318 90, 117.829 90 C 118.339 90, 120.490 87.483, 122.609 84.406 C 126.327 79.007, 126.395 78.762, 124.541 77.406 C 120.957 74.785, 111.529 71.844, 105.001 71.310 C 100.103 70.909, 97.093 71.257, 92.792 72.720 C 88.012 74.346, 86.996 74.432, 86.542 73.249 C 85.369 70.193, 86.162 64.222, 88.493 58.552 C 89.837 55.281, 90.839 52.553, 90.719 52.490 C 90.598 52.427, 88.190 50.717, 85.366 48.688 C 82.542 46.660, 79.931 45, 79.563 45 C 79.196 45, 77.490 48.003, 75.772 51.673" stroke="none" fill="black" fill-rule="evenodd"/>
</svg>