<svg xmlns="http://www.w3.org/2000/svg" width="200" height="200" viewBox="0 0 200 200" version="1.1">
	<path d="M 94.655 28.829 C 93.368 30.251, 93 32.698, 93 39.829 L 93 49 100 49 L 107 49 107 39.557 C 107 30.932, 106.807 29.978, 104.777 28.557 C 101.766 26.448, 96.686 26.584, 94.655 28.829 M 83.834 57.567 C 56.585 62.497, 35.113 79.742, 28.595 101.932 C 26.375 109.490, 26.544 121.314, 28.985 129.217 C 35.639 150.760, 60.949 169.762, 86.536 172.423 L 92.500 173.043 88.500 171.261 C 80.685 167.779, 78.253 166.041, 72.504 159.831 C 59.403 145.681, 53.649 123.695, 57.406 102.142 C 59.330 91.102, 61.748 84.927, 67.738 75.759 C 72.855 67.926, 78.354 63.101, 86.320 59.454 C 89.444 58.024, 92 56.661, 92 56.427 C 92 56.192, 91.888 56.040, 91.750 56.090 C 91.612 56.139, 88.051 56.804, 83.834 57.567 M 112.911 59.049 C 121.634 63.095, 127.037 67.760, 132.262 75.759 C 138.252 84.927, 140.670 91.102, 142.594 102.142 C 146.351 123.695, 140.597 145.681, 127.496 159.831 C 121.747 166.041, 119.315 167.779, 111.500 171.261 L 107.500 173.043 113.464 172.423 C 139.051 169.762, 164.361 150.760, 171.015 129.217 C 178.759 104.144, 165.451 78.446, 137.322 64.156 C 132.139 61.522, 118.177 57.478, 111.500 56.677 L 106.500 56.076 112.911 59.049 M 89.500 73.849 C 82.257 78.272, 75.330 88.798, 72.492 99.693 C 70.627 106.852, 70.577 122.822, 72.398 129.661 C 74.507 137.582, 78.379 145.307, 82.560 149.935 C 86.136 153.893, 91.686 157.648, 92.604 156.729 C 92.834 156.500, 92.905 137.345, 92.761 114.164 L 92.500 72.017 89.500 73.849 M 107 114.474 C 107 137.863, 107.338 156.998, 107.750 156.996 C 109.647 156.987, 115.020 152.812, 118.323 148.781 C 125.460 140.072, 128.971 128.999, 128.988 115.144 C 129.007 100.012, 124.999 88.294, 116.739 79.333 C 114.465 76.865, 111.343 74.194, 109.802 73.398 L 107 71.949 107 114.474" stroke="none" fill="black" fill-rule="evenodd"/>
</svg>