<svg xmlns="http://www.w3.org/2000/svg" width="200" height="200" viewBox="0 0 200 200" version="1.1">
	<path d="M 71 34.500 L 71 42 74.500 42 L 78 42 78 60.540 L 78 79.079 70.449 88.467 L 62.898 97.855 63.199 130.678 C 63.613 175.870, 61.118 173, 100 173 C 128.800 173, 129.862 172.806, 134.171 166.765 C 136.480 163.529, 136.503 163.213, 136.801 130.678 L 137.102 97.855 129.551 88.467 L 122 79.079 122 60.540 L 122 42 125.500 42 L 129 42 129 34.500 L 129 27 100 27 L 71 27 71 34.500 M 93 63.040 L 93 84.079 85.500 93.404 C 78.157 102.533, 78 102.846, 78 108.364 L 78 114 100 114 L 122 114 122 108.364 C 122 102.846, 121.843 102.533, 114.500 93.404 L 107 84.079 107 63.040 L 107 42 100 42 L 93 42 93 63.040" stroke="none" fill="black" fill-rule="evenodd"/>
</svg>