<svg xmlns="http://www.w3.org/2000/svg" width="200" height="200" viewBox="0 0 200 200" version="1.1">
	<path d="M 69.898 29.270 C 64.244 33.047, 63.003 36.823, 63.002 50.263 L 63 62.027 56 76 L 49 89.973 49 129.487 C 49 167.667, 49.067 169.067, 51 171 C 52.944 172.944, 54.333 173, 100.345 173 C 147.210 173, 147.709 172.979, 149.595 170.895 C 151.400 168.900, 151.500 166.735, 151.500 129.645 L 151.500 90.500 144.250 76.263 L 137 62.027 136.998 50.263 C 136.997 36.823, 135.756 33.047, 130.102 29.270 C 126.781 27.052, 126.098 27, 100 27 C 73.902 27, 73.219 27.052, 69.898 29.270 M 78 49 L 78 56 100 56 L 122 56 122 49 L 122 42 100 42 L 78 42 78 49 M 72.215 77.519 C 70.447 81.104, 69 84.254, 69 84.519 C 69 84.784, 82.950 85, 100 85 C 117.050 85, 131 84.784, 131 84.519 C 131 84.254, 129.553 81.104, 127.785 77.519 L 124.571 71 100 71 L 75.429 71 72.215 77.519 M 64 129 L 64 158 100 158 L 136 158 136 129 L 136 100 100 100 L 64 100 64 129" stroke="none" fill="black" fill-rule="evenodd"/>
</svg>