<svg xmlns="http://www.w3.org/2000/svg" width="200" height="200" viewBox="0 0 200 200" version="1.1">
	<path d="M 132.500 56 L 104.513 84 65.622 84 L 26.730 84 27.250 96.250 C 27.802 109.277, 30.439 119.919, 35.736 130.500 C 42.689 144.390, 55.058 157.206, 68.017 163.948 C 107.981 184.739, 154.234 163.724, 169.145 118 C 171.693 110.190, 172.335 106.321, 172.757 96.250 L 173.270 84 149.393 84 L 125.516 84 148.485 61.015 L 171.454 38.030 166.515 33.015 C 163.798 30.257, 161.330 28, 161.031 28 C 160.732 28, 147.893 40.600, 132.500 56 M 42 100.888 C 42 104.943, 47.305 120.829, 50.720 127 C 55.266 135.216, 66.627 146.509, 74.581 150.719 C 100.112 164.231, 130.473 155.719, 146.991 130.417 C 151.564 123.412, 156.134 111.581, 157.486 103.250 L 158.176 99 100.088 99 C 43.814 99, 42 99.059, 42 100.888" stroke="none" fill="black" fill-rule="evenodd"/>
</svg>