<svg xmlns="http://www.w3.org/2000/svg" width="200" height="200" viewBox="0 0 200 200" version="1.1">
	<path d="M 85.124 28.578 C 72.844 31.880, 57.894 42.355, 52 51.784 C 50.005 54.975, 48.459 56.113, 44.351 57.411 C 38.252 59.339, 31.692 65.263, 28.936 71.332 C 24.211 81.739, 27.916 95.098, 37.500 102.210 L 42.500 105.921 49.906 139.460 L 57.313 173 99.993 173 L 142.674 173 149.972 139.750 C 155.697 113.668, 157.688 106.177, 159.206 105 C 166.084 99.671, 168.584 96.941, 170.649 92.507 C 173.199 87.030, 173.792 78.243, 171.944 73.315 C 169.078 65.673, 162.316 59.383, 154.400 56.993 C 151.564 56.136, 149.818 54.717, 148 51.787 C 142.128 42.327, 126.902 31.772, 114.448 28.528 C 107.134 26.624, 92.297 26.648, 85.124 28.578 M 58.492 109.250 C 59.679 114.285, 69 157.129, 69 157.548 C 69 157.797, 82.875 158, 99.833 158 L 130.666 158 135.899 134.250 C 138.777 121.188, 141.357 109.713, 141.633 108.750 C 142.105 107.103, 139.655 107, 100.048 107 L 57.962 107 58.492 109.250 M 80 117 C 78.190 118.810, 78 120.333, 78 133 C 78 145.667, 78.190 147.190, 80 149 C 82.978 151.978, 88.330 151.667, 90.927 148.365 C 92.778 146.013, 93 144.365, 93 133 C 93 121.635, 92.778 119.987, 90.927 117.635 C 88.330 114.333, 82.978 114.022, 80 117 M 109.073 117.635 C 107.222 119.987, 107 121.635, 107 133 C 107 144.365, 107.222 146.013, 109.073 148.365 C 111.750 151.769, 117.005 151.984, 119.961 148.811 C 121.809 146.828, 122 145.329, 122 132.811 C 122 120.333, 121.807 118.807, 120 117 C 117.022 114.022, 111.670 114.333, 109.073 117.635" stroke="none" fill="black" fill-rule="evenodd"/>
</svg>