<svg xmlns="http://www.w3.org/2000/svg" width="200" height="200" viewBox="0 0 200 200" version="1.1">
	<path d="M 81.112 28.990 C 59.945 34.691, 43.591 47.831, 34.429 66.500 C 24.762 86.197, 24.499 99.075, 33.641 105.102 C 36.170 106.770, 38.547 106.988, 54.250 106.993 C 69.981 106.999, 72 107.185, 72 108.629 C 72 109.524, 70.102 114.587, 67.782 119.879 C 63.921 128.683, 63.561 130.221, 63.541 138 C 63.524 144.655, 63.994 147.531, 65.704 151.251 C 68.748 157.872, 77.181 166.447, 83.888 169.743 C 88.932 172.221, 90.562 172.500, 100 172.500 C 109.492 172.500, 111.051 172.229, 116.239 169.682 C 123.563 166.085, 130.625 159.024, 133.919 152.002 C 136.099 147.355, 136.498 145.101, 136.490 137.500 C 136.480 128.920, 136.282 128.106, 132.240 120.048 C 129.908 115.400, 128 110.562, 128 109.298 L 128 107 145.750 106.993 C 161.453 106.988, 163.830 106.770, 166.359 105.102 C 173.338 100.501, 174.638 93.372, 170.935 80.007 C 167.484 67.556, 161.651 57.578, 152.514 48.500 C 143.159 39.205, 136.431 34.965, 124.261 30.696 C 116.445 27.955, 114.045 27.590, 102 27.312 C 90.964 27.057, 87.152 27.363, 81.112 28.990 M 95.635 58.073 C 90.506 62.107, 93.435 70.333, 100 70.333 C 106.565 70.333, 109.494 62.107, 104.365 58.073 C 102.916 56.933, 100.952 56, 100 56 C 99.048 56, 97.084 56.933, 95.635 58.073 M 65.655 65.829 C 63.378 68.345, 63.555 73.555, 66 76 C 68.703 78.703, 72.572 78.518, 75.545 75.545 C 78.518 72.572, 78.703 68.703, 76 66 C 73.446 63.446, 67.894 63.355, 65.655 65.829 M 124 66 C 121.297 68.703, 121.482 72.572, 124.455 75.545 C 127.428 78.518, 131.297 78.703, 134 76 C 136.554 73.446, 136.645 67.894, 134.171 65.655 C 131.655 63.378, 126.445 63.555, 124 66" stroke="none" fill="black" fill-rule="evenodd"/>
</svg>