<svg xmlns="http://www.w3.org/2000/svg" width="200" height="200" viewBox="0 0 200 200" version="1.1">
	<path d="M 78 37.826 C 78 50.393, 77.478 51.290, 68 55.007 C 49.149 62.400, 34.012 78.505, 28.596 96.932 C 26.523 103.986, 26.523 118.014, 28.596 125.068 C 34.005 143.473, 48.646 159.019, 68.138 167.057 C 79.516 171.749, 89.399 173.327, 103.927 172.773 C 114.658 172.364, 117.890 171.823, 125.988 169.086 C 149.541 161.124, 166.183 144.754, 171.508 124.307 C 173.430 116.928, 173.414 105.009, 171.472 97.552 C 166.718 79.303, 151.142 62.514, 132 55.007 C 122.522 51.290, 122 50.393, 122 37.826 L 122 27 100 27 L 78 27 78 37.826 M 89.300 72.801 C 79.099 76.445, 72.235 82.876, 67.495 93.229 C 58.258 113.406, 66.816 138.930, 85.804 147.830 C 90.577 150.067, 92.878 150.500, 100 150.500 C 107.122 150.500, 109.423 150.067, 114.196 147.830 C 121.749 144.290, 128.430 137.425, 132.326 129.201 C 135.319 122.882, 135.500 121.844, 135.500 111 C 135.500 100.156, 135.319 99.118, 132.326 92.799 C 126.150 79.763, 115.046 72.008, 101.555 71.309 C 96.458 71.045, 93.057 71.459, 89.300 72.801 M 93.625 86.469 C 88.914 88.148, 83.571 93.112, 80.674 98.500 C 77.587 104.242, 77.596 117.756, 80.690 123.568 C 84.639 130.987, 93.274 136.989, 100 136.989 C 106.726 136.989, 115.361 130.987, 119.310 123.568 C 121.042 120.315, 121.476 117.798, 121.476 111 C 121.476 101.087, 119.635 96.614, 113.143 90.748 C 107.114 85.301, 100.791 83.915, 93.625 86.469 M 95.635 102.073 C 93.246 103.951, 93 104.786, 93 111 C 93 117.214, 93.246 118.049, 95.635 119.927 C 97.084 121.067, 99.048 122, 100 122 C 100.952 122, 102.916 121.067, 104.365 119.927 C 106.754 118.049, 107 117.214, 107 111 C 107 104.786, 106.754 103.951, 104.365 102.073 C 102.916 100.933, 100.952 100, 100 100 C 99.048 100, 97.084 100.933, 95.635 102.073" stroke="none" fill="black" fill-rule="evenodd"/>
</svg>