<svg xmlns="http://www.w3.org/2000/svg" width="200" height="200" viewBox="0 0 200 200" version="1.1">
	<path d="M 57.035 28.934 C 56.466 29.998, 56 34.031, 56 37.897 C 56 46.570, 58.837 54.707, 63.761 60.157 C 65.697 62.300, 67.105 64.170, 66.890 64.313 C 66.676 64.456, 63.971 66.209, 60.881 68.210 C 49.891 75.323, 41.365 86.079, 36.816 98.568 C 33.673 107.199, 33.677 122.028, 36.825 131.190 C 42.913 148.912, 58.220 163.342, 78 170.007 C 88.031 173.388, 105.945 173.907, 117.031 171.138 C 155.900 161.431, 176.117 124.003, 160.049 91.500 C 152.137 75.496, 135.175 62.623, 116.537 58.476 C 112.392 57.554, 109 56.597, 109 56.350 C 109 56.103, 109.652 54.640, 110.449 53.099 C 113.571 47.062, 121.847 42.023, 128.668 42.006 C 132.226 41.996, 133.988 40.924, 135.616 37.776 C 136.859 35.372, 136.932 34.250, 135.993 31.983 C 132.323 23.122, 112.998 27.450, 102.215 39.548 L 97.345 45.012 94.198 40.156 C 88.423 31.244, 79.459 27, 66.409 27 C 59.188 27, 57.932 27.259, 57.035 28.934 M 116.655 80.829 C 114.075 83.680, 114.542 88.494, 117.635 90.927 C 121.095 93.649, 123.547 93.544, 126.545 90.545 C 129.364 87.727, 129.682 84.419, 127.443 81.223 C 125.440 78.363, 119.096 78.131, 116.655 80.829 M 132.153 94.750 C 127.001 99.110, 129.800 107, 136.500 107 C 140.786 107, 144.418 102.880, 143.514 99.043 C 142.758 95.836, 139.467 93, 136.500 93 C 135.247 93, 133.291 93.787, 132.153 94.750 M 111.303 101.197 C 106.171 103.676, 106.577 111.754, 111.946 113.978 C 120.072 117.343, 125.738 105.501, 117.932 101.465 C 114.670 99.778, 114.273 99.762, 111.303 101.197" stroke="none" fill="black" fill-rule="evenodd"/>
</svg>