<svg xmlns="http://www.w3.org/2000/svg" width="200" height="200" viewBox="0 0 200 200" version="1.1">
	<path d="M 116.500 28.402 C 105.407 31.920, 94.581 41.092, 90.079 50.786 L 87.658 56 81.298 56 C 64.488 56, 49.386 66.652, 40.891 84.500 C 28.936 109.617, 33.027 140.265, 50.866 159.223 C 59.404 168.297, 67.129 172.165, 77.970 172.792 C 83.637 173.120, 87.316 172.772, 91.244 171.537 C 96.266 169.957, 97.085 169.948, 102.021 171.414 C 104.959 172.286, 110.609 173, 114.576 173 C 153.812 173, 178.249 125.511, 159.323 86.043 C 156.604 80.373, 153.819 76.632, 148.103 70.975 C 136.638 59.627, 125.592 55.213, 111.359 56.289 C 107.311 56.595, 104 56.511, 104 56.103 C 104 55.694, 105.576 53.519, 107.503 51.268 C 111.795 46.254, 117.775 43.247, 126.134 41.901 C 129.622 41.339, 133.268 40.162, 134.238 39.285 C 136.647 37.105, 136.517 31.517, 134 29 C 131.631 26.631, 123.013 26.337, 116.500 28.402 M 70.500 73.358 C 50.613 82.660, 42.837 115.412, 54.742 139.726 C 59.674 149.798, 69.774 157.921, 77.437 157.978 L 80.374 158 77.793 155.250 C 70.335 147.303, 64.385 132.228, 63.435 118.868 C 62.370 103.900, 67.251 87.593, 76.341 75.750 C 79.796 71.248, 79.870 71.001, 77.743 71.010 C 76.510 71.015, 73.250 72.072, 70.500 73.358" stroke="none" fill="black" fill-rule="evenodd"/>
</svg>