<svg xmlns="http://www.w3.org/2000/svg" width="200" height="200" viewBox="0 0 200 200" version="1.1">
	<path d="M 120 28.833 C 102.588 34.641, 89.917 45.899, 82.050 62.551 C 77.748 71.655, 72.311 77.179, 63.239 81.661 C 44.874 90.736, 33.675 103.552, 28.472 121.447 C 25.955 130.106, 26.746 143.657, 30.208 151.175 C 33.834 159.050, 40.004 165.384, 47.776 169.210 C 53.348 171.954, 55.636 172.479, 63.504 172.823 C 86.671 173.836, 106.445 160.832, 118.339 136.761 C 122.820 127.690, 128.587 122.006, 137.295 118.074 C 149.917 112.376, 160.954 101.932, 167.019 89.948 C 171.802 80.497, 173.273 73.794, 172.823 63.504 C 172.479 55.636, 171.954 53.348, 169.210 47.776 C 165.387 40.010, 159.058 33.842, 151.175 30.197 C 143.588 26.690, 128.416 26.026, 120 28.833 M 115 71 L 115 78 122 78 L 129 78 129 71 L 129 64 122 64 L 115 64 115 71 M 93 100 L 93 107 100 107 L 107 107 107 100 L 107 93 100 93 L 93 93 93 100 M 64 129 L 64 136 71 136 L 78 136 78 129 L 78 122 71 122 L 64 122 64 129" stroke="none" fill="black" fill-rule="evenodd"/>
</svg>