<svg xmlns="http://www.w3.org/2000/svg" width="200" height="200" viewBox="0 0 200 200" version="1.1">
	<path d="M 111.027 28.737 C 105.069 30.839, 96.576 39.346, 94.922 44.867 C 93.805 48.595, 93.056 49.312, 87.825 51.659 C 81.437 54.526, 75.694 60.127, 73.262 65.860 C 72.414 67.862, 71.345 73.456, 70.889 78.290 C 69.896 88.791, 67.639 94.316, 61.488 101.299 C 58.968 104.160, 55.240 109.850, 53.203 113.945 C 49.605 121.181, 49.500 121.703, 49.500 132.445 C 49.500 142.251, 49.792 144.121, 52.086 149 C 59.305 164.351, 76.572 173, 100 173 C 123.453 173, 140.117 164.642, 147.782 149.033 C 150.242 144.026, 150.500 142.449, 150.500 132.445 C 150.500 121.688, 150.400 121.191, 146.780 113.945 C 144.734 109.850, 140.728 103.800, 137.879 100.500 C 131.226 92.795, 129.900 89.491, 129.049 78.500 C 128.624 73.021, 127.606 67.935, 126.447 65.500 C 124.046 60.460, 117.639 53.998, 112.742 51.678 C 109.489 50.138, 109.124 49.636, 110.027 47.949 C 111.572 45.063, 115.470 42.841, 120.704 41.863 C 123.258 41.386, 126.169 40.252, 127.174 39.343 C 129.613 37.135, 129.612 30.863, 127.171 28.655 C 124.841 26.546, 117.123 26.585, 111.027 28.737 M 92.500 101.504 C 84.795 104.231, 78.023 113.865, 78.006 122.124 C 77.996 126.728, 80.971 133.382, 84.788 137.293 C 92.825 145.528, 105.956 145.769, 114.558 137.839 C 124.143 129.004, 124.384 116.110, 115.137 106.863 C 108.526 100.252, 101.043 98.480, 92.500 101.504 M 94.655 116.829 C 92.418 119.300, 92.517 125.253, 94.829 127.345 C 97.300 129.582, 103.253 129.483, 105.345 127.171 C 107.582 124.700, 107.483 118.747, 105.171 116.655 C 102.700 114.418, 96.747 114.517, 94.655 116.829" stroke="none" fill="black" fill-rule="evenodd"/>
</svg>