<svg xmlns="http://www.w3.org/2000/svg" width="200" height="200" viewBox="0 0 200 200" version="1.1">
	<path d="M 87.979 29.750 C 85.021 31.262, 81.228 34.231, 79.550 36.347 C 76.675 39.973, 76.516 40.628, 76.786 47.772 C 77.532 67.566, 72.825 93.205, 65.218 110.778 C 58.571 126.132, 51.676 136.260, 39.657 148.319 L 28.813 159.199 32.157 162.093 C 33.996 163.684, 38.852 166.677, 42.948 168.743 C 50.217 172.410, 50.662 172.500, 61.448 172.500 C 71.740 172.500, 72.947 172.287, 79 169.402 C 88.314 164.964, 95.631 158.539, 102.717 148.577 C 114.585 131.892, 124.704 109.020, 128.632 90 C 130.794 79.534, 131.044 58.559, 129.134 48 C 127.886 41.101, 127.396 40.129, 123.016 35.869 C 113.736 26.844, 98.775 24.231, 87.979 29.750 M 101 66 C 96.741 70.259, 99.854 78, 105.826 78 C 109.296 78, 113 74.314, 113 70.860 C 113 65.184, 105.040 61.960, 101 66 M 94.153 94.750 C 89.001 99.110, 91.800 107, 98.500 107 C 102.786 107, 106.418 102.880, 105.514 99.043 C 104.758 95.836, 101.467 93, 98.500 93 C 97.247 93, 95.291 93.787, 94.153 94.750 M 79.635 124.073 C 74.304 128.266, 77.287 136.333, 84.169 136.333 C 90.419 136.333, 93.113 129.022, 88.545 124.455 C 85.547 121.456, 83.095 121.351, 79.635 124.073 M 159.635 124.073 C 156.190 126.782, 156.114 131.205, 159.455 134.545 C 163.319 138.410, 168.069 137.701, 170.558 132.887 C 174.435 125.391, 166.302 118.828, 159.635 124.073 M 64.455 146.455 C 61.535 149.375, 61.309 152.925, 63.844 156.056 C 67.724 160.847, 76.015 157.801, 75.985 151.595 C 75.967 147.940, 75.260 146.700, 72.316 145.150 C 69.045 143.428, 67.170 143.739, 64.455 146.455 M 144.455 146.455 C 141.732 149.177, 141.467 150.735, 143.110 154.343 C 144.223 156.784, 147.783 159, 150.593 159 C 153.140 159, 157 154.313, 157 151.220 C 157 147.618, 153.312 144, 149.640 144 C 148.074 144, 145.862 145.047, 144.455 146.455 M 117.315 152.007 C 112.828 153.815, 111.771 159.168, 115.073 163.365 C 117.782 166.810, 122.205 166.886, 125.545 163.545 C 129.396 159.694, 128.701 154.931, 123.928 152.463 C 120.731 150.810, 120.352 150.784, 117.315 152.007" stroke="none" fill="black" fill-rule="evenodd"/>
</svg>