<svg xmlns="http://www.w3.org/2000/svg" width="200" height="200" viewBox="0 0 200 200" version="1.1">
	<path d="M 123.487 28.799 C 111.600 32.909, 102.057 41.380, 96.901 52.397 L 93.933 58.741 90.216 57.414 C 78.460 53.217, 63.812 58.717, 58.533 69.309 C 57.140 72.105, 56 74.920, 56 75.564 C 56 76.208, 52.963 79.832, 49.250 83.617 C 36.265 96.857, 31.333 113.340, 35.531 129.458 C 40.288 147.720, 55.546 162.717, 76.500 169.728 C 83.801 172.170, 85.854 172.404, 100 172.404 C 114.146 172.404, 116.199 172.170, 123.500 169.728 C 158.958 157.865, 175.612 124.241, 160.217 95.594 C 158.723 92.813, 154.463 87.432, 150.750 83.636 C 147.037 79.840, 144 76.208, 144 75.564 C 144 74.920, 142.846 72.078, 141.437 69.249 C 137.114 60.575, 126.988 55.339, 116.258 56.229 C 113.366 56.468, 111 56.505, 111 56.310 C 111 56.115, 112.892 53.902, 115.205 51.393 C 120.140 46.040, 125.555 43.040, 131.920 42.133 L 136.500 41.481 136.794 34.241 L 137.088 27 132.794 27.033 C 130.432 27.051, 126.244 27.845, 123.487 28.799 M 74.819 72.479 C 69.768 75.329, 69.977 80.903, 75.236 83.622 C 79.139 85.640, 87.214 85.022, 90.010 82.491 C 92.571 80.173, 92.559 75.816, 89.985 73.486 C 87.278 71.037, 78.416 70.448, 74.819 72.479 M 112.308 72.010 C 111.103 72.495, 109.364 74.042, 108.443 75.446 C 106.881 77.831, 106.880 78.169, 108.437 80.545 C 113.857 88.817, 131.310 84.853, 128.497 75.989 C 127.193 71.883, 118.145 69.659, 112.308 72.010" stroke="none" fill="black" fill-rule="evenodd"/>
</svg>