<svg xmlns="http://www.w3.org/2000/svg" width="200" height="200" viewBox="0 0 200 200" version="1.1">
	<path d="M 126.140 31.440 C 122.459 37.245, 120.614 44.631, 121.234 51.082 C 121.738 56.326, 121.542 56.537, 117.565 55.025 L 115 54.050 115 69.525 L 115 85 130.430 85 L 145.860 85 144.930 81.757 C 144.419 79.973, 144 78.419, 144 78.304 C 144 78.188, 146.200 78.355, 148.890 78.673 C 155.203 79.421, 162.669 77.596, 168.549 73.867 C 173.167 70.938, 173.200 70.879, 171.361 68.845 C 168.434 65.608, 162.223 62.879, 156.424 62.280 L 151.103 61.731 153.522 58.560 C 156.757 54.318, 159.755 47.297, 160.166 43 C 160.495 39.550, 160.450 39.505, 157 39.834 C 152.655 40.249, 145.669 43.252, 141.305 46.581 L 138 49.102 138 45.588 C 138 40.785, 134.503 31.822, 131.545 29.043 L 129.111 26.756 126.140 31.440 M 91.412 54.484 C 88.064 55.212, 82.214 57.101, 78.412 58.681 L 71.500 61.553 71.218 73.277 L 70.937 85 85.468 85 L 100 85 100 69 C 100 56.824, 99.701 53.019, 98.750 53.079 C 98.063 53.123, 94.761 53.755, 91.412 54.484 M 49.500 79 L 43.563 85 49.781 85 L 56 85 56 79 C 56 75.700, 55.873 73, 55.719 73 C 55.564 73, 52.766 75.700, 49.500 79 M 32.209 104.750 C 29.486 111.101, 27 120.953, 27 125.394 L 27 129 41.500 129 L 56 129 56 114.500 L 56 100 45.123 100 L 34.246 100 32.209 104.750 M 71 114.500 L 71 129 85.500 129 L 100 129 100 114.500 L 100 100 85.500 100 L 71 100 71 114.500 M 115 114.500 L 115 129 126.480 129 L 137.959 129 139.879 125.238 C 141.987 121.105, 145.507 109.637, 146.475 103.750 L 147.091 100 131.045 100 L 115 100 115 114.500 M 29 145.011 C 29 147.467, 33.611 155.464, 37.562 159.857 C 41.441 164.173, 52.059 171, 54.890 171 C 55.649 171, 56 166.725, 56 157.500 L 56 144 42.500 144 C 34.070 144, 29 144.380, 29 145.011 M 71 158.500 L 71 173 73.951 173 C 78.524 173, 86.876 171.006, 93.750 168.272 L 100 165.787 100 154.894 L 100 144 85.500 144 L 71 144 71 158.500 M 114 149.500 C 114 153.311, 114.394 155, 115.284 155 C 115.990 155, 119.013 152.525, 122 149.500 L 127.432 144 120.716 144 L 114 144 114 149.500" stroke="none" fill="black" fill-rule="evenodd"/>
</svg>