<svg xmlns="http://www.w3.org/2000/svg" width="200" height="200" viewBox="0 0 200 200" version="1.1">
	<path d="M 158 41.500 L 158 56 165.500 56 L 173 56 173 41.500 L 173 27 165.500 27 L 158 27 158 41.500 M 87 31.141 C 77.671 32.809, 77.919 32.640, 78.592 36.847 C 79.198 40.639, 79.184 40.658, 74.350 42.488 C 50.484 51.523, 33.084 77.160, 33.017 103.385 C 32.997 111.535, 34.934 123, 36.332 123 C 37.952 123, 164.465 98.768, 164.913 98.372 C 165.971 97.437, 160.643 79.702, 157.290 73 C 151.803 62.032, 140.285 50.708, 128.988 45.176 C 118.445 40.014, 110.686 38, 101.335 38 L 94.091 38 93.432 34.489 C 93.070 32.558, 92.487 30.834, 92.137 30.657 C 91.786 30.481, 89.475 30.698, 87 31.141 M 27 152.352 L 27 160.705 31.708 166.852 L 36.416 173 100 173 L 163.584 173 168.292 166.852 L 173 160.705 173 152.352 L 173 144 100 144 L 27 144 27 152.352" stroke="none" fill="black" fill-rule="evenodd"/>
</svg>