<svg xmlns="http://www.w3.org/2000/svg" width="200" height="200" viewBox="0 0 200 200" version="1.1">
	<path d="M 82.500 28.821 C 55.323 35.757, 34.509 57.157, 28.492 84.348 C 27.187 90.248, 26.877 94.963, 27.246 103.348 C 28.115 123.126, 34.428 137.427, 48.500 151.500 C 57.609 160.609, 65.965 165.864, 77.500 169.738 C 84.719 172.162, 86.916 172.425, 100 172.425 C 113.084 172.425, 115.281 172.162, 122.500 169.738 C 134.035 165.864, 142.391 160.609, 151.500 151.500 C 160.609 142.391, 165.864 134.035, 169.738 122.500 C 172.162 115.281, 172.425 113.084, 172.425 100 C 172.425 86.916, 172.162 84.719, 169.738 77.500 C 165.864 65.965, 160.609 57.609, 151.500 48.500 C 136.893 33.893, 122.938 27.937, 102 27.371 C 92.402 27.112, 87.875 27.449, 82.500 28.821 M 85 43.579 C 75.091 46.187, 67.010 50.976, 58.993 58.993 C 47.185 70.801, 42 83.313, 42 100 C 42 116.687, 47.185 129.199, 58.993 141.007 C 70.801 152.815, 83.313 158, 100 158 C 116.568 158, 129.309 152.724, 141.017 141.017 C 152.724 129.309, 158 116.568, 158 100 C 158 83.313, 152.815 70.801, 141.007 58.993 C 132.844 50.830, 124.813 46.134, 114.540 43.518 C 107.114 41.627, 92.303 41.657, 85 43.579 M 89 57.360 C 81.340 59.445, 74.791 63.269, 69.030 69.020 C 47.221 90.789, 53.578 126.348, 81.678 139.765 C 89.174 143.345, 89.937 143.500, 100 143.500 C 110.045 143.500, 110.836 143.340, 118.247 139.801 C 128.399 134.953, 134.953 128.399, 139.801 118.247 C 143.340 110.836, 143.500 110.045, 143.500 100 C 143.500 89.937, 143.345 89.174, 139.765 81.678 C 130.445 62.159, 109.038 51.905, 89 57.360" stroke="none" fill="black" fill-rule="evenodd"/>
</svg>