<svg xmlns="http://www.w3.org/2000/svg" width="200" height="200" viewBox="0 0 200 200" version="1.1">
	<path d="M 65.073 29.635 C 63.163 32.063, 63 33.588, 63 49.050 L 63 65.830 58.012 69.491 C 35.047 86.349, 27.673 115.340, 40.229 139.407 C 44.880 148.322, 57.514 160.526, 67 165.266 C 87.797 175.659, 111.821 175.659, 132.942 165.264 C 138.494 162.532, 142.649 159.415, 148.599 153.522 C 157.345 144.859, 161.684 137.486, 164.478 126.540 C 169.690 106.125, 160.648 83.189, 141.988 69.491 L 137 65.830 137 49.050 C 137 33.588, 136.837 32.063, 134.927 29.635 C 133.391 27.681, 131.946 27, 129.339 27 C 126.445 27, 124.827 27.958, 120.176 32.427 L 114.529 37.855 108.839 32.427 C 101.161 25.104, 98.839 25.104, 91.161 32.427 L 85.471 37.855 79.824 32.427 C 75.173 27.958, 73.555 27, 70.661 27 C 68.054 27, 66.609 27.681, 65.073 29.635" stroke="none" fill="black" fill-rule="evenodd"/>
</svg>