<svg xmlns="http://www.w3.org/2000/svg" width="200" height="200" viewBox="0 0 200 200" version="1.1">
	<path d="M 51 29 C 46.508 33.492, 49.687 41.333, 56 41.333 C 57.636 41.333, 59.880 40.514, 60.987 39.512 C 63.608 37.140, 63.713 30.955, 61.171 28.655 C 58.655 26.378, 53.445 26.555, 51 29 M 80 29 C 76.500 32.500, 77.517 38.182, 82.065 40.534 C 85.452 42.285, 89.004 41.261, 91.399 37.841 C 93.532 34.796, 93.417 32.800, 90.927 29.635 C 88.330 26.333, 82.978 26.022, 80 29 M 109.073 29.635 C 106.583 32.800, 106.468 34.796, 108.601 37.841 C 110.996 41.261, 114.548 42.285, 117.935 40.534 C 124.926 36.918, 122.434 27, 114.534 27 C 112.064 27, 110.583 27.715, 109.073 29.635 M 138.488 29.013 C 134.336 33.601, 137.752 41.333, 143.932 41.333 C 150.307 41.333, 153.519 33.519, 149 29 C 146.350 26.350, 140.892 26.357, 138.488 29.013 M 36.039 51.189 C 33.443 53.975, 33.426 58.426, 36 61 C 39.250 64.250, 43.500 64.010, 46.750 60.393 C 49.546 57.281, 49.592 55.022, 46.927 51.635 C 44.250 48.231, 38.995 48.016, 36.039 51.189 M 65.073 51.635 C 62.408 55.022, 62.454 57.281, 65.250 60.393 C 69.997 65.676, 78 62.919, 78 56 C 78 49.313, 69.229 46.351, 65.073 51.635 M 94.655 50.829 C 92.418 53.300, 92.517 59.253, 94.829 61.345 C 97.300 63.582, 103.253 63.483, 105.345 61.171 C 107.582 58.700, 107.483 52.747, 105.171 50.655 C 102.700 48.418, 96.747 48.517, 94.655 50.829 M 124 51 C 122.889 52.111, 122 54.333, 122 56 C 122 62.919, 130.003 65.676, 134.750 60.393 C 137.546 57.281, 137.592 55.022, 134.927 51.635 C 132.330 48.333, 126.978 48.022, 124 51 M 153.073 51.635 C 150.408 55.022, 150.454 57.281, 153.250 60.393 C 157.925 65.596, 166 62.933, 166 56.189 C 166 49.454, 157.221 46.362, 153.073 51.635 M 27 71.995 C 27 72.577, 30.600 95.024, 35 121.876 C 39.400 148.729, 43 171.217, 43 171.850 C 43 172.640, 46.130 173, 53 173 C 62.721 173, 62.998 172.937, 62.940 170.750 C 62.907 169.512, 60.079 146.675, 56.655 120 L 50.429 71.500 38.714 71.218 C 30.963 71.032, 27 71.295, 27 71.995 M 65.472 74.250 C 66.001 77.303, 77 170.883, 77 172.329 C 77 172.698, 80.600 173, 85 173 L 93 173 93 122 L 93 71 78.955 71 L 64.909 71 65.472 74.250 M 107 122 L 107 173 115 173 C 119.996 173, 123 172.600, 123 171.934 C 123 170.368, 133.912 76.981, 134.473 73.750 L 134.950 71 120.975 71 L 107 71 107 122 M 149.546 72.250 C 149.049 73.838, 137 168.928, 137 171.263 C 137 172.796, 138.172 173, 147 173 C 154.360 173, 157 172.668, 157 171.744 C 157 171.053, 160.600 148.527, 165 121.687 C 169.400 94.847, 173 72.462, 173 71.943 C 173 70.433, 150.021 70.734, 149.546 72.250" stroke="none" fill="black" fill-rule="evenodd"/>
</svg>