<svg xmlns="http://www.w3.org/2000/svg" width="200" height="200" viewBox="0 0 200 200" version="1.1">
	<path d="M 87.879 28.610 C 77.510 32.199, 68.375 41.807, 65.027 52.647 C 63.182 58.622, 63 61.902, 63 89.204 C 63 114.518, 63.247 119.719, 64.586 122.540 C 67.229 128.110, 70.209 129.379, 81.692 129.826 L 91.883 130.223 92.192 149.586 C 92.485 167.977, 92.610 169.059, 94.694 171.141 C 96.012 172.457, 98.132 173.333, 100 173.333 C 101.868 173.333, 103.988 172.457, 105.306 171.141 C 107.390 169.059, 107.515 167.977, 107.808 149.589 L 108.117 130.228 117.808 129.808 C 129.137 129.317, 132.947 127.739, 135.428 122.510 C 136.939 119.327, 137.090 115.421, 136.795 87.216 C 136.478 56.920, 136.361 55.245, 134.178 49.798 C 131.154 42.254, 124.577 35.122, 116.813 30.968 C 111.192 27.961, 109.513 27.559, 101.500 27.300 C 95.192 27.097, 91.118 27.489, 87.879 28.610" stroke="none" fill="black" fill-rule="evenodd"/>
</svg>