<svg xmlns="http://www.w3.org/2000/svg" width="200" height="200" viewBox="0 0 200 200" version="1.1">
	<path d="M 89 35.431 C 79.218 38.153, 71.107 43.519, 65.335 51.088 C 62.102 55.327, 61.104 56.003, 58.045 56.022 C 47.096 56.090, 35.720 67.031, 34.342 78.818 C 33.648 84.757, 36.472 89, 41.118 89 C 44.847 89, 49 85.037, 49 81.480 C 49 72.951, 57.238 68.694, 66.364 72.508 L 69.973 74.016 72.823 67.758 C 76.521 59.637, 79.625 56.078, 86.167 52.454 C 90.901 49.832, 92.455 49.500, 100 49.500 C 107.545 49.500, 109.099 49.832, 113.833 52.454 C 120.366 56.073, 123.479 59.637, 127.155 67.709 L 129.982 73.917 134.117 72.459 C 138.968 70.747, 143.364 70.589, 146.055 72.030 C 148.498 73.337, 151 78.127, 151 81.496 C 151 84.985, 155.162 89, 158.780 89 C 160.536 89, 162.547 88.046, 163.957 86.545 C 165.886 84.493, 166.187 83.306, 165.800 79.295 C 164.578 66.644, 153.471 56, 141.491 56 C 138.909 56, 137.765 55.201, 135.165 51.581 C 125.359 37.926, 105.279 30.901, 89 35.431 M 28.557 95.223 C 24.677 100.761, 28.090 107, 35 107 C 37.200 107, 39 107.241, 39 107.537 C 39 107.832, 36.750 117.040, 34 128 C 28.341 150.551, 28.018 154.235, 31.270 159.102 C 36.034 166.234, 33.671 165.997, 100 165.997 C 166.329 165.997, 163.966 166.234, 168.730 159.102 C 171.982 154.235, 171.659 150.551, 166 128 C 163.250 117.040, 161 107.832, 161 107.537 C 161 107.241, 162.800 107, 165 107 C 171.910 107, 175.323 100.761, 171.443 95.223 L 169.887 93 100 93 L 30.113 93 28.557 95.223" stroke="none" fill="black" fill-rule="evenodd"/>
</svg>