<svg xmlns="http://www.w3.org/2000/svg" width="200" height="200" viewBox="0 0 200 200" version="1.1">
	<path d="M 59 35.544 C 46.930 38.903, 36.689 47.718, 30.749 59.859 C 27.568 66.362, 27.500 66.781, 27.520 80 C 27.536 91.016, 27.959 94.959, 29.817 101.432 C 33.142 113.017, 40.109 125.791, 47.429 133.722 L 53.684 140.500 51.361 148 C 50.083 152.125, 49.029 156.945, 49.019 158.711 C 48.982 164.924, 56.632 168.368, 60.928 164.072 C 61.989 163.011, 63.623 159.411, 64.560 156.072 C 65.497 152.732, 66.367 150, 66.493 150 C 66.620 150, 69.598 151.290, 73.112 152.867 C 82.550 157.102, 89.337 158.473, 100.500 158.401 C 111.414 158.330, 120.272 156.416, 128.145 152.426 C 130.779 151.092, 133.114 150, 133.335 150 C 133.556 150, 134.503 152.732, 135.440 156.072 C 136.377 159.411, 138.011 163.011, 139.072 164.072 C 141.611 166.611, 146.063 166.522, 148.902 163.876 C 151.568 161.393, 151.469 157.652, 148.452 146.867 L 146.597 140.234 150.758 135.867 C 156.888 129.434, 159.717 125.380, 164.075 116.785 C 170.552 104.011, 172.457 95.676, 172.480 80 C 172.500 66.781, 172.432 66.362, 169.251 59.859 C 163.188 47.466, 152.880 38.736, 140.540 35.542 C 127.852 32.259, 119.289 34.316, 107.184 43.553 L 99.868 49.137 94.189 44.461 C 82.452 34.799, 71.578 32.043, 59 35.544 M 61.703 50.442 C 52.897 53.583, 46.370 59.866, 43.520 67.944 C 40.051 77.776, 42.531 97.225, 48.838 109.644 C 52.769 117.385, 57.978 124.439, 58.967 123.362 C 59.403 122.888, 61.896 117.100, 64.508 110.500 C 70.315 95.827, 77.333 81.674, 84.736 69.706 L 90.318 60.682 85.909 56.906 C 77.088 49.350, 70.040 47.468, 61.703 50.442 M 121.500 51.907 C 118.750 53.568, 114.968 56.226, 113.096 57.813 L 109.693 60.699 115.270 69.715 C 122.668 81.674, 129.686 95.830, 135.492 110.500 C 138.104 117.100, 140.597 122.888, 141.033 123.362 C 142.022 124.439, 147.231 117.385, 151.162 109.644 C 157.504 97.155, 159.923 77.999, 156.446 67.795 C 153.120 58.035, 142.809 50.194, 132.179 49.342 C 127.188 48.942, 125.894 49.253, 121.500 51.907 M 95.333 80.750 C 89.168 90.832, 83.868 101.897, 77.731 117.500 C 70.096 136.910, 70.336 135.310, 74.743 137.434 C 86.092 142.904, 98.263 145.010, 108 143.189 C 114.876 141.902, 124.281 138.426, 126.922 136.193 C 128.910 134.514, 128.886 134.395, 123.992 121.676 C 121.278 114.622, 117.040 104.593, 114.574 99.388 C 109.855 89.426, 101.024 74, 100.039 74 C 99.721 74, 97.603 77.037, 95.333 80.750" stroke="none" fill="black" fill-rule="evenodd"/>
</svg>