<svg xmlns="http://www.w3.org/2000/svg" width="200" height="200" viewBox="0 0 200 200" version="1.1">
	<path d="M 58.174 29.314 C 56.071 31.553, 56 32.386, 56 54.814 L 56 78 100 78 L 144 78 144 54.674 C 144 31.585, 143.977 31.327, 141.686 29.174 C 139.390 27.018, 139.051 27, 99.860 27 L 60.349 27 58.174 29.314 M 71 60 L 71 71 78 71 L 85 71 85 60 L 85 49 78 49 L 71 49 71 60 M 56 130.826 L 56 168.651 58.314 170.826 C 60.610 172.982, 60.949 173, 100.140 173 L 139.651 173 141.826 170.686 C 143.979 168.394, 144 168.002, 144 130.686 L 144 93 100 93 L 56 93 56 130.826 M 71 122 L 71 137 78 137 L 85 137 85 122 L 85 107 78 107 L 71 107 71 122" stroke="none" fill="black" fill-rule="evenodd"/>
</svg>