<svg xmlns="http://www.w3.org/2000/svg" width="200" height="200" viewBox="0 0 200 200" version="1.1">
	<path d="M 149.219 35.863 L 134.997 44.727 130.329 42.363 C 127.762 41.063, 124.378 40, 122.809 40 C 121.241 40, 118.272 38.885, 116.212 37.522 C 109.347 32.979, 102.255 32.980, 95.556 37.526 C 93.551 38.887, 90.469 40.010, 88.706 40.022 C 85.259 40.046, 77.682 43.087, 76.564 44.896 C 76.189 45.503, 74.221 46.010, 72.191 46.022 C 70.161 46.034, 66.668 46.876, 64.429 47.893 C 60.349 49.746, 54 56.342, 54 58.728 C 54 59.428, 53.566 60, 53.035 60 C 51.473 60, 45.012 66.074, 43.569 68.898 C 42.839 70.329, 41.926 72.963, 41.541 74.750 L 40.841 78 48.353 78 C 54.984 78, 55.940 77.766, 56.499 76.002 C 56.848 74.904, 58.341 73.725, 59.817 73.383 C 64.458 72.309, 66.877 70.171, 67.558 66.543 C 68.479 61.633, 70.110 60.549, 74.301 62.064 C 79.083 63.793, 82.424 62.641, 84.928 58.398 C 86.691 55.409, 87.446 54.906, 89.280 55.496 C 96.369 57.773, 98.900 57.044, 102.287 51.750 C 103.254 50.237, 104.615 49, 105.311 49 C 106.007 49, 108.244 50.994, 110.281 53.432 L 113.986 57.864 107.988 61.508 C 101.647 65.359, 100 67.370, 100 71.260 C 100 74.313, 103.893 78, 107.117 78 C 108.497 78, 115.326 74.416, 122.454 69.951 C 129.521 65.524, 135.910 62.135, 136.652 62.420 C 137.437 62.721, 138 64.440, 138 66.536 C 138 69.126, 138.911 71.231, 141.250 74.049 C 144.488 77.949, 144.527 77.964, 151.867 77.982 C 159.022 77.999, 159.216 77.935, 158.630 75.750 C 158.299 74.513, 158.021 73, 158.014 72.390 C 158.006 71.779, 156.974 69.754, 155.719 67.890 C 154.464 66.025, 152.843 62.475, 152.116 60 C 151.388 57.525, 150.416 55.036, 149.955 54.468 C 149.429 53.820, 152.352 51.434, 157.808 48.058 C 171.992 39.282, 173 38.379, 173 34.449 C 173 30.223, 170.067 27, 166.221 27 C 164.460 27, 158.227 30.250, 149.219 35.863 M 27 93.840 C 27 110.020, 32.380 125.055, 42.912 138.309 C 48.611 145.480, 58.351 153.741, 64.702 156.788 L 67.904 158.325 65.452 161.239 C 62.457 164.798, 62.369 166.928, 65.073 170.365 L 67.145 173 100 173 L 132.855 173 134.927 170.365 C 137.626 166.934, 137.543 164.798, 134.571 161.266 L 132.141 158.379 135.789 156.439 C 141.690 153.302, 151.138 145.371, 156.303 139.220 C 162.505 131.833, 169.648 117.398, 171.505 108.500 C 172.308 104.650, 172.973 97.787, 172.983 93.250 L 173 85 100 85 L 27 85 27 93.840 M 97.309 108.010 C 95.420 108.770, 81.898 127.496, 80.380 131.453 C 80.041 132.335, 81.790 134.152, 85.160 136.422 C 88.082 138.390, 90.767 140, 91.127 140 C 91.486 140, 93.517 137.304, 95.640 134.009 C 97.763 130.714, 99.725 128.017, 100 128.017 C 100.275 128.017, 102.237 130.714, 104.360 134.009 C 106.483 137.304, 108.514 140, 108.873 140 C 109.233 140, 111.918 138.390, 114.840 136.422 C 118.210 134.152, 119.959 132.335, 119.620 131.453 C 117.894 126.953, 104.566 108.785, 102.383 107.955 C 101.001 107.430, 99.787 107.029, 99.685 107.063 C 99.583 107.098, 98.514 107.524, 97.309 108.010" stroke="none" fill="black" fill-rule="evenodd"/>
</svg>