<svg xmlns="http://www.w3.org/2000/svg" width="200" height="200" viewBox="0 0 200 200" version="1.1">
	<path d="M 157 54.500 C 152.719 58.835, 150.906 60, 148.443 60 C 146.724 60, 143.109 60.745, 140.409 61.656 C 137.196 62.739, 131.700 63.368, 124.500 63.474 C 117.813 63.573, 110.951 64.310, 107 65.353 C 97.432 67.878, 75.755 78.989, 65.908 86.416 C 54.722 94.853, 42.372 107.972, 37.998 116.065 C 34.943 121.716, 34.518 123.383, 34.510 129.750 L 34.500 137 30.750 137 L 27 137 27 144.500 L 27 152 100 152 L 173 152 173 144.500 L 173 137 164.500 137 C 159.825 137, 156 136.765, 156 136.479 C 156 136.192, 157.146 134.226, 158.546 132.109 C 162.719 125.804, 165.185 118.039, 165.727 109.500 C 166.169 102.529, 165.884 100.535, 163.515 94 C 160.560 85.851, 160.393 84.335, 161.514 75.836 C 162.189 70.724, 162.784 69.657, 167.631 64.871 C 173.675 58.902, 174.696 54.696, 171 51 C 167.277 47.277, 163.103 48.321, 157 54.500 M 136.947 79.080 C 126.760 84, 112.865 93.085, 110.047 96.667 C 106.836 100.749, 107.240 107.394, 110.923 111.077 C 113.296 113.450, 114.701 114, 118.390 114 C 122.206 114, 123.467 113.466, 126.266 110.667 C 133.899 103.035, 149.617 75, 146.264 75 C 145.786 75, 141.593 76.836, 136.947 79.080" stroke="none" fill="black" fill-rule="evenodd"/>
</svg>