<svg xmlns="http://www.w3.org/2000/svg" width="200" height="200" viewBox="0 0 200 200" version="1.1">
	<path d="M 29 29 C 27.843 30.157, 27 32.333, 27 34.164 C 27 36.874, 28.796 39.143, 39.500 49.961 C 46.375 56.910, 52 62.985, 52 63.462 C 52 63.940, 49.254 67.190, 45.897 70.686 C 40.597 76.205, 39.880 77.401, 40.451 79.771 C 41.363 83.559, 116.458 158.641, 120.248 159.554 C 122.659 160.135, 123.827 159.410, 129.748 153.657 L 136.500 147.098 149.583 160.049 C 160.817 171.170, 163.113 173, 165.833 173 C 169.933 173, 173 169.934, 173 165.836 C 173 163.126, 171.204 160.857, 160.500 150.039 C 153.625 143.090, 148 137.015, 148 136.538 C 148 136.060, 150.746 132.810, 154.103 129.314 C 159.403 123.795, 160.120 122.599, 159.549 120.229 C 158.641 116.457, 83.543 41.359, 79.771 40.451 C 77.401 39.880, 76.205 40.597, 70.686 45.897 C 67.190 49.254, 63.940 52, 63.462 52 C 62.985 52, 56.910 46.375, 49.961 39.500 C 39.143 28.796, 36.874 27, 34.164 27 C 32.333 27, 30.157 27.843, 29 29" stroke="none" fill="black" fill-rule="evenodd"/>
</svg>