<svg xmlns="http://www.w3.org/2000/svg" width="200" height="200" viewBox="0 0 200 200" version="1.1">
	<path d="M 77.980 51.250 L 77.960 75.500 72.874 78.500 C 62.188 84.802, 52.506 98.432, 49.942 110.781 C 48.256 118.899, 49.238 133.120, 51.981 140.324 C 56.649 152.583, 69.417 165.351, 81.676 170.019 C 88.880 172.762, 103.101 173.744, 111.219 172.058 C 123.596 169.489, 135.915 160.825, 143.195 149.572 C 153.790 133.194, 153.783 110.751, 143.178 94.428 C 138.831 87.737, 132.281 81.364, 126.153 77.864 L 122.015 75.500 122.008 51.250 L 122 27 100 27 L 78 27 77.980 51.250 M 93 63.864 L 93 85.728 88.250 87.519 C 78.654 91.136, 72.036 97.049, 67.445 106.109 C 63.134 114.616, 60.592 114, 100 114 C 139.408 114, 136.866 114.616, 132.555 106.109 C 127.964 97.049, 121.346 91.136, 111.750 87.519 L 107 85.728 107 63.864 L 107 42 100 42 L 93 42 93 63.864" stroke="none" fill="black" fill-rule="evenodd"/>
</svg>