<svg xmlns="http://www.w3.org/2000/svg" width="200" height="200" viewBox="0 0 200 200" version="1.1">
	<path d="M 73.942 29.287 C 64.015 32.672, 56.504 37.621, 47.059 47.001 C 37.713 56.282, 32.735 63.830, 29.287 73.942 C 26.318 82.652, 26.228 93.692, 29.075 100 C 31.980 106.438, 92.435 167.028, 99.446 170.530 C 108.854 175.228, 124.250 173.273, 136.393 165.839 C 141.469 162.730, 142.948 163.047, 142.985 167.250 C 143.010 170.113, 146.684 173.003, 150.250 172.965 C 152.970 172.937, 155.091 171.405, 163.250 163.579 C 171.987 155.199, 173 153.859, 173 150.686 C 173 146.642, 169.382 143, 165.365 143 C 162.305 143, 162.384 142.037, 165.917 136.265 C 172.956 124.767, 175.099 109.248, 170.925 100 C 167.913 93.326, 107.445 32.709, 100.500 29.401 C 93.754 26.188, 83.167 26.142, 73.942 29.287 M 80 43.332 C 77.358 44.252, 76.583 45.035, 76.839 46.526 C 78.247 54.733, 78.005 63.412, 76.091 73.301 C 73.736 85.465, 73.500 89.573, 75.100 90.562 C 76.843 91.639, 91.169 76.213, 94.661 69.500 C 102.869 53.723, 100.051 41.910, 88.115 42.056 C 85.577 42.087, 81.925 42.661, 80 43.332 M 55.776 59.876 C 37.306 79.825, 37.649 102.365, 56.376 99.326 L 59.960 98.745 59.393 90.122 C 58.962 83.583, 59.329 78.963, 60.909 71 C 63.140 59.763, 63.547 54, 62.108 54 C 61.617 54, 58.768 56.644, 55.776 59.876" stroke="none" fill="black" fill-rule="evenodd"/>
</svg>