<svg xmlns="http://www.w3.org/2000/svg" width="200" height="200" viewBox="0 0 200 200" version="1.1">
	<path d="M 88.346 28.433 C 79.660 31.150, 71 40.020, 71 46.200 L 71 49 100 49 L 129 49 129 46.450 C 129 40.227, 120.589 31.463, 111.935 28.668 C 105.822 26.694, 94.275 26.579, 88.346 28.433 M 71.500 64.412 C 66.289 66.728, 63.994 70.151, 62.984 77.112 C 61.274 88.915, 55.825 162.165, 56.467 164.724 C 56.816 166.117, 58.395 168.549, 59.974 170.128 L 62.846 173 100 173 L 137.154 173 140.026 170.128 C 141.605 168.549, 143.186 166.109, 143.537 164.707 C 144.307 161.641, 137.388 75.136, 136.109 71.822 C 134.951 68.824, 131.252 65.418, 127.685 64.067 C 123.345 62.422, 75.313 62.717, 71.500 64.412" stroke="none" fill="black" fill-rule="evenodd"/>
</svg>