<svg xmlns="http://www.w3.org/2000/svg" width="200" height="200" viewBox="0 0 200 200" version="1.1">
	<path d="M 27 99.772 L 27 173 100.237 173 L 173.474 173 159.248 158.748 L 145.021 144.496 147.465 138.498 C 150.679 130.608, 151.476 123.629, 149.991 116.383 C 146.068 97.240, 130.628 82.859, 112.355 81.327 L 105.252 80.731 104.734 74.276 C 103.773 62.298, 94.421 47.858, 83.500 41.490 C 72.583 35.124, 60.360 34.543, 49.628 39.880 L 43.500 42.927 35.250 34.735 L 27 26.544 27 99.772 M 57.750 52.162 C 56.237 52.715, 55 53.472, 55 53.844 C 55 54.217, 62.586 62.098, 71.858 71.358 C 90.546 90.022, 89.968 89.810, 89.977 78 C 89.988 61.448, 71.942 46.979, 57.750 52.162 M 103.048 97.515 L 99.595 99.074 116.517 116.017 C 128.132 127.647, 133.762 132.638, 134.469 131.931 C 135.036 131.364, 135.487 127.660, 135.470 123.700 C 135.438 115.983, 133.684 111.344, 128.442 105.114 C 122.220 97.719, 110.417 94.187, 103.048 97.515 M 49 129.500 L 49 144 56 144 L 63 144 63 129.500 L 63 115 56 115 L 49 115 49 129.500 M 85 137 L 85 144 92.500 144 L 100 144 100 137 L 100 130 92.500 130 L 85 130 85 137" stroke="none" fill="black" fill-rule="evenodd"/>
</svg>