<svg xmlns="http://www.w3.org/2000/svg" width="200" height="200" viewBox="0 0 200 200" version="1.1">
	<path d="M 138.740 28.689 C 137.811 29.618, 136.077 34.739, 134.887 40.070 L 132.723 49.761 124.611 49.259 C 111.202 48.428, 103.951 52.606, 95.467 66.053 C 88.024 77.848, 78.574 87.826, 68.491 94.535 C 53.248 104.677, 49.555 110.266, 49.521 123.251 L 49.500 131.002 40 134.131 C 34.775 135.852, 29.713 137.946, 28.750 138.785 C 26.348 140.878, 26.486 146.486, 29 149 C 31.652 151.652, 34.924 151.523, 44.310 148.397 C 48.609 146.965, 52.291 145.957, 52.491 146.157 C 52.691 146.358, 52.003 150.117, 50.962 154.511 C 48.500 164.900, 48.508 168.508, 51 171 C 53.430 173.430, 58.650 173.627, 61.130 171.382 C 62.196 170.417, 63.786 165.876, 65.069 160.130 L 67.220 150.496 76.860 150.498 C 85.890 150.500, 86.987 150.269, 94.192 146.842 C 105.390 141.516, 112.380 136.597, 122.339 127.032 C 131.864 117.885, 140.579 105.789, 146.675 93.259 C 150.096 86.225, 150.452 84.729, 150.475 77.249 L 150.500 68.998 160 65.899 C 165.225 64.195, 170.287 61.896, 171.250 60.790 C 175.113 56.350, 171.998 49, 166.253 49 C 164.743 49, 159.989 50.171, 155.690 51.603 C 151.391 53.035, 147.689 54.022, 147.464 53.798 C 147.239 53.573, 147.943 49.673, 149.028 45.131 C 151.514 34.722, 151.508 31.508, 149 29 C 146.532 26.532, 141.062 26.366, 138.740 28.689" stroke="none" fill="black" fill-rule="evenodd"/>
</svg>