<svg xmlns="http://www.w3.org/2000/svg" width="200" height="200" viewBox="0 0 200 200" version="1.1">
	<path d="M 70.457 28.863 C 64.680 32.386, 61.972 39.354, 63.996 45.488 C 65.119 48.890, 64.875 49.465, 54.867 66.992 L 44.584 85 35.792 85 L 27 85 27 92.443 L 27 99.885 31.208 100.193 L 35.415 100.500 42.659 136.500 C 46.643 156.300, 49.925 172.613, 49.952 172.750 C 50.015 173.077, 149.985 173.077, 150.048 172.750 C 150.075 172.613, 153.357 156.300, 157.341 136.500 L 164.585 100.500 168.792 100.193 L 173 99.885 173 92.443 L 173 85 164.208 85 L 155.416 85 145.133 66.992 C 135.125 49.465, 134.881 48.890, 136.004 45.488 C 139.021 36.346, 131.942 27, 122 27 C 111.366 27, 104.677 36.628, 108.449 46.506 C 110.295 51.338, 113.695 54.346, 118.814 55.672 C 121.681 56.415, 122.971 58.125, 130.004 70.506 L 137.954 84.500 118.977 84.772 C 108.540 84.921, 91.460 84.921, 81.023 84.772 L 62.046 84.500 69.996 70.506 C 77.029 58.125, 78.319 56.415, 81.186 55.672 C 91.550 52.986, 96.209 40.621, 89.885 32.581 C 85.471 26.969, 76.407 25.235, 70.457 28.863 M 71 129.500 L 71 144 78 144 L 85 144 85 129.500 L 85 115 78 115 L 71 115 71 129.500 M 115 129.500 L 115 144 122 144 L 129 144 129 129.500 L 129 115 122 115 L 115 115 115 129.500" stroke="none" fill="black" fill-rule="evenodd"/>
</svg>