<svg xmlns="http://www.w3.org/2000/svg" width="200" height="200" viewBox="0 0 200 200" version="1.1">
	<path d="M 41.573 28.919 C 38.894 31.879, 27 66.337, 27 71.137 C 27 76.155, 29.697 80.798, 34.181 83.500 C 37.406 85.443, 39.273 85.500, 100 85.500 C 162.492 85.500, 162.500 85.500, 166 83.319 C 170.530 80.496, 173 76.205, 173 71.155 C 173 66.450, 161.039 31.806, 158.413 28.904 C 156.757 27.075, 154.471 27, 100 27 C 45.379 27, 43.247 27.070, 41.573 28.919 M 64.785 43.250 C 63.906 43.938, 61.587 49.675, 59.631 56 C 56.671 65.576, 56.298 67.723, 57.407 68.833 C 59.036 70.465, 67.574 70.598, 69.474 69.022 C 70.232 68.392, 72.486 62.693, 74.481 56.357 C 77.329 47.314, 77.856 44.532, 76.932 43.419 C 75.458 41.642, 66.990 41.524, 64.785 43.250 M 94.200 43.200 C 93.404 43.996, 93 48.328, 93 56.078 C 93 69.329, 93.466 70.273, 100 70.273 C 106.534 70.273, 107 69.329, 107 56.078 C 107 48.328, 106.596 43.996, 105.800 43.200 C 105.140 42.540, 102.530 42, 100 42 C 97.470 42, 94.860 42.540, 94.200 43.200 M 123.068 43.419 C 122.144 44.532, 122.671 47.314, 125.519 56.357 C 127.514 62.693, 129.768 68.392, 130.526 69.022 C 132.426 70.598, 140.964 70.465, 142.593 68.833 C 143.702 67.723, 143.329 65.576, 140.369 56 C 138.413 49.675, 136.094 43.938, 135.215 43.250 C 133.010 41.524, 124.542 41.642, 123.068 43.419 M 41 133.865 C 41 176.354, 39.537 173, 58.073 173 L 71 173 71 146.174 C 71 119.427, 71.007 119.342, 73.314 117.174 C 75.561 115.063, 76.347 115, 100.242 115 L 124.855 115 126.927 117.635 C 128.905 120.149, 129 121.476, 129 146.635 L 129 173 141.845 173 C 153.631 173, 154.847 172.827, 156.595 170.896 C 158.378 168.927, 158.518 166.591, 158.787 134.396 L 159.075 100 100.037 100 L 41 100 41 133.865 M 85 151 L 85 173 100 173 L 115 173 115 151 L 115 129 100 129 L 85 129 85 151" stroke="none" fill="black" fill-rule="evenodd"/>
</svg>