<svg xmlns="http://www.w3.org/2000/svg" width="200" height="200" viewBox="0 0 200 200" version="1.1">
	<path d="M 29 29 C 25.098 32.902, 26.283 36.727, 33.710 44.211 L 40.419 50.972 37.210 54.284 C 33.702 57.903, 33.132 61.316, 35.477 64.663 C 38.425 68.873, 43.486 68.496, 48.780 63.672 L 51.061 61.594 54.552 65.086 C 57.832 68.365, 57.974 68.775, 56.901 71.855 C 55.233 76.640, 56.285 84.104, 59.370 89.368 C 64.097 97.434, 75.770 102.019, 84.145 99.099 C 87.225 98.025, 87.634 98.168, 90.921 101.455 L 94.419 104.953 91.727 107.763 C 87.677 111.991, 87.170 116.261, 90.343 119.434 C 93.765 122.856, 97.163 122.674, 101.538 118.832 L 105.146 115.665 111.704 122.223 L 118.263 128.781 116.631 133.569 C 112.800 144.814, 115.372 156.502, 123.458 164.589 C 129.909 171.039, 136.286 173.386, 145.834 172.823 C 161.157 171.920, 171.976 161.107, 172.839 145.834 C 173.510 133.977, 168.355 124.223, 158.310 118.336 C 152.262 114.792, 141.578 113.983, 134.009 116.497 L 128.759 118.241 122.212 111.693 L 115.665 105.146 118.832 101.538 C 122.638 97.204, 122.859 93.768, 119.545 90.455 C 116.233 87.142, 112.796 87.362, 108.466 91.164 L 104.862 94.328 101.385 90.851 C 98.268 87.735, 98.016 87.088, 98.954 84.622 C 102.062 76.446, 97.956 64.830, 90.223 59.927 C 84.827 56.504, 78.457 55.384, 72.730 56.850 C 68.646 57.895, 68.383 57.816, 65.095 54.545 L 61.690 51.157 64.345 48.001 C 68.120 43.515, 68.679 40.389, 66.281 37.163 C 63.222 33.047, 58.589 33.036, 54.359 37.137 L 50.972 40.419 44.211 33.710 C 36.727 26.283, 32.902 25.098, 29 29 M 139.604 130.028 C 128.120 133.506, 126.060 149.798, 136.314 156.050 C 140.177 158.406, 146.959 158.590, 151.094 156.451 C 160.138 151.775, 160.263 136.253, 151.294 131.669 C 147.297 129.626, 142.948 129.016, 139.604 130.028" stroke="none" fill="black" fill-rule="evenodd"/>
</svg>