<svg xmlns="http://www.w3.org/2000/svg" width="200" height="200" viewBox="0 0 200 200" version="1.1">
	<path d="M 109.500 28.348 C 99.789 31.559, 90.366 38.436, 86 45.499 C 84.017 48.709, 83.860 48.762, 75.227 49.175 C 68.097 49.516, 65.258 50.162, 59.983 52.644 C 43.655 60.327, 33.205 77.109, 34.166 94.103 C 34.454 99.184, 34.257 100.003, 32.750 100.002 C 31.787 100.001, 30.100 100.900, 29 102 C 27.123 103.877, 27 105.333, 27 125.664 L 27 147.328 39.701 160.164 L 52.401 173 99.908 173 L 147.415 173 160.208 160.208 L 173 147.415 173 125.747 C 173 104.743, 172.933 104.015, 170.811 102.039 C 169.608 100.918, 168.095 100, 167.451 100 C 165.107 100, 164.101 86.961, 165.479 74.458 C 167.460 56.488, 157.514 39.170, 140.500 30.965 C 134.200 27.927, 132.500 27.561, 123.500 27.307 C 117.153 27.128, 112.039 27.509, 109.500 28.348 M 111.741 43.429 C 109.673 44.167, 107.198 45.362, 106.241 46.085 C 103.009 48.526, 99 52.370, 99 53.027 C 99 53.387, 100.609 54.826, 102.577 56.225 C 106.103 58.734, 106.233 58.749, 111.827 57.279 C 117.894 55.684, 128.642 55.976, 135.041 57.909 C 136.989 58.497, 141.206 60.558, 144.412 62.489 C 147.619 64.420, 150.381 66, 150.551 66 C 151.349 66, 148.826 59.378, 146.547 55.489 C 143.332 50.005, 137.893 45.492, 132.128 43.528 C 126.655 41.663, 116.823 41.616, 111.741 43.429 M 72.903 64.052 C 64.157 65.457, 56.476 71.154, 52.349 79.297 C 49.686 84.553, 48.298 93.065, 49.392 97.427 L 50.046 100.031 78.273 99.766 L 106.500 99.500 106.495 92 C 106.490 85.994, 105.994 83.529, 104.004 79.623 C 98.332 68.492, 85.442 62.039, 72.903 64.052 M 117.001 71.116 C 117.001 71.327, 117.953 73.975, 119.117 77 C 120.417 80.376, 121.435 85.878, 121.756 91.250 L 122.277 100 136.639 100 L 151 100 151 97.538 C 151 89.474, 143.295 78.234, 134.791 73.892 C 131.120 72.017, 116.999 69.814, 117.001 71.116" stroke="none" fill="black" fill-rule="evenodd"/>
</svg>