<svg xmlns="http://www.w3.org/2000/svg" width="200" height="200" viewBox="0 0 200 200" version="1.1">
	<path d="M 146.364 44.250 C 137.589 53.737, 128.459 63.637, 126.077 66.250 L 121.745 71 132.776 71 L 143.807 71 158.403 54.112 C 170.454 40.170, 173 36.681, 173 34.112 C 173 29.989, 169.915 27, 165.660 27 C 162.618 27, 160.891 28.544, 146.364 44.250 M 27 94.042 C 27 137.330, 59.979 173, 100 173 C 122.163 173, 144.121 161.385, 157.417 142.628 C 167.400 128.545, 172 114.932, 172.750 97.250 L 173.270 85 100.135 85 L 27 85 27 94.042" stroke="none" fill="black" fill-rule="evenodd"/>
</svg>