<svg xmlns="http://www.w3.org/2000/svg" width="200" height="200" viewBox="0 0 200 200" version="1.1">
	<path d="M 128.660 45.160 L 93.819 63.207 87.660 60.131 C 80.066 56.338, 73.246 55.407, 64.335 56.945 C 49.460 59.513, 35.574 69.026, 29.912 80.528 C 27.141 86.155, 26.812 87.700, 27.172 93.357 C 27.865 104.243, 33.845 110.560, 46.385 113.655 C 68.304 119.064, 96.856 101.580, 99.587 81.077 L 100.196 76.500 134.185 59.076 C 152.878 49.492, 169.259 40.797, 170.587 39.753 C 175.470 35.912, 172.172 26.911, 165.936 27.057 C 164.596 27.088, 147.822 35.235, 128.660 45.160 M 43.073 124.635 C 40.583 127.800, 40.468 129.796, 42.601 132.841 C 44.996 136.261, 48.548 137.285, 51.935 135.534 C 56.640 133.100, 57.468 127.728, 53.686 124.174 C 50.411 121.098, 45.694 121.302, 43.073 124.635 M 80.174 131.314 C 77.098 134.589, 77.302 139.306, 80.635 141.927 C 82.084 143.067, 84.048 144, 85 144 C 88.303 144, 92 140.092, 92 136.602 C 92 130.035, 84.518 126.690, 80.174 131.314 M 58.635 160.073 C 54.991 162.939, 54.991 168.061, 58.635 170.927 C 64.476 175.522, 70.929 171.612, 70.067 164 C 69.831 161.917, 65.269 158, 63.079 158 C 62.084 158, 60.084 158.933, 58.635 160.073" stroke="none" fill="black" fill-rule="evenodd"/>
</svg>