<svg xmlns="http://www.w3.org/2000/svg" width="200" height="200" viewBox="0 0 200 200" version="1.1">
	<path d="M 92 30.500 L 92 34 71.614 34 C 51.240 34, 51.225 34.002, 45.880 36.794 C 38.379 40.713, 34.690 46.801, 34.162 56.131 L 33.774 63 30.387 63 L 27 63 27 70.500 L 27 78 100 78 L 173 78 173 70.500 L 173 63 169.500 63 L 166 63 166 58.178 C 166 47.569, 159.206 37.539, 150.355 35.081 C 148.218 34.488, 137.695 34.009, 126.750 34.006 L 107 34 107 30.500 L 107 27 99.500 27 L 92 27 92 30.500 M 34 100 L 34 107 30.500 107 L 27 107 27 114.500 L 27 122 30.500 122 L 34 122 34 138.821 C 34 155.189, 34.074 155.787, 36.750 161.064 C 38.551 164.616, 40.996 167.525, 43.835 169.494 L 48.170 172.500 98.835 172.756 L 149.500 173.011 154.704 170.011 C 158.303 167.937, 160.771 165.544, 162.704 162.256 C 165.438 157.606, 165.507 157.104, 165.831 139.750 L 166.162 122 169.581 122 L 173 122 173 114.500 L 173 107 169.500 107 L 166 107 166 100 L 166 93 100 93 L 34 93 34 100" stroke="none" fill="black" fill-rule="evenodd"/>
</svg>