<svg xmlns="http://www.w3.org/2000/svg" width="200" height="200" viewBox="0 0 200 200" version="1.1">
	<path d="M 51.320 28.296 C 49.020 28.958, 46.862 29.783, 46.523 30.130 C 45.430 31.248, 47.837 46.489, 50.035 52.363 C 51.208 55.499, 53.613 59.960, 55.380 62.275 L 58.591 66.486 53.267 71.684 C 43.864 80.865, 39.926 93.227, 41.964 107.169 C 45.781 133.272, 62.786 158.854, 82.941 168.815 C 89.968 172.288, 90.948 172.500, 100 172.500 C 109.097 172.500, 110.008 172.300, 117.257 168.718 C 130.024 162.408, 141.181 150.549, 149.024 134.951 C 162.479 108.194, 161.685 86.283, 146.733 71.684 L 141.409 66.486 144.620 62.275 C 146.387 59.960, 148.792 55.499, 149.965 52.363 C 152.131 46.575, 154.518 31.647, 153.533 30.053 C 152.535 28.439, 139.299 26.717, 131.868 27.235 C 120.883 28.001, 113.811 31.111, 106.227 38.511 L 99.855 44.727 94.751 39.331 C 91.524 35.918, 87.231 32.766, 83.074 30.757 C 77.137 27.888, 75.482 27.556, 66 27.336 C 60.012 27.196, 53.704 27.609, 51.320 28.296 M 102 88 C 99.297 90.703, 99.482 94.572, 102.455 97.545 C 105.428 100.518, 109.297 100.703, 112 98 C 114.554 95.446, 114.645 89.894, 112.171 87.655 C 109.655 85.378, 104.445 85.555, 102 88 M 73 95 C 71.889 96.111, 71 98.333, 71 100 C 71 101.667, 71.889 103.889, 73 105 C 74.111 106.111, 76.333 107, 78 107 C 79.667 107, 81.889 106.111, 83 105 C 84.111 103.889, 85 101.667, 85 100 C 85 98.333, 84.111 96.111, 83 95 C 81.889 93.889, 79.667 93, 78 93 C 76.333 93, 74.111 93.889, 73 95 M 120 107.719 C 114.456 109.721, 113.161 116.408, 117.635 119.927 C 119.084 121.067, 121.048 122, 122 122 C 125.067 122, 129 118.088, 129 115.038 C 129 110.304, 124.032 106.264, 120 107.719 M 80.455 124.455 C 77.739 127.170, 77.428 129.045, 79.150 132.316 C 80.700 135.260, 81.940 135.967, 85.595 135.985 C 89.474 136.004, 92 133.317, 92 129.171 C 92 122.617, 85.108 119.801, 80.455 124.455" stroke="none" fill="black" fill-rule="evenodd"/>
</svg>