<svg xmlns="http://www.w3.org/2000/svg" width="200" height="200" viewBox="0 0 200 200" version="1.1">
	<path d="M 56 38 L 56 49 63.500 49 L 71 49 71 38 L 71 27 63.500 27 L 56 27 56 38 M 93 38 L 93 49 100.500 49 L 108 49 108 38 L 108 27 100.500 27 L 93 27 93 38 M 27.002 112.250 C 27.003 167.151, 26.872 166.036, 33.898 170.730 L 37.296 173 82 173 L 126.704 173 130.102 170.730 C 134.750 167.625, 136.997 162.745, 136.998 155.750 L 137 150 140.250 149.967 C 145.179 149.918, 153.313 146.761, 158.223 142.992 C 175.714 129.564, 177.771 104.806, 162.699 89.134 C 157.802 84.041, 148.513 79.270, 141.750 78.373 L 137 77.742 137 70.371 L 137 63 82 63 L 27 63 27.002 112.250 M 42 118 L 42 158 82 158 L 122 158 122 118 L 122 78 82 78 L 42 78 42 118 M 137 114 L 137 135 139.540 135 C 142.900 135, 148.846 131.872, 152.197 128.342 C 162.291 117.707, 158.464 100.268, 144.782 94.553 C 142.737 93.699, 140.150 93, 139.032 93 C 137.054 93, 137 93.556, 137 114" stroke="none" fill="black" fill-rule="evenodd"/>
</svg>