<svg xmlns="http://www.w3.org/2000/svg" width="200" height="200" viewBox="0 0 200 200" version="1.1">
	<path d="M 71 34.500 L 71 42 78 42 L 85 42 85 34.500 L 85 27 78 27 L 71 27 71 34.500 M 41 41.500 L 41 49 48.500 49 L 56 49 56 41.500 L 56 34 48.500 34 L 41 34 41 41.500 M 100 41.500 L 100 49 107.500 49 L 115 49 115 41.500 L 115 34 107.500 34 L 100 34 100 41.500 M 29.174 58.314 C 27.286 60.324, 27 61.773, 27 69.314 L 27 78 45.918 78 C 56.323 78, 65.565 78.280, 66.455 78.621 C 69.121 79.644, 71.134 84.516, 70.060 87.343 C 68.083 92.543, 66.122 93, 45.777 93 L 27 93 27 127.326 L 27 161.651 29.314 163.826 C 30.953 165.365, 32.924 166.011, 36.064 166.039 C 39.953 166.072, 40.749 166.473, 42.520 169.289 L 44.541 172.500 80.813 172.763 C 104.544 172.934, 117.757 172.665, 119.031 171.984 C 120.101 171.411, 121.255 169.830, 121.597 168.471 C 122.148 166.274, 122.747 166, 126.998 166 C 134.192 166, 136.289 163.832, 136.796 155.869 C 137.195 149.597, 137.277 149.435, 140.991 147.628 C 149.593 143.444, 160.213 131.564, 166.446 119.154 C 172.099 107.898, 174.601 90.305, 171.920 80.652 C 171.267 78.299, 168.842 74.741, 165.676 71.489 C 158.196 63.806, 150.008 61.660, 139.349 64.590 C 137.566 65.080, 137.083 64.654, 136.520 62.092 C 135.148 55.843, 136.565 56, 81.452 56 L 31.349 56 29.174 58.314 M 143.388 78.934 C 142.227 79.428, 140.314 81.057, 139.138 82.552 C 137.093 85.152, 137 86.281, 137 108.635 C 137 122.191, 137.386 132, 137.920 132 C 139.938 132, 149.333 120.088, 152.511 113.500 C 156.586 105.051, 157.943 99.531, 157.976 91.266 C 157.997 85.852, 157.638 84.630, 155.250 81.981 C 152.285 78.692, 147.088 77.357, 143.388 78.934" stroke="none" fill="black" fill-rule="evenodd"/>
</svg>