<svg xmlns="http://www.w3.org/2000/svg" width="200" height="200" viewBox="0 0 200 200" version="1.1">
	<path d="M 100.096 28.451 C 90.150 31.679, 80.595 40.780, 76.070 51.337 L 74.071 56 60.146 56 C 48.335 56, 45.910 56.266, 44.165 57.750 C 43.035 58.712, 38.710 68.038, 34.555 78.474 L 27 97.448 27 133.224 C 27 167.667, 27.075 169.075, 29 171 C 30.944 172.944, 32.333 173, 78.345 173 C 125.198 173, 125.710 172.978, 127.595 170.896 C 129.378 168.927, 129.518 166.589, 129.788 134.272 L 130.076 99.750 121.955 79.625 C 117.488 68.556, 113.126 58.712, 112.262 57.750 C 110.967 56.308, 108.956 56, 100.845 56 C 94.967 56, 91 55.598, 91 55.003 C 91 53.004, 98.605 45.640, 102.500 43.866 C 107.410 41.629, 116.734 41.444, 121.620 43.486 C 128.726 46.455, 132.625 50.631, 137.924 60.947 L 143.016 70.859 140.983 74.304 L 138.951 77.749 141.656 89.969 C 144.738 103.889, 146.527 107, 151.450 107 C 157.019 107, 169.173 103.827, 171.140 101.860 C 173.954 99.046, 173.788 97.331, 168.473 74.225 C 167.700 70.868, 164.381 68.002, 161.250 67.988 C 158.752 67.977, 157.952 66.906, 152.514 56.291 C 142.018 35.802, 131.310 27.844, 113.500 27.297 C 107.703 27.119, 102.933 27.530, 100.096 28.451 M 52.547 74.250 C 43.191 96.759, 42 100.481, 42 107.207 L 42 114 78 114 L 114 114 114 107.337 C 114 101.612, 113.191 98.586, 108.250 85.840 L 102.500 71.007 94.386 71.003 L 86.272 71 85.636 75.640 C 85.286 78.191, 85 82.209, 85 84.567 C 85 88.008, 84.480 89.264, 82.365 90.927 C 78.934 93.626, 76.742 93.543, 73.306 90.584 C 70.614 88.265, 70.505 87.819, 70.627 79.584 L 70.754 71 62.326 71 L 53.898 71 52.547 74.250" stroke="none" fill="black" fill-rule="evenodd"/>
</svg>