<svg xmlns="http://www.w3.org/2000/svg" width="200" height="200" viewBox="0 0 200 200" version="1.1">
	<path d="M 41 45 L 41 63 48.500 63 L 56 63 56 45 L 56 27 48.500 27 L 41 27 41 45 M 78 45 L 78 63 85.500 63 L 93 63 93 45 L 93 27 85.500 27 L 78 27 78 45 M 115 45 L 115 63 122 63 L 129 63 129 45 L 129 27 122 27 L 115 27 115 45 M 27.017 86.250 C 27.063 107.794, 36.775 128.005, 52.813 139.931 L 59.856 145.168 54.428 154.119 C 48.527 163.850, 47.738 167.738, 51 171 C 52.918 172.918, 54.333 173, 85.461 173 C 117.567 173, 117.944 172.976, 119.961 170.811 C 123.091 167.452, 122.475 164.641, 116.361 154.396 C 113.259 149.198, 110.896 144.829, 111.111 144.686 C 117.998 140.094, 120.310 138.254, 124.380 134.121 L 129.255 129.172 133.146 131.991 C 143.750 139.672, 157.681 137.850, 166.702 127.601 C 179.017 113.610, 172.524 91.697, 154.511 86.460 C 151.376 85.549, 147.728 85.010, 146.405 85.263 C 144.201 85.684, 144 85.400, 144 81.861 L 144 78 85.500 78 L 27 78 27.017 86.250 M 143.970 100.647 C 143.071 100.891, 141.471 104.183, 140.091 108.629 L 137.742 116.196 140.394 118.848 C 142.487 120.942, 144.005 121.500, 147.605 121.500 C 151.491 121.500, 152.595 121.018, 155.082 118.234 C 162.715 109.691, 155.095 97.630, 143.970 100.647" stroke="none" fill="black" fill-rule="evenodd"/>
</svg>