<svg xmlns="http://www.w3.org/2000/svg" width="200" height="200" viewBox="0 0 200 200" version="1.1">
	<path d="M 41.500 29.383 C 32.177 33.791, 27.060 41.980, 27.022 52.554 C 26.993 60.499, 30.518 67.777, 36.669 72.473 C 39.119 74.344, 41.657 76.052, 42.309 76.270 C 43.188 76.563, 42.393 86.694, 39.223 115.582 C 36.874 136.987, 34.966 156.525, 34.983 159 C 35.017 164.089, 37.302 168.241, 41.641 171.102 C 44.355 172.891, 47.310 172.987, 100 172.987 C 152.690 172.987, 155.645 172.891, 158.359 171.102 C 162.692 168.245, 164.982 164.088, 165.025 159 C 165.045 156.525, 163.164 136.978, 160.844 115.562 C 157.846 87.888, 156.951 76.516, 157.751 76.250 C 158.370 76.043, 160.881 74.344, 163.331 72.473 C 172.590 65.404, 175.689 52.229, 170.617 41.500 C 167.776 35.491, 164.043 31.816, 158 29.081 C 153.654 27.114, 151.671 27.044, 100 27.032 L 46.500 27.020 41.500 29.383 M 111.736 56.692 C 110.766 56.945, 109.286 58.481, 108.446 60.105 C 107.165 62.581, 107.127 63.493, 108.209 65.750 C 110.005 69.495, 113.489 71.074, 117.146 69.799 C 122.417 67.962, 123.575 62.484, 119.545 58.455 C 117.180 56.089, 115.501 55.710, 111.736 56.692 M 73.635 80.073 C 70.603 82.458, 70.168 86.368, 72.557 89.777 C 73.711 91.426, 75.117 92, 78 92 C 82.434 92, 85 89.379, 85 84.850 C 85 81.912, 81.002 78, 78 78 C 77.048 78, 75.084 78.933, 73.635 80.073 M 102.455 102.455 C 97.810 107.099, 100.757 114, 107.384 114 C 113.784 114, 116.622 106.622, 112 102 C 109.297 99.297, 105.428 99.482, 102.455 102.455 M 75.315 130.016 C 72.699 131.059, 71 133.951, 71 137.362 C 71 140.087, 75.126 144, 78 144 C 78.952 144, 80.916 143.067, 82.365 141.927 C 88.660 136.976, 82.780 127.041, 75.315 130.016 M 120 129.719 C 114.456 131.721, 113.161 138.408, 117.635 141.927 C 119.084 143.067, 121.048 144, 122 144 C 125.312 144, 129 140.093, 129 136.582 C 129 131.962, 124.112 128.235, 120 129.719" stroke="none" fill="black" fill-rule="evenodd"/>
</svg>