<svg xmlns="http://www.w3.org/2000/svg" width="200" height="200" viewBox="0 0 200 200" version="1.1">
	<path d="M 87.073 29.635 C 84.498 32.907, 84.490 34.080, 87.004 39.008 C 89.172 43.258, 92.246 55.088, 91.401 55.932 C 91.116 56.217, 88.322 56.980, 85.191 57.628 C 77.720 59.173, 68.810 62.575, 65.583 65.113 C 63.026 67.125, 63 67.285, 63 81.118 C 63 94.620, 63.083 95.174, 65.455 97.545 C 68.582 100.673, 72.967 100.761, 75.674 97.750 C 76.786 96.513, 79.198 92.825, 81.033 89.555 L 84.369 83.611 88.976 97.427 C 92.149 106.944, 94.304 111.827, 95.902 113.121 C 101.759 117.865, 105.590 114.141, 110.946 98.500 C 113.206 91.900, 115.306 85.825, 115.613 85 C 115.976 84.025, 117.229 85.600, 119.195 89.500 C 120.858 92.800, 123.148 96.513, 124.284 97.750 C 126.819 100.513, 130.967 100.656, 134.139 98.091 C 136.383 96.276, 136.516 95.491, 136.822 82.317 C 137.117 69.603, 136.974 68.237, 135.105 65.860 C 132.786 62.912, 124.716 59.639, 114.593 57.541 C 110.794 56.754, 107.361 55.584, 106.963 54.940 C 106.566 54.297, 105.957 51.685, 105.612 49.136 C 104.648 42.033, 101.168 32.473, 98.496 29.591 C 95.167 25.998, 89.917 26.018, 87.073 29.635 M 49.832 76.890 C 33.053 95.450, 29.466 118.822, 40.238 139.407 C 44.434 147.425, 57.558 160.562, 65.500 164.695 C 76.267 170.297, 83.429 172.151, 96.531 172.725 C 106.664 173.170, 109.898 172.918, 117.031 171.132 C 130.493 167.759, 139.112 162.967, 148.563 153.598 C 157.436 144.802, 162.761 135.548, 164.903 125.201 C 168.418 108.220, 163.116 90.721, 150.341 77.146 L 144.086 70.500 144.042 83 C 144.006 92.841, 143.625 96.240, 142.248 98.980 C 138.326 106.787, 128.741 109.349, 121.595 104.500 C 119.569 103.125, 117.743 102, 117.537 102 C 117.331 102, 116.196 104.905, 115.015 108.455 C 109.031 126.438, 90.969 126.438, 84.985 108.455 C 83.804 104.905, 82.669 102, 82.463 102 C 82.257 102, 80.431 103.125, 78.405 104.500 C 71.804 108.980, 62.742 107.107, 58.304 100.346 C 56.870 98.161, 56.398 94.833, 56 84.109 L 55.500 70.620 49.832 76.890" stroke="none" fill="black" fill-rule="evenodd"/>
</svg>