<svg xmlns="http://www.w3.org/2000/svg" width="200" height="200" viewBox="0 0 200 200" version="1.1">
	<path d="M 87.500 28.348 C 77.797 31.556, 68.366 38.436, 64.010 45.484 C 62.163 48.473, 61.508 48.766, 55.617 49.239 C 43.809 50.186, 33.289 58.315, 28.936 69.853 C 25.871 77.979, 26.504 89.481, 30.412 96.660 C 35.233 105.520, 43.951 112.300, 52.250 113.647 L 56 114.256 56 143.628 L 56 173 100 173 L 144 173 144 143.500 L 144 114 146.340 114 C 150.444 114, 160.753 108.087, 164.938 103.334 C 170.840 96.628, 173.296 89.293, 172.774 79.929 C 172.269 70.872, 169.499 64.447, 163.526 58.474 C 158.151 53.099, 150.917 49.694, 143.772 49.177 C 138.511 48.797, 137.837 48.472, 135.944 45.409 C 132.867 40.430, 125.527 34.385, 118.150 30.753 C 112.286 27.866, 110.584 27.510, 101.558 27.281 C 95.228 27.120, 90.017 27.516, 87.500 28.348" stroke="none" fill="black" fill-rule="evenodd"/>
</svg>