<svg xmlns="http://www.w3.org/2000/svg" width="200" height="200" viewBox="0 0 200 200" version="1.1">
	<path d="M 89.875 42.750 C 71.811 62.648, 51.626 82.836, 42.238 90.396 C 34.961 96.257, 33.243 99.039, 34.486 102.954 C 35.638 106.586, 39.090 107.821, 53.864 109.886 C 61.764 110.990, 68.409 112.075, 68.631 112.297 C 69.889 113.555, 42.712 142.501, 30.731 152.665 C 26.856 155.952, 25.985 159.234, 27.992 162.986 C 29.610 166.008, 33.972 166.966, 62.500 170.566 C 81.124 172.915, 126.134 173.558, 138.500 171.651 C 164.167 167.693, 171.499 161.706, 162.119 152.365 C 159.984 150.239, 151.156 141.105, 142.500 132.066 C 129.389 118.375, 127.074 115.520, 128.631 114.961 C 129.659 114.591, 134.557 113.991, 139.516 113.626 C 149.373 112.902, 163.385 109.887, 168.008 107.496 C 171.271 105.808, 173 103.212, 173 100 C 173 98.614, 167.103 91.630, 156.141 80.033 C 136.541 59.299, 124.603 45.622, 116.615 34.750 C 111.465 27.740, 110.599 27, 107.547 27 C 104.463 27, 102.944 28.354, 89.875 42.750 M 99 54.690 C 94.875 59.386, 84.280 70.552, 75.455 79.505 L 59.410 95.782 66.455 96.448 C 70.330 96.814, 75.100 97.357, 77.056 97.654 C 80.511 98.178, 80.775 97.978, 86.318 90.613 C 94.318 79.983, 98.413 79.343, 104.187 87.817 C 112.227 99.618, 112.705 100, 119.417 99.997 C 127.696 99.992, 148.136 98.024, 149.846 97.066 C 150.870 96.493, 148.272 93.171, 139.937 84.395 C 129.577 73.486, 115.148 57.131, 109 49.327 L 106.500 46.153 99 54.690" stroke="none" fill="black" fill-rule="evenodd"/>
</svg>