<svg xmlns="http://www.w3.org/2000/svg" width="200" height="200" viewBox="0 0 200 200" version="1.1">
	<path d="M 72.488 29.013 C 71.486 30.120, 70.667 32.401, 70.667 34.082 C 70.667 36.664, 72.668 39.144, 83.569 50.069 C 100.753 67.292, 99.247 67.292, 116.431 50.069 C 127.332 39.144, 129.333 36.664, 129.333 34.082 C 129.333 29.859, 126.483 27, 122.271 27 C 119.481 27, 117.761 28.040, 112.926 32.652 L 107 38.304 107 34.652 C 107 29.964, 104.155 27, 99.655 27 C 95.742 27, 93.515 29.124, 92.519 33.808 L 91.816 37.116 86.468 32.058 C 80.401 26.320, 75.827 25.324, 72.488 29.013 M 65.510 60.097 C 59.577 65.566, 54.225 73.817, 51.377 81.887 C 47.333 93.342, 47.044 93, 60.777 93 C 74.868 93, 77 93.920, 77 100 C 77 106.086, 74.874 107, 60.710 107 C 48.901 107, 48.867 107.007, 49.514 109.250 C 51.126 114.846, 57.277 126.261, 63.118 134.500 C 69.606 143.649, 98.225 173.441, 99.943 172.833 C 103.826 171.458, 135 139.274, 135 136.639 C 135 136.288, 129.713 135.993, 123.250 135.985 C 116.787 135.976, 111.005 135.639, 110.400 135.235 C 108.898 134.232, 107 130.484, 107 128.520 C 107 127.634, 108.105 125.805, 109.455 124.455 C 111.861 122.048, 112.230 122, 128.318 122 L 144.727 122 147.557 115.750 C 151.797 106.387, 152.173 94.384, 148.567 83.499 C 145.537 74.353, 138.572 63.413, 132.936 58.949 L 129.085 55.900 125.337 60.200 C 116.749 70.053, 110.441 75.570, 106.384 76.776 C 95.715 79.948, 88.562 76.887, 78.073 64.659 C 73.987 59.896, 70.490 56, 70.300 56 C 70.111 56, 67.955 57.844, 65.510 60.097" stroke="none" fill="black" fill-rule="evenodd"/>
</svg>