<svg xmlns="http://www.w3.org/2000/svg" width="200" height="200" viewBox="0 0 200 200" version="1.1">
	<path d="M 27.261 71.250 C 28.193 90.694, 34.597 104.839, 48.899 119.041 C 55.972 126.064, 59.188 128.413, 67 132.264 C 78.926 138.141, 86.710 139.966, 99.936 139.985 C 121.221 140.015, 139.519 132.071, 153.606 116.683 C 165.922 103.230, 171.910 88.865, 172.755 70.750 L 173.257 60 165.628 60 L 158 60 158 67.790 C 158 92.765, 141.702 114.900, 117.698 122.522 C 106.753 125.998, 93.247 125.998, 82.302 122.522 C 58.298 114.900, 42 92.765, 42 67.790 L 42 60 34.361 60 L 26.721 60 27.261 71.250 M 56.024 66.250 C 56.074 78.874, 60.347 89.307, 69.020 97.980 C 90.728 119.688, 126.410 113.401, 139.643 85.537 C 142.710 79.078, 143.332 76.578, 143.766 68.965 L 144.277 60 100.139 60 L 56 60 56.024 66.250 M 72.557 77.223 C 70.168 80.632, 70.603 84.542, 73.635 86.927 C 75.084 88.067, 77.048 89, 78 89 C 81.002 89, 85 85.088, 85 82.150 C 85 77.621, 82.434 75, 78 75 C 75.117 75, 73.711 75.574, 72.557 77.223 M 116.655 76.829 C 114.075 79.680, 114.542 84.494, 117.635 86.927 C 119.084 88.067, 121.048 89, 122 89 C 122.952 89, 124.916 88.067, 126.365 86.927 C 129.397 84.542, 129.832 80.632, 127.443 77.223 C 125.440 74.363, 119.096 74.131, 116.655 76.829 M 95.635 91.073 C 90.304 95.266, 93.287 103.333, 100.169 103.333 C 106.572 103.333, 109.410 95.041, 104.365 91.073 C 102.916 89.933, 100.952 89, 100 89 C 99.048 89, 97.084 89.933, 95.635 91.073" stroke="none" fill="black" fill-rule="evenodd"/>
</svg>