<svg xmlns="http://www.w3.org/2000/svg" width="200" height="200" viewBox="0 0 200 200" version="1.1">
	<path d="M 36.039 29.189 C 32.592 32.889, 34.125 39.476, 38.817 41.125 C 39.542 41.380, 39.271 45.028, 37.972 52.500 C 34.651 71.610, 33.420 97.354, 34.830 118.250 C 35.507 128.287, 36.921 141.450, 37.972 147.500 C 39.271 154.972, 39.542 158.620, 38.817 158.875 C 33.958 160.582, 32.553 167.292, 36.314 170.826 L 38.629 173 100.140 173 L 161.651 173 163.826 170.686 C 165.022 169.413, 166 167.247, 166 165.874 C 166 163.500, 163.281 159.608, 161.094 158.852 C 160.435 158.624, 160.740 154.442, 161.960 146.973 C 167.269 114.501, 166.873 75.165, 160.950 46.513 C 160.213 42.947, 160.232 41.423, 161.016 41.161 C 163.305 40.398, 166 36.519, 166 33.986 C 166 32.522, 164.970 30.381, 163.686 29.174 L 161.371 27 99.725 27 L 38.078 27 36.039 29.189 M 94.968 51.534 L 92.588 54.067 94.260 63.734 C 95.180 69.051, 95.744 73.590, 95.514 73.820 C 95.284 74.050, 93.193 72.609, 90.868 70.619 C 84.930 65.536, 79.817 65.619, 77.065 70.843 C 75.171 74.436, 76.460 77.236, 82.224 82.049 C 85.126 84.472, 89.862 88.668, 92.750 91.372 L 98 96.290 98 103.145 C 98 106.915, 97.645 110, 97.212 110 C 96.778 110, 94.731 107.975, 92.662 105.500 C 89.538 101.763, 88.315 101, 85.450 101 C 81.361 101, 78 103.903, 78 107.434 C 78 108.898, 80.336 112.809, 83.855 117.237 C 87.076 121.290, 90.939 126.461, 92.440 128.730 C 95.146 132.819, 95.159 132.917, 93.942 140.461 C 92.748 147.862, 92.777 148.134, 95.032 150.534 C 97.831 153.513, 102.231 153.769, 104.895 151.105 C 106.629 149.371, 109 141.330, 109 137.181 C 109 136.235, 113.298 131.194, 118.551 125.980 C 123.805 120.766, 128.996 115.070, 130.088 113.322 C 132.423 109.586, 131.863 105.718, 128.663 103.477 C 124.924 100.858, 122.027 101.687, 116.857 106.857 L 112 111.714 112 103.751 C 112 96.495, 112.255 95.464, 114.872 92.144 C 116.451 90.140, 120.276 84.606, 123.372 79.847 C 129.539 70.364, 130.394 66.394, 127 63 C 122.913 58.913, 117.967 60.996, 113.389 68.733 L 110.568 73.500 109.313 66.500 C 108.623 62.650, 107.795 58.012, 107.473 56.194 C 106.236 49.203, 99.512 46.697, 94.968 51.534" stroke="none" fill="black" fill-rule="evenodd"/>
</svg>