<svg xmlns="http://www.w3.org/2000/svg" width="200" height="200" viewBox="0 0 200 200" version="1.1">
	<path d="M 93.811 32.750 C 82.182 44.633, 77.474 56.105, 78.178 70.838 C 78.754 82.893, 82.478 90.783, 92.009 100.146 C 95.847 103.916, 99.385 107, 99.872 107 C 100.359 107, 103.790 103.786, 107.496 99.857 C 112.022 95.060, 115.427 90.216, 117.867 85.107 C 121.395 77.719, 121.500 77.168, 121.500 65.952 C 121.500 54.612, 121.432 54.265, 117.730 46.772 C 114.892 41.027, 112.323 37.640, 107.336 33.070 C 103.692 29.732, 100.424 27, 100.074 27 C 99.724 27, 96.905 29.587, 93.811 32.750 M 27.353 79.522 C 27.032 80.359, 26.957 85.422, 27.186 90.772 C 27.524 98.689, 28.118 101.636, 30.372 106.605 C 33.877 114.328, 41.578 122.011, 49.500 125.688 C 54.908 128.199, 56.585 128.475, 66.500 128.487 L 77.500 128.500 77.795 120 C 78.465 100.674, 68.298 85.415, 51.145 80.005 C 43.073 77.459, 28.260 77.158, 27.353 79.522 M 149.487 79.781 C 137.536 83.956, 130.838 89.896, 125.609 100.953 C 122.762 106.973, 122.513 108.345, 122.507 118 L 122.500 128.500 133.500 128.500 C 143.505 128.500, 145.063 128.240, 150.722 125.626 C 158.355 122.100, 166.043 114.289, 169.791 106.253 C 172.186 101.117, 172.475 99.321, 172.487 89.500 L 172.500 78.500 163.500 78.265 C 156.999 78.095, 153.108 78.516, 149.487 79.781 M 93 147.500 L 93 173 100 173 L 107 173 107 147.500 L 107 122 100 122 L 93 122 93 147.500" stroke="none" fill="black" fill-rule="evenodd"/>
</svg>