<svg xmlns="http://www.w3.org/2000/svg" width="200" height="200" viewBox="0 0 200 200" version="1.1">
	<path d="M 63.206 34.250 L 63.500 41.500 70.750 41.794 L 78 42.088 78 34.544 L 78 27 70.456 27 L 62.912 27 63.206 34.250 M 122 34.544 L 122 42.088 129.250 41.794 L 136.500 41.500 136.794 34.250 L 137.088 27 129.544 27 L 122 27 122 34.544 M 34 41.500 L 34 49 41.500 49 L 49 49 49 41.500 L 49 34 41.500 34 L 34 34 34 41.500 M 93 41.500 L 93 49 100 49 L 107 49 107 41.500 L 107 34 100 34 L 93 34 93 41.500 M 151 41.500 L 151 49 158.500 49 L 166 49 166 41.500 L 166 34 158.500 34 L 151 34 151 41.500 M 59.756 96.256 L 93 129.511 93 143.756 L 93 158 85.500 158 L 78 158 78 165.500 L 78 173 100 173 L 122 173 122 165.500 L 122 158 114.500 158 L 107 158 107 143.756 L 107 129.511 140.244 96.256 L 173.489 63 100 63 L 26.511 63 59.756 96.256" stroke="none" fill="black" fill-rule="evenodd"/>
</svg>